SplineFontDB: 3.0
FontName: Tauri-Regular
FullName: Tauri Regular
FamilyName: Tauri
Weight: Book
Copyright: Copyright (c) 2011, Sorkin Type Co (www.sorkintype.com)\nwith Reserved Font Name 'Tauri'.
Version: 1.000
ItalicAngle: 0
UnderlinePosition: -124
UnderlineWidth: 145
Ascent: 1638
Descent: 410
LayerCount: 2
Layer: 0 1 "Back"  1
Layer: 1 1 "Fore"  0
XUID: [1021 631 1661839179 4746785]
FSType: 0
OS2Version: 3
OS2_WeightWidthSlopeOnly: 0
OS2_UseTypoMetrics: 1
CreationTime: 1357814580
ModificationTime: 1357799377
PfmFamily: 17
TTFWeight: 400
TTFWidth: 5
LineGap: 0
VLineGap: 0
Panose: 2 0 0 0 0 0 0 0 0 0
OS2TypoAscent: 402
OS2TypoAOffset: 1
OS2TypoDescent: -110
OS2TypoDOffset: 1
OS2TypoLinegap: 0
OS2WinAscent: 0
OS2WinAOffset: 1
OS2WinDescent: 0
OS2WinDOffset: 1
HheadAscent: 0
HheadAOffset: 1
HheadDescent: 0
HheadDOffset: 1
OS2SubXSize: 1434
OS2SubYSize: 1331
OS2SubXOff: 0
OS2SubYOff: 287
OS2SupXSize: 1434
OS2SupYSize: 1331
OS2SupXOff: 0
OS2SupYOff: 977
OS2StrikeYSize: 214
OS2StrikeYPos: 753
OS2Vendor: 'STC '
OS2CodePages: 00000001.00000000
OS2UnicodeRanges: 800000af.5000004a.00000000.00000000
DEI: 91125
TtTable: prep
PUSHW_2
 2048
 2048
MUL
DUP
PUSHB_1
 1
SWAP
WCVTP
DUP
PUSHB_1
 3
SWAP
WCVTF
PUSHB_1
 23
RCVT
DUP
DUP
MPPEM
PUSHW_1
 12
LTEQ
MPPEM
PUSHB_1
 6
GTEQ
AND
IF
PUSHB_1
 52
ELSE
PUSHB_1
 40
EIF
ADD
FLOOR
DUP
ROLL
NEQ
IF
PUSHB_1
 2
CINDEX
SUB
PUSHB_1
 1
RCVT
MUL
SWAP
DIV
PUSHB_1
 2
SWAP
WCVTP
PUSHB_4
 11
 11
 5
 4
CALL
PUSHB_4
 12
 17
 5
 4
CALL
PUSHB_4
 20
 25
 5
 4
CALL
EIF
PUSHB_3
 4
 40
 9
RCVT
GT
WCVTP
PUSHB_4
 12
 19
 6
 4
CALL
PUSHB_2
 6
 3
WCVTP
PUSHB_2
 36
 1
GETINFO
LTEQ
IF
PUSHB_1
 64
GETINFO
IF
PUSHB_2
 6
 1
WCVTP
PUSHB_2
 38
 1
GETINFO
LTEQ
IF
PUSHW_1
 1024
GETINFO
IF
PUSHB_2
 6
 1
WCVTP
EIF
EIF
EIF
EIF
PUSHW_1
 511
SCANCTRL
PUSHB_1
 4
SCANTYPE
PUSHB_2
 5
 0
WCVTP
EndTTInstrs
TtTable: fpgm
PUSHB_1
 0
FDEF
PUSHB_1
 32
ADD
FLOOR
ENDF
PUSHB_1
 1
FDEF
DUP
ABS
DUP
PUSHB_1
 192
LT
PUSHB_1
 4
MINDEX
AND
PUSHB_1
 4
RCVT
OR
IF
POP
SWAP
POP
ELSE
ROLL
IF
DUP

StartChar: .notdef
Encoding: 65536 -1 0
Width: 2134
Flags: W
LayerCount: 2
Fore
SplineSet
260 1614 m 1,0,-1
 1874 1614 l 1,1,-1
 1874 0 l 1,2,-1
 260 0 l 1,3,-1
 260 1614 l 1,0,-1
695 287 m 1,4,-1
 1065 690 l 1,5,-1
 1449 287 l 1,6,-1
 1578 416 l 1,7,-1
 1181 807 l 1,8,-1
 1578 1188 l 1,9,-1
 1442 1320 l 1,10,-1
 1068 920 l 1,11,-1
 689 1321 l 1,12,-1
 559 1189 l 1,13,-1
 951 804 l 1,14,-1
 560 441 l 1,15,-1
 695 287 l 1,4,-1
EndSplineSet
EndChar

StartChar: I
Encoding: 73 73 4
Width: 640
Flags: W
LayerCount: 2
Fore
SplineSet
197 1571 m 1,0,-1
 442 1571 l 1,1,-1
 442 0 l 1,2,-1
 197 0 l 1,3,-1
 197 1571 l 1,0,-1
EndSplineSet
EndChar

StartChar: N
Encoding: 78 78 5
Width: 1492
Flags: W
LayerCount: 2
Fore
SplineSet
214 1571 m 1,0,-1
 420 1571 l 1,1,-1
 979 575 l 1,2,-1
 1047 393 l 1,3,-1
 1059 393 l 1,4,-1
 1032 702 l 1,5,-1
 1032 1571 l 1,6,-1
 1277 1571 l 1,7,-1
 1277 0 l 1,8,-1
 1073 0 l 1,9,-1
 502 993 l 1,10,-1
 445 1129 l 1,11,-1
 433 1129 l 1,12,-1
 459 763 l 1,13,-1
 459 0 l 1,14,-1
 214 0 l 1,15,-1
 214 1571 l 1,0,-1
EndSplineSet
EndChar

StartChar: O
Encoding: 79 79 6
Width: 1347
Flags: W
LayerCount: 2
Fore
SplineSet
674 -22 m 0,0,1
 550 -22 550 -22 445.5 26 c 128,-1,2
 341 74 341 74 265.5 173.5 c 128,-1,3
 190 273 190 273 147.5 425.5 c 128,-1,4
 105 578 105 578 105 787 c 0,5,6
 105 995 105 995 147.5 1147 c 128,-1,7
 190 1299 190 1299 265.5 1398 c 128,-1,8
 341 1497 341 1497 445.5 1545 c 128,-1,9
 550 1593 550 1593 674 1593 c 0,10,11
 797 1593 797 1593 901.5 1545 c 128,-1,12
 1006 1497 1006 1497 1082 1398 c 128,-1,13
 1158 1299 1158 1299 1200.5 1147 c 128,-1,14
 1243 995 1243 995 1243 787 c 0,15,16
 1243 578 1243 578 1200.5 425.5 c 128,-1,17
 1158 273 1158 273 1082 173.5 c 128,-1,18
 1006 74 1006 74 901.5 26 c 128,-1,19
 797 -22 797 -22 674 -22 c 0,0,1
674 185 m 256,20,21
 738 185 738 185 796 218.5 c 128,-1,22
 854 252 854 252 898 324 c 128,-1,23
 942 396 942 396 968 510 c 128,-1,24
 994 624 994 624 994 785 c 0,25,26
 994 947 994 947 968 1061.5 c 128,-1,27
 942 1176 942 1176 898 1249 c 128,-1,28
 854 1322 854 1322 796 1356 c 128,-1,29
 738 1390 738 1390 674 1390 c 256,30,31
 610 1390 610 1390 552 1356 c 128,-1,32
 494 1322 494 1322 449.5 1249 c 128,-1,33
 405 1176 405 1176 379 1061.5 c 128,-1,34
 353 947 353 947 353 785 c 0,35,36
 353 624 353 624 379 510 c 128,-1,37
 405 396 405 396 449.5 324 c 128,-1,38
 494 252 494 252 552 218.5 c 128,-1,39
 610 185 610 185 674 185 c 256,20,21
EndSplineSet
EndChar

StartChar: S
Encoding: 83 83 7
Width: 1059
Flags: W
LayerCount: 2
Fore
SplineSet
138 294 m 1,0,1
 225 234 225 234 305.5 210 c 128,-1,2
 386 186 386 186 463 186 c 0,3,4
 531 186 531 186 578 202.5 c 128,-1,5
 625 219 625 219 653.5 245.5 c 128,-1,6
 682 272 682 272 694.5 305.5 c 128,-1,7
 707 339 707 339 707 373 c 0,8,9
 707 428 707 428 682 473 c 128,-1,10
 657 518 657 518 616.5 559 c 128,-1,11
 576 600 576 600 524.5 638 c 128,-1,12
 473 676 473 676 419 717 c 128,-1,13
 365 758 365 758 313 803.5 c 128,-1,14
 261 849 261 849 220.5 904.5 c 128,-1,15
 180 960 180 960 155.5 1027.5 c 128,-1,16
 131 1095 131 1095 131 1179 c 0,17,18
 131 1275 131 1275 164.5 1351.5 c 128,-1,19
 198 1428 198 1428 257 1481 c 128,-1,20
 316 1534 316 1534 397 1562.5 c 128,-1,21
 478 1591 478 1591 573 1591 c 0,22,23
 649 1591 649 1591 725 1574.5 c 128,-1,24
 801 1558 801 1558 857 1530 c 1,25,-1
 856 1298 l 1,26,27
 784 1345 784 1345 720 1365 c 128,-1,28
 656 1385 656 1385 593 1385 c 0,29,30
 537 1385 537 1385 495.5 1370 c 128,-1,31
 454 1355 454 1355 426.5 1329 c 128,-1,32
 399 1303 399 1303 385.5 1268.5 c 128,-1,33
 372 1234 372 1234 372 1194 c 0,34,35
 372 1136 372 1136 396.5 1089.5 c 128,-1,36
 421 1043 421 1043 461.5 1002 c 128,-1,37
 502 961 502 961 554 923.5 c 128,-1,38
 606 886 606 886 659.5 846 c 128,-1,39
 713 806 713 806 765 762 c 128,-1,40
 817 718 817 718 857.5 664.5 c 128,-1,41
 898 611 898 611 922.5 545 c 128,-1,42
 947 479 947 479 947 396 c 0,43,44
 947 303 947 303 914.5 226 c 128,-1,45
 882 149 882 149 821.5 94 c 128,-1,46
 761 39 761 39 674.5 8.5 c 128,-1,47
 588 -22 588 -22 481 -22 c 0,48,49
 437 -22 437 -22 390 -16.5 c 128,-1,50
 343 -11 343 -11 297.5 -1 c 128,-1,51
 252 9 252 9 210.5 23.5 c 128,-1,52
 169 38 169 38 137 57 c 1,53,-1
 138 294 l 1,0,1
EndSplineSet
EndChar

StartChar: a
Encoding: 97 97 8
Width: 1137
Flags: W
LayerCount: 2
Fore
SplineSet
85 308 m 0,0,1
 85 492 85 492 212.5 588.5 c 128,-1,2
 340 685 340 685 588 685 c 2,3,-1
 732 685 l 1,4,-1
 732 747 l 2,5,6
 732 802 732 802 719.5 843.5 c 128,-1,7
 707 885 707 885 679.5 913 c 128,-1,8
 652 941 652 941 607.5 955.5 c 128,-1,9
 563 970 563 970 499 970 c 0,10,11
 455 970 455 970 416 963 c 128,-1,12
 377 956 377 956 339 944 c 128,-1,13
 301 932 301 932 261.5 915 c 128,-1,14
 222 898 222 898 178 879 c 1,15,-1
 178 1078 l 1,16,17
 217 1097 217 1097 258 1112 c 128,-1,18
 299 1127 299 1127 345 1137.5 c 128,-1,19
 391 1148 391 1148 443 1153 c 128,-1,20
 495 1158 495 1158 556 1158 c 0,21,22
 767 1158 767 1158 870.5 1051 c 128,-1,23
 974 944 974 944 974 739 c 2,24,-1
 974 260 l 2,25,26
 974 223 974 223 974 191 c 128,-1,27
 974 159 974 159 976.5 128 c 128,-1,28
 979 97 979 97 985 65.5 c 128,-1,29
 991 34 991 34 1003 0 c 1,30,-1
 756 0 l 1,31,32
 746 27 746 27 741 58 c 128,-1,33
 736 89 736 89 734 121 c 1,34,35
 681 55 681 55 605.5 16 c 128,-1,36
 530 -23 530 -23 429 -23 c 0,37,38
 351 -23 351 -23 287.5 4 c 128,-1,39
 224 31 224 31 179 76.5 c 128,-1,40
 134 122 134 122 109.5 182 c 128,-1,41
 85 242 85 242 85 308 c 0,0,1
330 341 m 0,42,43
 330 308 330 308 340 276.5 c 128,-1,44
 350 245 350 245 371.5 220 c 128,-1,45
 393 195 393 195 427 180 c 128,-1,46
 461 165 461 165 509 165 c 0,47,48
 570 165 570 165 628 190 c 128,-1,49
 686 215 686 215 732 266 c 1,50,-1
 732 522 l 1,51,-1
 597 522 l 2,52,53
 522 522 522 522 471 509 c 128,-1,54
 420 496 420 496 388.5 472 c 128,-1,55
 357 448 357 448 343.5 414.5 c 128,-1,56
 330 381 330 381 330 341 c 0,42,43
EndSplineSet
EndChar

StartChar: d
Encoding: 100 100 9
Width: 1222
Flags: W
LayerCount: 2
Fore
SplineSet
538 -23 m 0,0,1
 441 -23 441 -23 358 13.5 c 128,-1,2
 275 50 275 50 214.5 123 c 128,-1,3
 154 196 154 196 119.5 304.5 c 128,-1,4
 85 413 85 413 85 557 c 0,5,6
 85 699 85 699 119.5 810.5 c 128,-1,7
 154 922 154 922 221.5 999 c 128,-1,8
 289 1076 289 1076 390 1116.5 c 128,-1,9
 491 1157 491 1157 624 1157 c 0,10,11
 681 1157 681 1157 726.5 1147.5 c 128,-1,12
 772 1138 772 1138 812 1124 c 1,13,-1
 809 1225 l 1,14,-1
 809 1711 l 1,15,-1
 1051 1711 l 1,16,-1
 1051 413 l 2,17,18
 1051 362 1051 362 1053.5 304 c 128,-1,19
 1056 246 1056 246 1060.5 190 c 128,-1,20
 1065 134 1065 134 1070 84 c 128,-1,21
 1075 34 1075 34 1081 0 c 1,22,-1
 844 0 l 1,23,24
 838 20 838 20 833.5 45 c 128,-1,25
 829 70 829 70 826 97 c 1,26,27
 778 43 778 43 707.5 10 c 128,-1,28
 637 -23 637 -23 538 -23 c 0,0,1
604 165 m 0,29,30
 722 165 722 165 809 241 c 1,31,-1
 809 937 l 1,32,33
 726 970 726 970 642 970 c 0,34,35
 569 970 569 970 512.5 947.5 c 128,-1,36
 456 925 456 925 417 876 c 128,-1,37
 378 827 378 827 358 750 c 128,-1,38
 338 673 338 673 338 564 c 0,39,40
 338 460 338 460 357.5 384.5 c 128,-1,41
 377 309 377 309 412.5 260 c 128,-1,42
 448 211 448 211 496.5 188 c 128,-1,43
 545 165 545 165 604 165 c 0,29,30
EndSplineSet
EndChar

StartChar: n
Encoding: 110 110 10
Width: 1268
Flags: W
LayerCount: 2
Fore
SplineSet
171 1135 m 1,0,-1
 384 1135 l 1,1,-1
 398 1008 l 1,2,3
 450 1075 450 1075 531.5 1116 c 128,-1,4
 613 1157 613 1157 731 1157 c 0,5,6
 906 1157 906 1157 1002 1050 c 128,-1,7
 1098 943 1098 943 1098 723 c 2,8,-1
 1098 0 l 1,9,-1
 856 0 l 1,10,-1
 856 715 l 2,11,12
 856 845 856 845 806 907.5 c 128,-1,13
 756 970 756 970 665 970 c 0,14,15
 590 970 590 970 525 938.5 c 128,-1,16
 460 907 460 907 413 842 c 1,17,-1
 413 0 l 1,18,-1
 171 0 l 1,19,-1
 171 1135 l 1,0,-1
EndSplineSet
EndChar

StartChar: s
Encoding: 115 115 11
Width: 947
Flags: W
LayerCount: 2
Fore
SplineSet
145 247 m 1,0,1
 219 202 219 202 297 182.5 c 128,-1,2
 375 163 375 163 434 163 c 0,3,4
 522 163 522 163 570 196.5 c 128,-1,5
 618 230 618 230 618 290 c 0,6,7
 618 324 618 324 601.5 348.5 c 128,-1,8
 585 373 585 373 555 395.5 c 128,-1,9
 525 418 525 418 482.5 441 c 128,-1,10
 440 464 440 464 388 496 c 0,11,12
 340 525 340 525 295 557.5 c 128,-1,13
 250 590 250 590 215 631 c 128,-1,14
 180 672 180 672 159 724.5 c 128,-1,15
 138 777 138 777 138 846 c 0,16,17
 138 914 138 914 163.5 971 c 128,-1,18
 189 1028 189 1028 238.5 1069.5 c 128,-1,19
 288 1111 288 1111 361.5 1134 c 128,-1,20
 435 1157 435 1157 530 1157 c 0,21,22
 555 1157 555 1157 586.5 1154.5 c 128,-1,23
 618 1152 618 1152 650.5 1146.5 c 128,-1,24
 683 1141 683 1141 713.5 1131.5 c 128,-1,25
 744 1122 744 1122 768 1109 c 1,26,-1
 768 921 l 1,27,28
 749 932 749 932 722.5 942.5 c 128,-1,29
 696 953 696 953 666.5 960.5 c 128,-1,30
 637 968 637 968 607 972.5 c 128,-1,31
 577 977 577 977 551 977 c 0,32,33
 505 977 505 977 471.5 967 c 128,-1,34
 438 957 438 957 416.5 940.5 c 128,-1,35
 395 924 395 924 384.5 901 c 128,-1,36
 374 878 374 878 374 853 c 0,37,38
 374 821 374 821 388.5 795.5 c 128,-1,39
 403 770 403 770 429 747 c 128,-1,40
 455 724 455 724 491.5 701.5 c 128,-1,41
 528 679 528 679 573 652 c 0,42,43
 620 624 620 624 669 592 c 128,-1,44
 718 560 718 560 757.5 519 c 128,-1,45
 797 478 797 478 822.5 424.5 c 128,-1,46
 848 371 848 371 848 301 c 0,47,48
 848 229 848 229 820.5 169.5 c 128,-1,49
 793 110 793 110 741 67 c 128,-1,50
 689 24 689 24 613.5 0.5 c 128,-1,51
 538 -23 538 -23 443 -23 c 0,52,53
 368 -23 368 -23 289.5 -7 c 128,-1,54
 211 9 211 9 145 41 c 1,55,-1
 145 247 l 1,0,1
EndSplineSet
EndChar

StartChar: h
Encoding: 104 104 12
Width: 1253
Flags: W
LayerCount: 2
Fore
SplineSet
171 1711 m 1,0,-1
 413 1711 l 1,1,-1
 413 1021 l 1,2,3
 463 1083 463 1083 539 1120 c 128,-1,4
 615 1157 615 1157 727 1157 c 0,5,6
 902 1157 902 1157 992.5 1050 c 128,-1,7
 1083 943 1083 943 1083 723 c 2,8,-1
 1083 0 l 1,9,-1
 841 0 l 1,10,-1
 841 715 l 2,11,12
 841 845 841 845 796.5 907.5 c 128,-1,13
 752 970 752 970 661 970 c 0,14,15
 583 970 583 970 520.5 936.5 c 128,-1,16
 458 903 458 903 413 834 c 1,17,-1
 413 0 l 1,18,-1
 171 0 l 1,19,-1
 171 1711 l 1,0,-1
EndSplineSet
EndChar

StartChar: i
Encoding: 105 105 13
Width: 604
Flags: W
LayerCount: 2
Fore
SplineSet
302 1385 m 0,0,1
 266 1385 266 1385 237 1396 c 128,-1,2
 208 1407 208 1407 187 1427 c 128,-1,3
 166 1447 166 1447 155 1475 c 128,-1,4
 144 1503 144 1503 144 1537 c 256,5,6
 144 1571 144 1571 155 1598.5 c 128,-1,7
 166 1626 166 1626 187 1646 c 128,-1,8
 208 1666 208 1666 237 1677 c 128,-1,9
 266 1688 266 1688 302 1688 c 0,10,11
 376 1688 376 1688 419.5 1646.5 c 128,-1,12
 463 1605 463 1605 463 1537 c 256,13,14
 463 1469 463 1469 419.5 1427 c 128,-1,15
 376 1385 376 1385 302 1385 c 0,0,1
182 1135 m 1,16,-1
 422 1135 l 1,17,-1
 422 0 l 1,18,-1
 182 0 l 1,19,-1
 182 1135 l 1,16,-1
EndSplineSet
EndChar

StartChar: o
Encoding: 111 111 14
Width: 1190
Flags: W
LayerCount: 2
Fore
SplineSet
94 565 m 256,0,1
 94 708 94 708 131 818.5 c 128,-1,2
 168 929 168 929 234.5 1004 c 128,-1,3
 301 1079 301 1079 393 1118 c 128,-1,4
 485 1157 485 1157 595 1157 c 0,5,6
 704 1157 704 1157 796 1119 c 128,-1,7
 888 1081 888 1081 955 1007 c 128,-1,8
 1022 933 1022 933 1059.5 823.5 c 128,-1,9
 1097 714 1097 714 1097 571 c 256,10,11
 1097 428 1097 428 1059.5 317 c 128,-1,12
 1022 206 1022 206 955.5 130.5 c 128,-1,13
 889 55 889 55 796.5 16 c 128,-1,14
 704 -23 704 -23 595 -23 c 0,15,16
 485 -23 485 -23 393 15.5 c 128,-1,17
 301 54 301 54 234.5 128.5 c 128,-1,18
 168 203 168 203 131 312.5 c 128,-1,19
 94 422 94 422 94 565 c 256,0,1
595 165 m 0,20,21
 652 165 652 165 698.5 188.5 c 128,-1,22
 745 212 745 212 778.5 261.5 c 128,-1,23
 812 311 812 311 830.5 388 c 128,-1,24
 849 465 849 465 849 571 c 256,25,26
 849 677 849 677 830.5 752.5 c 128,-1,27
 812 828 812 828 778.5 876.5 c 128,-1,28
 745 925 745 925 698.5 947.5 c 128,-1,29
 652 970 652 970 595 970 c 0,30,31
 539 970 539 970 492 946.5 c 128,-1,32
 445 923 445 923 411.5 873.5 c 128,-1,33
 378 824 378 824 359.5 747.5 c 128,-1,34
 341 671 341 671 341 565 c 256,35,36
 341 459 341 459 359.5 383.5 c 128,-1,37
 378 308 378 308 411.5 259.5 c 128,-1,38
 445 211 445 211 492 188 c 128,-1,39
 539 165 539 165 595 165 c 0,20,21
EndSplineSet
EndChar

StartChar: e
Encoding: 101 101 15
Width: 1114
Flags: W
LayerCount: 2
Fore
SplineSet
85 575 m 0,0,1
 85 727 85 727 126.5 837 c 128,-1,2
 168 947 168 947 237.5 1018 c 128,-1,3
 307 1089 307 1089 397.5 1123 c 128,-1,4
 488 1157 488 1157 586 1157 c 0,5,6
 678 1157 678 1157 756 1127.5 c 128,-1,7
 834 1098 834 1098 890.5 1039 c 128,-1,8
 947 980 947 980 978.5 891.5 c 128,-1,9
 1010 803 1010 803 1010 686 c 0,10,11
 1010 634 1010 634 1002.5 584 c 128,-1,12
 995 534 995 534 978 488 c 1,13,-1
 342 488 l 1,14,15
 354 385 354 385 383 322 c 128,-1,16
 412 259 412 259 454 224 c 128,-1,17
 496 189 496 189 548 177 c 128,-1,18
 600 165 600 165 659 165 c 0,19,20
 738 165 738 165 802 186 c 128,-1,21
 866 207 866 207 929 242 c 1,22,-1
 929 50 l 1,23,24
 851 10 851 10 772.5 -6.5 c 128,-1,25
 694 -23 694 -23 616 -23 c 0,26,27
 493 -23 493 -23 394.5 17 c 128,-1,28
 296 57 296 57 227.5 133.5 c 128,-1,29
 159 210 159 210 122 321.5 c 128,-1,30
 85 433 85 433 85 575 c 0,0,1
770 651 m 1,31,32
 780 723 780 723 773 782 c 128,-1,33
 766 841 766 841 741.5 883 c 128,-1,34
 717 925 717 925 676 947.5 c 128,-1,35
 635 970 635 970 578 970 c 0,36,37
 471 970 471 970 405.5 888.5 c 128,-1,38
 340 807 340 807 335 651 c 1,39,-1
 770 651 l 1,31,32
EndSplineSet
EndChar

StartChar: H
Encoding: 72 72 16
Width: 1451
Flags: W
LayerCount: 2
Fore
SplineSet
214 1571 m 1,0,-1
 459 1571 l 1,1,-1
 459 951 l 1,2,-1
 992 951 l 1,3,-1
 992 1571 l 1,4,-1
 1237 1571 l 1,5,-1
 1237 0 l 1,6,-1
 992 0 l 1,7,-1
 992 754 l 1,8,-1
 459 754 l 1,9,-1
 459 0 l 1,10,-1
 214 0 l 1,11,-1
 214 1571 l 1,0,-1
EndSplineSet
EndChar

StartChar: b
Encoding: 98 98 17
Width: 1191
Flags: W
LayerCount: 2
Fore
SplineSet
141 1711 m 1,0,-1
 383 1711 l 1,1,-1
 383 1225 l 1,2,-1
 379 1051 l 1,3,4
 427 1099 427 1099 494 1128 c 128,-1,5
 561 1157 561 1157 654 1157 c 0,6,7
 752 1157 752 1157 835 1120.5 c 128,-1,8
 918 1084 918 1084 978 1012 c 128,-1,9
 1038 940 1038 940 1072 832.5 c 128,-1,10
 1106 725 1106 725 1106 583 c 0,11,12
 1106 426 1106 426 1065.5 312 c 128,-1,13
 1025 198 1025 198 957.5 123.5 c 128,-1,14
 890 49 890 49 800.5 13 c 128,-1,15
 711 -23 711 -23 614 -23 c 0,16,17
 526 -23 526 -23 463 -3.5 c 128,-1,18
 400 16 400 16 354 53 c 1,19,-1
 343 0 l 1,20,-1
 141 0 l 1,21,-1
 141 1711 l 1,0,-1
383 220 m 1,22,23
 425 190 425 190 472.5 177.5 c 128,-1,24
 520 165 520 165 571 165 c 0,25,26
 632 165 632 165 684 187.5 c 128,-1,27
 736 210 736 210 773.5 258.5 c 128,-1,28
 811 307 811 307 832 384 c 128,-1,29
 853 461 853 461 853 570 c 0,30,31
 853 674 853 674 834 749.5 c 128,-1,32
 815 825 815 825 780.5 874 c 128,-1,33
 746 923 746 923 697 946.5 c 128,-1,34
 648 970 648 970 587 970 c 0,35,36
 530 970 530 970 478 950 c 128,-1,37
 426 930 426 930 383 892 c 1,38,-1
 383 220 l 1,22,23
EndSplineSet
EndChar

StartChar: q
Encoding: 113 113 18
Width: 1181
Flags: W
LayerCount: 2
Fore
SplineSet
538 -23 m 0,0,1
 441 -23 441 -23 358 13.5 c 128,-1,2
 275 50 275 50 214.5 123 c 128,-1,3
 154 196 154 196 119.5 304.5 c 128,-1,4
 85 413 85 413 85 557 c 0,5,6
 85 699 85 699 120 810.5 c 128,-1,7
 155 922 155 922 221 999 c 128,-1,8
 287 1076 287 1076 383 1116.5 c 128,-1,9
 479 1157 479 1157 601 1157 c 0,10,11
 640 1157 640 1157 673 1151.5 c 128,-1,12
 706 1146 706 1146 732.5 1137.5 c 128,-1,13
 759 1129 759 1129 778.5 1119 c 128,-1,14
 798 1109 798 1109 811 1100 c 1,15,-1
 821 1138 l 1,16,-1
 1040 1138 l 1,17,-1
 1040 -520 l 1,18,-1
 798 -520 l 1,19,-1
 798 -145 l 1,20,-1
 802 78 l 1,21,22
 757 32 757 32 693 4.5 c 128,-1,23
 629 -23 629 -23 538 -23 c 0,0,1
604 165 m 0,24,25
 718 165 718 165 798 237 c 1,26,-1
 798 939 l 1,27,28
 723 970 723 970 642 970 c 0,29,30
 569 970 569 970 512.5 947.5 c 128,-1,31
 456 925 456 925 417 876 c 128,-1,32
 378 827 378 827 358 750 c 128,-1,33
 338 673 338 673 338 564 c 0,34,35
 338 460 338 460 357.5 384.5 c 128,-1,36
 377 309 377 309 412.5 260 c 128,-1,37
 448 211 448 211 496.5 188 c 128,-1,38
 545 165 545 165 604 165 c 0,24,25
EndSplineSet
EndChar

StartChar: u
Encoding: 117 117 19
Width: 1233
Flags: W
LayerCount: 2
Fore
SplineSet
171 1135 m 1,0,-1
 413 1135 l 1,1,-1
 413 421 l 2,2,3
 413 291 413 291 456 228 c 128,-1,4
 499 165 499 165 597 165 c 0,5,6
 663 165 663 165 721 194.5 c 128,-1,7
 779 224 779 224 822 286 c 1,8,-1
 822 1135 l 1,9,-1
 1064 1135 l 1,10,-1
 1064 0 l 1,11,-1
 849 0 l 1,12,-1
 836 120 l 1,13,14
 789 55 789 55 715 16 c 128,-1,15
 641 -23 641 -23 528 -23 c 0,16,17
 351 -23 351 -23 261 84.5 c 128,-1,18
 171 192 171 192 171 413 c 2,19,-1
 171 1135 l 1,0,-1
EndSplineSet
EndChar

StartChar: p
Encoding: 112 112 20
Width: 1180
Flags: W
LayerCount: 2
Fore
SplineSet
383 -141 m 1,0,-1
 383 -520 l 1,1,-1
 141 -520 l 1,2,-1
 141 1135 l 1,3,-1
 355 1135 l 1,4,-1
 368 1046 l 1,5,6
 414 1096 414 1096 480.5 1126.5 c 128,-1,7
 547 1157 547 1157 643 1157 c 0,8,9
 741 1157 741 1157 823.5 1120.5 c 128,-1,10
 906 1084 906 1084 966 1012 c 128,-1,11
 1026 940 1026 940 1060 832.5 c 128,-1,12
 1094 725 1094 725 1094 583 c 0,13,14
 1094 426 1094 426 1054 312 c 128,-1,15
 1014 198 1014 198 946 123.5 c 128,-1,16
 878 49 878 49 789 13 c 128,-1,17
 700 -23 700 -23 603 -23 c 0,18,19
 534 -23 534 -23 479 -7.5 c 128,-1,20
 424 8 424 8 379 37 c 1,21,-1
 383 -141 l 1,0,-1
383 211 m 1,22,23
 422 185 422 185 466 175 c 128,-1,24
 510 165 510 165 560 165 c 0,25,26
 621 165 621 165 673 187.5 c 128,-1,27
 725 210 725 210 762.5 258.5 c 128,-1,28
 800 307 800 307 821 384 c 128,-1,29
 842 461 842 461 842 570 c 0,30,31
 842 674 842 674 823 749.5 c 128,-1,32
 804 825 804 825 769.5 874 c 128,-1,33
 735 923 735 923 686 946.5 c 128,-1,34
 637 970 637 970 576 970 c 0,35,36
 464 970 464 970 383 897 c 1,37,-1
 383 211 l 1,22,23
EndSplineSet
EndChar

StartChar: m
Encoding: 109 109 21
Width: 1953
Flags: W
LayerCount: 2
Fore
SplineSet
171 1135 m 1,0,-1
 384 1135 l 1,1,-1
 398 1008 l 1,2,3
 450 1075 450 1075 531.5 1116 c 128,-1,4
 613 1157 613 1157 731 1157 c 0,5,6
 848 1157 848 1157 929.5 1110 c 128,-1,7
 1011 1063 1011 1063 1054 966 c 1,8,9
 1079 1008 1079 1008 1113.5 1043 c 128,-1,10
 1148 1078 1148 1078 1192.5 1103.5 c 128,-1,11
 1237 1129 1237 1129 1292.5 1143 c 128,-1,12
 1348 1157 1348 1157 1416 1157 c 0,13,14
 1591 1157 1591 1157 1687 1050 c 128,-1,15
 1783 943 1783 943 1783 723 c 2,16,-1
 1783 0 l 1,17,-1
 1541 0 l 1,18,-1
 1541 715 l 2,19,20
 1541 845 1541 845 1491 907.5 c 128,-1,21
 1441 970 1441 970 1350 970 c 0,22,23
 1272 970 1272 970 1205 935.5 c 128,-1,24
 1138 901 1138 901 1091 832 c 1,25,26
 1094 806 1094 806 1096 779 c 128,-1,27
 1098 752 1098 752 1098 723 c 2,28,-1
 1098 0 l 1,29,-1
 856 0 l 1,30,-1
 856 715 l 2,31,32
 856 845 856 845 806 907.5 c 128,-1,33
 756 970 756 970 665 970 c 0,34,35
 590 970 590 970 525 938.5 c 128,-1,36
 460 907 460 907 413 842 c 1,37,-1
 413 0 l 1,38,-1
 171 0 l 1,39,-1
 171 1135 l 1,0,-1
EndSplineSet
EndChar

StartChar: l
Encoding: 108 108 22
Width: 579
Flags: W
LayerCount: 2
Fore
SplineSet
170 1711 m 1,0,-1
 409 1711 l 1,1,-1
 409 0 l 1,2,-1
 170 0 l 1,3,-1
 170 1711 l 1,0,-1
EndSplineSet
EndChar

StartChar: r
Encoding: 114 114 23
Width: 807
Flags: W
LayerCount: 2
Fore
SplineSet
171 1135 m 1,0,-1
 384 1135 l 1,1,-1
 398 1004 l 1,2,3
 453 1076 453 1076 532.5 1116.5 c 128,-1,4
 612 1157 612 1157 709 1157 c 0,5,6
 748 1157 748 1157 763 1150 c 1,7,-1
 763 897 l 1,8,9
 729 914 729 914 684 920 c 128,-1,10
 639 926 639 926 591 918 c 128,-1,11
 543 910 543 910 496.5 885.5 c 128,-1,12
 450 861 450 861 413 818 c 1,13,-1
 413 0 l 1,14,-1
 171 0 l 1,15,-1
 171 1135 l 1,0,-1
EndSplineSet
EndChar

StartChar: g
Encoding: 103 103 24
Width: 1210
Flags: W
LayerCount: 2
Fore
SplineSet
108 -201 m 0,0,1
 108 -112 108 -112 156.5 -57.5 c 128,-1,2
 205 -3 205 -3 285 29 c 1,3,4
 239 58 239 58 213 108.5 c 128,-1,5
 187 159 187 159 186 215 c 0,6,7
 185 280 185 280 224.5 338.5 c 128,-1,8
 264 397 264 397 337 431 c 1,9,10
 243 479 243 479 187 565 c 128,-1,11
 131 651 131 651 131 772 c 0,12,13
 131 865 131 865 167 936.5 c 128,-1,14
 203 1008 203 1008 263.5 1057 c 128,-1,15
 324 1106 324 1106 404.5 1131.5 c 128,-1,16
 485 1157 485 1157 575 1157 c 0,17,18
 663 1157 663 1157 740.5 1134.5 c 128,-1,19
 818 1112 818 1112 879 1069 c 1,20,21
 907 1117 907 1117 955 1137 c 128,-1,22
 1003 1157 1003 1157 1060 1157 c 2,23,-1
 1157 1157 l 1,24,-1
 1157 977 l 1,25,-1
 1102 977 l 2,26,27
 1073 977 1073 977 1042 972 c 128,-1,28
 1011 967 1011 967 985 956 c 1,29,30
 1011 914 1011 914 1024.5 863.5 c 128,-1,31
 1038 813 1038 813 1038 755 c 0,32,33
 1038 662 1038 662 1002.5 591 c 128,-1,34
 967 520 967 520 906 471.5 c 128,-1,35
 845 423 845 423 764.5 398.5 c 128,-1,36
 684 374 684 374 594 374 c 0,37,38
 572 374 572 374 550.5 375.5 c 128,-1,39
 529 377 529 377 509 379 c 1,40,41
 463 370 463 370 438.5 342.5 c 128,-1,42
 414 315 414 315 414 267 c 0,43,44
 414 223 414 223 434.5 198 c 128,-1,45
 455 173 455 173 488 161 c 128,-1,46
 521 149 521 149 561.5 146.5 c 128,-1,47
 602 144 602 144 642 144 c 0,48,49
 704 144 704 144 764.5 140.5 c 128,-1,50
 825 137 825 137 879 125.5 c 128,-1,51
 933 114 933 114 978.5 93.5 c 128,-1,52
 1024 73 1024 73 1057.5 38 c 128,-1,53
 1091 3 1091 3 1109.5 -48 c 128,-1,54
 1128 -99 1128 -99 1128 -170 c 0,55,56
 1128 -247 1128 -247 1095.5 -311 c 128,-1,57
 1063 -375 1063 -375 998 -421.5 c 128,-1,58
 933 -468 933 -468 836.5 -494 c 128,-1,59
 740 -520 740 -520 611 -520 c 0,60,61
 481 -520 481 -520 386.5 -496.5 c 128,-1,62
 292 -473 292 -473 230 -430.5 c 128,-1,63
 168 -388 168 -388 138 -329.5 c 128,-1,64
 108 -271 108 -271 108 -201 c 0,0,1
583 551 m 0,65,66
 689 551 689 551 746.5 601.5 c 128,-1,67
 804 652 804 652 804 764 c 256,68,69
 804 876 804 876 745 928 c 128,-1,70
 686 980 686 980 586 980 c 0,71,72
 480 980 480 980 423 927.5 c 128,-1,73
 366 875 366 875 366 763 c 0,74,75
 366 707 366 707 381 666.5 c 128,-1,76
 396 626 396 626 424 600.5 c 128,-1,77
 452 575 452 575 492 563 c 128,-1,78
 532 551 532 551 583 551 c 0,65,66
343 -171 m 0,79,80
 343 -207 343 -207 358 -238.5 c 128,-1,81
 373 -270 373 -270 406.5 -293.5 c 128,-1,82
 440 -317 440 -317 493.5 -330.5 c 128,-1,83
 547 -344 547 -344 625 -344 c 0,84,85
 761 -344 761 -344 827.5 -299 c 128,-1,86
 894 -254 894 -254 894 -179 c 0,87,88
 894 -131 894 -131 869.5 -103 c 128,-1,89
 845 -75 845 -75 803.5 -60.5 c 128,-1,90
 762 -46 762 -46 708 -42 c 128,-1,91
 654 -38 654 -38 596 -38 c 0,92,93
 565 -38 565 -38 526.5 -36.5 c 128,-1,94
 488 -35 488 -35 454 -33 c 1,95,96
 416 -41 416 -41 394 -56.5 c 128,-1,97
 372 -72 372 -72 361 -90.5 c 128,-1,98
 350 -109 350 -109 346.5 -130 c 128,-1,99
 343 -151 343 -151 343 -171 c 0,79,80
EndSplineSet
EndChar

StartChar: j
Encoding: 106 106 25
Width: 608
Flags: W
LayerCount: 2
Fore
SplineSet
302 1385 m 0,0,1
 266 1385 266 1385 237 1396 c 128,-1,2
 208 1407 208 1407 187 1427 c 128,-1,3
 166 1447 166 1447 155 1475 c 128,-1,4
 144 1503 144 1503 144 1537 c 256,5,6
 144 1571 144 1571 155 1598.5 c 128,-1,7
 166 1626 166 1626 187 1646 c 128,-1,8
 208 1666 208 1666 237 1677 c 128,-1,9
 266 1688 266 1688 302 1688 c 0,10,11
 376 1688 376 1688 419.5 1646.5 c 128,-1,12
 463 1605 463 1605 463 1537 c 256,13,14
 463 1469 463 1469 419.5 1427 c 128,-1,15
 376 1385 376 1385 302 1385 c 0,0,1
182 1135 m 1,16,-1
 425 1135 l 1,17,-1
 425 -187 l 2,18,19
 425 -262 425 -262 402 -323.5 c 128,-1,20
 379 -385 379 -385 335 -428.5 c 128,-1,21
 291 -472 291 -472 226.5 -496 c 128,-1,22
 162 -520 162 -520 79 -520 c 1,23,-1
 79 -342 l 1,24,25
 133 -337 133 -337 157.5 -309 c 128,-1,26
 182 -281 182 -281 182 -224 c 2,27,-1
 182 1135 l 1,16,-1
EndSplineSet
EndChar

StartChar: k
Encoding: 107 107 26
Width: 1134
Flags: W
LayerCount: 2
Fore
SplineSet
171 1711 m 1,0,-1
 413 1711 l 1,1,-1
 413 681 l 1,2,-1
 791 1135 l 1,3,-1
 1073 1135 l 1,4,-1
 671 694 l 1,5,-1
 1140 0 l 1,6,-1
 869 0 l 1,7,-1
 518 527 l 1,8,-1
 413 411 l 1,9,-1
 413 0 l 1,10,-1
 171 0 l 1,11,-1
 171 1711 l 1,0,-1
EndSplineSet
EndChar

StartChar: f
Encoding: 102 102 27
Width: 694
Flags: W
LayerCount: 2
Fore
SplineSet
202 958 m 1,0,-1
 85 958 l 1,1,-1
 85 1135 l 1,2,-1
 202 1135 l 1,3,-1
 202 1357 l 2,4,5
 202 1439 202 1439 225 1506.5 c 128,-1,6
 248 1574 248 1574 293.5 1622 c 128,-1,7
 339 1670 339 1670 407 1696.5 c 128,-1,8
 475 1723 475 1723 565 1723 c 0,9,10
 588 1723 588 1723 612.5 1721 c 128,-1,11
 637 1719 637 1719 651 1716 c 1,12,-1
 651 1522 l 1,13,14
 618 1537 618 1537 581 1537 c 0,15,16
 514 1537 514 1537 478 1497.5 c 128,-1,17
 442 1458 442 1458 442 1386 c 2,18,-1
 442 1135 l 1,19,-1
 625 1135 l 1,20,-1
 625 958 l 1,21,-1
 442 958 l 1,22,-1
 442 0 l 1,23,-1
 202 0 l 1,24,-1
 202 958 l 1,0,-1
EndSplineSet
EndChar

StartChar: t
Encoding: 116 116 28
Width: 767
Flags: W
LayerCount: 2
Fore
SplineSet
219 958 m 1,0,-1
 97 958 l 1,1,-1
 97 1135 l 1,2,-1
 225 1135 l 1,3,-1
 250 1479 l 1,4,-1
 459 1479 l 1,5,-1
 459 1135 l 1,6,-1
 669 1135 l 1,7,-1
 669 958 l 1,8,-1
 459 958 l 1,9,-1
 459 312 l 2,10,11
 459 274 459 274 467.5 249.5 c 128,-1,12
 476 225 476 225 492.5 211 c 128,-1,13
 509 197 509 197 531.5 191 c 128,-1,14
 554 185 554 185 583 185 c 0,15,16
 626 185 626 185 654 193 c 128,-1,17
 682 201 682 201 703 209 c 1,18,-1
 703 11 l 1,19,20
 669 -1 669 -1 626.5 -12 c 128,-1,21
 584 -23 584 -23 520 -23 c 0,22,23
 450 -23 450 -23 394.5 -3.5 c 128,-1,24
 339 16 339 16 300 56 c 128,-1,25
 261 96 261 96 240 157 c 128,-1,26
 219 218 219 218 219 301 c 2,27,-1
 219 958 l 1,0,-1
EndSplineSet
EndChar

StartChar: v
Encoding: 118 118 29
Width: 1027
Flags: W
LayerCount: 2
Fore
SplineSet
6 1135 m 1,0,-1
 253 1135 l 1,1,-1
 514 242 l 1,2,-1
 531 242 l 1,3,-1
 776 1135 l 1,4,-1
 1021 1135 l 1,5,-1
 652 0 l 1,6,-1
 394 0 l 1,7,-1
 6 1135 l 1,0,-1
EndSplineSet
EndChar

StartChar: w
Encoding: 119 119 30
Width: 1669
Flags: W
LayerCount: 2
Fore
SplineSet
10 1135 m 1,0,-1
 264 1135 l 1,1,-1
 462 242 l 1,2,-1
 483 242 l 1,3,-1
 712 1135 l 1,4,-1
 977 1135 l 1,5,-1
 1208 242 l 1,6,-1
 1225 242 l 1,7,-1
 1420 1135 l 1,8,-1
 1659 1135 l 1,9,-1
 1361 0 l 1,10,-1
 1070 0 l 1,11,-1
 838 847 l 1,12,-1
 832 847 l 1,13,-1
 624 0 l 1,14,-1
 324 0 l 1,15,-1
 10 1135 l 1,0,-1
EndSplineSet
EndChar

StartChar: c
Encoding: 99 99 31
Width: 960
Flags: W
LayerCount: 2
Fore
SplineSet
85 564 m 0,0,1
 85 708 85 708 120 818.5 c 128,-1,2
 155 929 155 929 222.5 1004 c 128,-1,3
 290 1079 290 1079 387 1118 c 128,-1,4
 484 1157 484 1157 609 1157 c 0,5,6
 690 1157 690 1157 757 1142.5 c 128,-1,7
 824 1128 824 1128 883 1099 c 1,8,-1
 882 865 l 1,9,10
 822 923 822 923 755 943.5 c 128,-1,11
 688 964 688 964 619 964 c 0,12,13
 479 964 479 964 407.5 869 c 128,-1,14
 336 774 336 774 336 575 c 0,15,16
 336 367 336 367 412.5 266 c 128,-1,17
 489 165 489 165 635 165 c 0,18,19
 707 165 707 165 770.5 188.5 c 128,-1,20
 834 212 834 212 891 263 c 1,21,-1
 891 60 l 1,22,23
 821 17 821 17 752.5 -3 c 128,-1,24
 684 -23 684 -23 602 -23 c 0,25,26
 486 -23 486 -23 391 15.5 c 128,-1,27
 296 54 296 54 228 129 c 128,-1,28
 160 204 160 204 122.5 313.5 c 128,-1,29
 85 423 85 423 85 564 c 0,0,1
EndSplineSet
EndChar

StartChar: x
Encoding: 120 120 32
Width: 1062
Flags: W
LayerCount: 2
Fore
SplineSet
394 602 m 1,0,-1
 52 1135 l 1,1,-1
 317 1135 l 1,2,-1
 531 778 l 1,3,-1
 740 1135 l 1,4,-1
 991 1135 l 1,5,-1
 661 585 l 1,6,-1
 1026 0 l 1,7,-1
 763 0 l 1,8,-1
 518 407 l 1,9,-1
 285 1 l 1,10,-1
 36 1 l 1,11,-1
 394 602 l 1,0,-1
EndSplineSet
EndChar

StartChar: y
Encoding: 121 121 33
Width: 1041
Flags: W
LayerCount: 2
Fore
SplineSet
211 -317 m 1,0,1
 243 -316 243 -316 273.5 -310 c 128,-1,2
 304 -304 304 -304 332 -285 c 128,-1,3
 360 -266 360 -266 384.5 -230.5 c 128,-1,4
 409 -195 409 -195 429 -133 c 1,5,-1
 477 33 l 1,6,-1
 388 33 l 1,7,-1
 -6 1135 l 1,8,-1
 254 1135 l 1,9,-1
 546 242 l 1,10,-1
 561 242 l 1,11,-1
 791 1135 l 1,12,-1
 1043 1135 l 1,13,-1
 679 -79 l 2,14,15
 649 -176 649 -176 616 -246.5 c 128,-1,16
 583 -317 583 -317 547 -366 c 128,-1,17
 511 -415 511 -415 472 -445 c 128,-1,18
 433 -475 433 -475 391 -492 c 128,-1,19
 349 -509 349 -509 304 -514.5 c 128,-1,20
 259 -520 259 -520 211 -520 c 1,21,-1
 211 -317 l 1,22,-1
 211 -317 l 1,0,1
EndSplineSet
EndChar

StartChar: z
Encoding: 122 122 34
Width: 1021
Flags: W
LayerCount: 2
Fore
SplineSet
582 960 m 1,0,-1
 139 960 l 1,1,-1
 139 1135 l 1,2,-1
 939 1135 l 1,3,-1
 445 176 l 1,4,-1
 910 176 l 1,5,-1
 910 0 l 1,6,-1
 82 0 l 1,7,-1
 582 960 l 1,0,-1
EndSplineSet
EndChar

StartChar: K
Encoding: 75 75 35
Width: 1288
Flags: W
LayerCount: 2
Fore
SplineSet
214 1571 m 1,0,-1
 459 1571 l 1,1,-1
 459 775 l 1,2,-1
 951 1571 l 1,3,-1
 1204 1571 l 1,4,-1
 778 904 l 1,5,-1
 1255 1 l 1,6,-1
 990 1 l 1,7,-1
 634 699 l 1,8,-1
 459 420 l 1,9,-1
 459 0 l 1,10,-1
 214 0 l 1,11,-1
 214 1571 l 1,0,-1
EndSplineSet
EndChar

StartChar: F
Encoding: 70 70 36
Width: 1088
Flags: W
LayerCount: 2
Fore
SplineSet
214 1571 m 1,0,-1
 1028 1571 l 1,1,-1
 1028 1373 l 1,2,-1
 459 1373 l 1,3,-1
 459 911 l 1,4,-1
 891 911 l 1,5,-1
 891 712 l 1,6,-1
 459 712 l 1,7,-1
 459 0 l 1,8,-1
 214 0 l 1,9,-1
 214 1571 l 1,0,-1
EndSplineSet
EndChar

StartChar: L
Encoding: 76 76 37
Width: 994
Flags: W
LayerCount: 2
Fore
SplineSet
214 1571 m 1,0,-1
 459 1571 l 1,1,-1
 459 202 l 1,2,-1
 940 202 l 1,3,-1
 940 0 l 1,4,-1
 214 0 l 1,5,-1
 214 1571 l 1,0,-1
EndSplineSet
EndChar

StartChar: Q
Encoding: 81 81 38
Width: 1347
Flags: W
LayerCount: 2
Fore
SplineSet
564 -12 m 1,0,1
 462 7 462 7 377.5 65 c 128,-1,2
 293 123 293 123 232.5 221.5 c 128,-1,3
 172 320 172 320 138.5 461 c 128,-1,4
 105 602 105 602 105 787 c 0,5,6
 105 995 105 995 147.5 1147 c 128,-1,7
 190 1299 190 1299 265.5 1398 c 128,-1,8
 341 1497 341 1497 445.5 1545 c 128,-1,9
 550 1593 550 1593 674 1593 c 0,10,11
 797 1593 797 1593 901.5 1545 c 128,-1,12
 1006 1497 1006 1497 1082 1398 c 128,-1,13
 1158 1299 1158 1299 1200.5 1147 c 128,-1,14
 1243 995 1243 995 1243 787 c 0,15,16
 1243 598 1243 598 1208 456 c 128,-1,17
 1173 314 1173 314 1110.5 215 c 128,-1,18
 1048 116 1048 116 961 59.5 c 128,-1,19
 874 3 874 3 769 -14 c 1,20,-1
 769 -33 l 2,21,22
 769 -72 769 -72 775.5 -101.5 c 128,-1,23
 782 -131 782 -131 799.5 -151 c 128,-1,24
 817 -171 817 -171 846.5 -181.5 c 128,-1,25
 876 -192 876 -192 921 -192 c 0,26,27
 964 -192 964 -192 1015 -176 c 1,28,-1
 1015 -374 l 1,29,30
 976 -383 976 -383 940 -388.5 c 128,-1,31
 904 -394 904 -394 858 -394 c 0,32,33
 564 -394 564 -394 564 -63 c 2,34,-1
 564 -12 l 1,0,1
674 185 m 256,35,36
 738 185 738 185 796 218.5 c 128,-1,37
 854 252 854 252 898 324 c 128,-1,38
 942 396 942 396 968 510 c 128,-1,39
 994 624 994 624 994 785 c 0,40,41
 994 947 994 947 968 1061.5 c 128,-1,42
 942 1176 942 1176 898 1249 c 128,-1,43
 854 1322 854 1322 796 1356 c 128,-1,44
 738 1390 738 1390 674 1390 c 256,45,46
 610 1390 610 1390 552 1356 c 128,-1,47
 494 1322 494 1322 449.5 1249 c 128,-1,48
 405 1176 405 1176 379 1061.5 c 128,-1,49
 353 947 353 947 353 785 c 0,50,51
 353 624 353 624 379 510 c 128,-1,52
 405 396 405 396 449.5 324 c 128,-1,53
 494 252 494 252 552 218.5 c 128,-1,54
 610 185 610 185 674 185 c 256,35,36
EndSplineSet
EndChar

StartChar: A
Encoding: 65 65 39
Width: 1271
Flags: W
LayerCount: 2
Fore
SplineSet
459 1571 m 1,0,-1
 790 1571 l 1,1,-1
 1248 0 l 1,2,-1
 988 0 l 1,3,-1
 884 392 l 1,4,-1
 380 392 l 1,5,-1
 282 0 l 1,6,-1
 23 0 l 1,7,-1
 459 1571 l 1,0,-1
832 585 m 1,8,-1
 640 1309 l 1,9,-1
 611 1309 l 1,10,-1
 429 585 l 1,11,-1
 832 585 l 1,8,-1
EndSplineSet
EndChar

StartChar: V
Encoding: 86 86 40
Width: 1203
Flags: W
LayerCount: 2
Fore
SplineSet
28 1571 m 1,0,-1
 288 1571 l 1,1,-1
 613 285 l 1,2,-1
 648 285 l 1,3,-1
 915 1571 l 1,4,-1
 1174 1571 l 1,5,-1
 803 0 l 1,6,-1
 459 0 l 1,7,-1
 28 1571 l 1,0,-1
EndSplineSet
EndChar

StartChar: ae
Encoding: 230 230 41
Width: 1748
Flags: W
LayerCount: 2
Fore
SplineSet
85 308 m 0,0,1
 85 492 85 492 210.5 588.5 c 128,-1,2
 336 685 336 685 584 685 c 2,3,-1
 732 685 l 1,4,-1
 732 735 l 2,5,6
 732 801 732 801 718.5 846 c 128,-1,7
 705 891 705 891 675 918.5 c 128,-1,8
 645 946 645 946 597.5 958 c 128,-1,9
 550 970 550 970 483 970 c 0,10,11
 411 970 411 970 337 944 c 128,-1,12
 263 918 263 918 178 879 c 1,13,-1
 178 1078 l 1,14,15
 254 1117 254 1117 340.5 1137.5 c 128,-1,16
 427 1158 427 1158 529 1158 c 0,17,18
 772 1158 772 1158 880 1021 c 1,19,20
 948 1090 948 1090 1035.5 1123.5 c 128,-1,21
 1123 1157 1123 1157 1220 1157 c 0,22,23
 1312 1157 1312 1157 1390 1127.5 c 128,-1,24
 1468 1098 1468 1098 1524.5 1039 c 128,-1,25
 1581 980 1581 980 1612.5 891.5 c 128,-1,26
 1644 803 1644 803 1644 686 c 0,27,28
 1644 634 1644 634 1636.5 584 c 128,-1,29
 1629 534 1629 534 1612 488 c 1,30,-1
 972 488 l 1,31,32
 984 385 984 385 1014 322 c 128,-1,33
 1044 259 1044 259 1086.5 224 c 128,-1,34
 1129 189 1129 189 1181.5 177 c 128,-1,35
 1234 165 1234 165 1293 165 c 0,36,37
 1372 165 1372 165 1436 186 c 128,-1,38
 1500 207 1500 207 1563 242 c 1,39,-1
 1563 50 l 1,40,41
 1485 10 1485 10 1406 -6.5 c 128,-1,42
 1327 -23 1327 -23 1249 -23 c 0,43,44
 1114 -23 1114 -23 1011.5 25 c 128,-1,45
 909 73 909 73 843 164 c 1,46,47
 807 121 807 121 760 86.5 c 128,-1,48
 713 52 713 52 658.5 27.5 c 128,-1,49
 604 3 604 3 544.5 -10 c 128,-1,50
 485 -23 485 -23 424 -23 c 0,51,52
 347 -23 347 -23 284 4 c 128,-1,53
 221 31 221 31 177 76.5 c 128,-1,54
 133 122 133 122 109 182 c 128,-1,55
 85 242 85 242 85 308 c 0,0,1
1407 651 m 1,56,57
 1417 723 1417 723 1409.5 782 c 128,-1,58
 1402 841 1402 841 1377 883 c 128,-1,59
 1352 925 1352 925 1310.5 947.5 c 128,-1,60
 1269 970 1269 970 1212 970 c 0,61,62
 1159 970 1159 970 1114.5 949.5 c 128,-1,63
 1070 929 1070 929 1037.5 888.5 c 128,-1,64
 1005 848 1005 848 986 788.5 c 128,-1,65
 967 729 967 729 965 651 c 1,66,-1
 1407 651 l 1,56,57
325 341 m 0,67,68
 325 308 325 308 335 276.5 c 128,-1,69
 345 245 345 245 367 220 c 128,-1,70
 389 195 389 195 422.5 180 c 128,-1,71
 456 165 456 165 504 165 c 0,72,73
 577 165 577 165 648 201 c 128,-1,74
 719 237 719 237 769 310 c 1,75,76
 738 403 738 403 732 522 c 1,77,-1
 592 522 l 2,78,79
 517 522 517 522 466 509 c 128,-1,80
 415 496 415 496 383.5 472 c 128,-1,81
 352 448 352 448 338.5 414.5 c 128,-1,82
 325 381 325 381 325 341 c 0,67,68
EndSplineSet
EndChar

StartChar: oe
Encoding: 339 339 42
Width: 1866
Flags: W
LayerCount: 2
Fore
SplineSet
93 565 m 256,0,1
 93 708 93 708 129 818.5 c 128,-1,2
 165 929 165 929 230 1004 c 128,-1,3
 295 1079 295 1079 385.5 1118 c 128,-1,4
 476 1157 476 1157 586 1157 c 0,5,6
 704 1157 704 1157 798 1108.5 c 128,-1,7
 892 1060 892 1060 955 966 c 1,8,9
 1024 1063 1024 1063 1125 1110 c 128,-1,10
 1226 1157 1226 1157 1338 1157 c 0,11,12
 1431 1157 1431 1157 1508.5 1127.5 c 128,-1,13
 1586 1098 1586 1098 1642.5 1039 c 128,-1,14
 1699 980 1699 980 1730.5 891.5 c 128,-1,15
 1762 803 1762 803 1762 686 c 0,16,17
 1762 634 1762 634 1755 584 c 128,-1,18
 1748 534 1748 534 1731 488 c 1,19,-1
 1065 488 l 1,20,21
 1079 385 1079 385 1113 322 c 128,-1,22
 1147 259 1147 259 1193.5 224 c 128,-1,23
 1240 189 1240 189 1296 177 c 128,-1,24
 1352 165 1352 165 1411 165 c 0,25,26
 1490 165 1490 165 1554 186 c 128,-1,27
 1618 207 1618 207 1681 242 c 1,28,-1
 1681 50 l 1,29,30
 1604 10 1604 10 1525 -6.5 c 128,-1,31
 1446 -23 1446 -23 1368 -23 c 0,32,33
 1232 -23 1232 -23 1128 27 c 128,-1,34
 1024 77 1024 77 956 174 c 1,35,36
 893 77 893 77 798.5 27 c 128,-1,37
 704 -23 704 -23 586 -23 c 0,38,39
 476 -23 476 -23 385.5 15.5 c 128,-1,40
 295 54 295 54 230 128.5 c 128,-1,41
 165 203 165 203 129 312.5 c 128,-1,42
 93 422 93 422 93 565 c 256,0,1
1524 651 m 1,43,44
 1535 723 1535 723 1527.5 782 c 128,-1,45
 1520 841 1520 841 1495 883 c 128,-1,46
 1470 925 1470 925 1428.5 947.5 c 128,-1,47
 1387 970 1387 970 1330 970 c 0,48,49
 1277 970 1277 970 1228.5 949.5 c 128,-1,50
 1180 929 1180 929 1142.5 888.5 c 128,-1,51
 1105 848 1105 848 1082 788.5 c 128,-1,52
 1059 729 1059 729 1056 651 c 1,53,-1
 1524 651 l 1,43,44
586 165 m 0,54,55
 640 165 640 165 687 188.5 c 128,-1,56
 734 212 734 212 769.5 261.5 c 128,-1,57
 805 311 805 311 825 388 c 128,-1,58
 845 465 845 465 845 571 c 256,59,60
 845 677 845 677 825 752.5 c 128,-1,61
 805 828 805 828 769.5 876.5 c 128,-1,62
 734 925 734 925 687 947.5 c 128,-1,63
 640 970 640 970 586 970 c 0,64,65
 529 970 529 970 482 946.5 c 128,-1,66
 435 923 435 923 400.5 873.5 c 128,-1,67
 366 824 366 824 347 747.5 c 128,-1,68
 328 671 328 671 328 565 c 256,69,70
 328 459 328 459 347 383.5 c 128,-1,71
 366 308 366 308 400.5 259.5 c 128,-1,72
 435 211 435 211 482 188 c 128,-1,73
 529 165 529 165 586 165 c 0,54,55
EndSplineSet
EndChar

StartChar: dotlessi
Encoding: 305 305 43
Width: 604
Flags: W
LayerCount: 2
Fore
SplineSet
182 1135 m 1,0,-1
 422 1135 l 1,1,-1
 422 0 l 1,2,-1
 182 0 l 1,3,-1
 182 1135 l 1,0,-1
EndSplineSet
EndChar

StartChar: dotlessj
Encoding: 567 567 44
Width: 606
Flags: W
LayerCount: 2
Fore
SplineSet
182 1135 m 1,0,-1
 425 1135 l 1,1,-1
 425 -187 l 2,2,3
 425 -262 425 -262 402 -323.5 c 128,-1,4
 379 -385 379 -385 335 -428.5 c 128,-1,5
 291 -472 291 -472 226.5 -496 c 128,-1,6
 162 -520 162 -520 79 -520 c 1,7,-1
 79 -342 l 1,8,9
 133 -337 133 -337 157.5 -309 c 128,-1,10
 182 -281 182 -281 182 -224 c 2,11,-1
 182 1135 l 1,0,-1
EndSplineSet
EndChar

StartChar: Y
Encoding: 89 89 45
Width: 1202
Flags: W
LayerCount: 2
Fore
SplineSet
498 636 m 1,0,-1
 22 1571 l 1,1,-1
 282 1571 l 1,2,-1
 605 878 l 1,3,-1
 633 878 l 1,4,-1
 921 1571 l 1,5,-1
 1180 1571 l 1,6,-1
 743 634 l 1,7,-1
 743 0 l 1,8,-1
 498 0 l 1,9,-1
 498 636 l 1,0,-1
EndSplineSet
EndChar

StartChar: oslash
Encoding: 248 248 46
Width: 1190
Flags: W
LayerCount: 2
Fore
SplineSet
301 67 m 1,0,1
 204 139 204 139 149 263.5 c 128,-1,2
 94 388 94 388 94 565 c 0,3,4
 94 708 94 708 131 818.5 c 128,-1,5
 168 929 168 929 234.5 1004 c 128,-1,6
 301 1079 301 1079 393 1118 c 128,-1,7
 485 1157 485 1157 595 1157 c 0,8,9
 642 1157 642 1157 685 1150 c 128,-1,10
 728 1143 728 1143 769 1129 c 1,11,-1
 852 1317 l 1,12,-1
 996 1317 l 1,13,-1
 886 1069 l 1,14,15
 984 998 984 998 1040.5 873 c 128,-1,16
 1097 748 1097 748 1097 571 c 0,17,18
 1097 428 1097 428 1059.5 317 c 128,-1,19
 1022 206 1022 206 955.5 130.5 c 128,-1,20
 889 55 889 55 796.5 16 c 128,-1,21
 704 -23 704 -23 595 -23 c 0,22,23
 499 -23 499 -23 415 6 c 1,24,-1
 337 -171 l 1,25,-1
 196 -171 l 1,26,-1
 301 67 l 1,0,1
690 951 m 1,27,28
 648 970 648 970 595 970 c 0,29,30
 539 970 539 970 492 946.5 c 128,-1,31
 445 923 445 923 411.5 873.5 c 128,-1,32
 378 824 378 824 359.5 747.5 c 128,-1,33
 341 671 341 671 341 565 c 0,34,35
 341 471 341 471 355.5 401.5 c 128,-1,36
 370 332 370 332 396 284 c 1,37,-1
 690 951 l 1,27,28
495 186 m 1,38,39
 540 165 540 165 595 165 c 0,40,41
 652 165 652 165 698.5 188.5 c 128,-1,42
 745 212 745 212 778.5 261.5 c 128,-1,43
 812 311 812 311 830.5 388 c 128,-1,44
 849 465 849 465 849 571 c 0,45,46
 849 667 849 667 834 737 c 128,-1,47
 819 807 819 807 791 856 c 1,48,-1
 495 186 l 1,38,39
EndSplineSet
EndChar

StartChar: thorn
Encoding: 254 254 47
Width: 1191
Flags: W
LayerCount: 2
Fore
SplineSet
141 0 m 1,0,-1
 141 1711 l 1,1,-1
 383 1711 l 1,2,-1
 383 1056 l 1,3,4
 430 1101 430 1101 495 1129 c 128,-1,5
 560 1157 560 1157 651 1157 c 0,6,7
 749 1157 749 1157 832.5 1120.5 c 128,-1,8
 916 1084 916 1084 976.5 1012 c 128,-1,9
 1037 940 1037 940 1071.5 832.5 c 128,-1,10
 1106 725 1106 725 1106 583 c 0,11,12
 1106 426 1106 426 1065.5 312 c 128,-1,13
 1025 198 1025 198 957.5 123.5 c 128,-1,14
 890 49 890 49 800.5 13 c 128,-1,15
 711 -23 711 -23 614 -23 c 0,16,17
 530 -23 530 -23 469.5 -5.5 c 128,-1,18
 409 12 409 12 364 45 c 1,19,-1
 358 0 l 1,20,-1
 380 -520 l 1,21,-1
 140 -520 l 1,22,-1
 140 0 l 1,23,-1
 141 0 l 1,0,-1
383 220 m 1,24,25
 425 190 425 190 472.5 177.5 c 128,-1,26
 520 165 520 165 571 165 c 0,27,28
 632 165 632 165 684 187.5 c 128,-1,29
 736 210 736 210 773.5 258.5 c 128,-1,30
 811 307 811 307 832 384 c 128,-1,31
 853 461 853 461 853 570 c 0,32,33
 853 674 853 674 833.5 749.5 c 128,-1,34
 814 825 814 825 779 874 c 128,-1,35
 744 923 744 923 694.5 946.5 c 128,-1,36
 645 970 645 970 584 970 c 0,37,38
 527 970 527 970 476 951 c 128,-1,39
 425 932 425 932 383 894 c 1,40,-1
 383 220 l 1,24,25
EndSplineSet
EndChar

StartChar: kgreenlandic
Encoding: 312 312 48
Width: 1161
Flags: W
LayerCount: 2
Fore
SplineSet
171 1135 m 1,0,-1
 413 1135 l 1,1,-1
 413 624 l 1,2,-1
 776 1135 l 1,3,-1
 1058 1135 l 1,4,-1
 692 659 l 1,5,-1
 1151 0 l 1,6,-1
 872 0 l 1,7,-1
 547 471 l 1,8,-1
 413 297 l 1,9,-1
 413 0 l 1,10,-1
 171 0 l 1,11,-1
 171 1135 l 1,0,-1
EndSplineSet
EndChar

StartChar: hbar
Encoding: 295 295 49
Width: 1253
Flags: W
LayerCount: 2
Fore
SplineSet
171 1322 m 1,0,-1
 63 1322 l 1,1,-1
 63 1500 l 1,2,-1
 171 1500 l 1,3,-1
 171 1711 l 1,4,-1
 413 1711 l 1,5,-1
 413 1500 l 1,6,-1
 602 1500 l 1,7,-1
 602 1322 l 1,8,-1
 413 1322 l 1,9,-1
 413 1021 l 1,10,11
 463 1083 463 1083 539 1120 c 128,-1,12
 615 1157 615 1157 727 1157 c 0,13,14
 902 1157 902 1157 992.5 1050 c 128,-1,15
 1083 943 1083 943 1083 723 c 2,16,-1
 1083 0 l 1,17,-1
 841 0 l 1,18,-1
 841 715 l 2,19,20
 841 845 841 845 796.5 907.5 c 128,-1,21
 752 970 752 970 661 970 c 0,22,23
 583 970 583 970 520.5 936.5 c 128,-1,24
 458 903 458 903 413 834 c 1,25,-1
 413 0 l 1,26,-1
 171 0 l 1,27,-1
 171 1322 l 1,0,-1
EndSplineSet
EndChar

StartChar: T
Encoding: 84 84 50
Width: 1121
Flags: W
LayerCount: 2
Fore
SplineSet
438 1369 m 1,0,-1
 66 1369 l 1,1,-1
 66 1571 l 1,2,-1
 1054 1571 l 1,3,-1
 1054 1369 l 1,4,-1
 683 1369 l 1,5,-1
 683 0 l 1,6,-1
 438 0 l 1,7,-1
 438 1369 l 1,0,-1
EndSplineSet
EndChar

StartChar: C
Encoding: 67 67 51
Width: 1129
Flags: W
LayerCount: 2
Fore
SplineSet
757 -22 m 0,0,1
 615 -22 615 -22 497 27 c 128,-1,2
 379 76 379 76 294.5 176 c 128,-1,3
 210 276 210 276 163 429 c 128,-1,4
 116 582 116 582 116 790 c 0,5,6
 116 997 116 997 160 1148.5 c 128,-1,7
 204 1300 204 1300 284 1399 c 128,-1,8
 364 1498 364 1498 476 1545.5 c 128,-1,9
 588 1593 588 1593 725 1593 c 0,10,11
 775 1593 775 1593 824 1587.5 c 128,-1,12
 873 1582 873 1582 916.5 1572.5 c 128,-1,13
 960 1563 960 1563 995.5 1549.5 c 128,-1,14
 1031 1536 1031 1536 1054 1520 c 1,15,-1
 1054 1276 l 1,16,17
 991 1333 991 1333 913.5 1359.5 c 128,-1,18
 836 1386 836 1386 752 1386 c 0,19,20
 666 1386 666 1386 594.5 1352.5 c 128,-1,21
 523 1319 523 1319 472 1247 c 128,-1,22
 421 1175 421 1175 393 1062.5 c 128,-1,23
 365 950 365 950 365 792 c 0,24,25
 365 633 365 633 394 518 c 128,-1,26
 423 403 423 403 478 329 c 128,-1,27
 533 255 533 255 611 220 c 128,-1,28
 689 185 689 185 787 185 c 0,29,30
 859 185 859 185 931 205.5 c 128,-1,31
 1003 226 1003 226 1060 276 c 1,32,-1
 1060 52 l 1,33,34
 1011 20 1011 20 934 -1 c 128,-1,35
 857 -22 857 -22 757 -22 c 0,0,1
EndSplineSet
EndChar

StartChar: W
Encoding: 87 87 52
Width: 1906
Flags: W
LayerCount: 2
Fore
SplineSet
41 1571 m 1,0,-1
 312 1571 l 1,1,-1
 523 242 l 1,2,-1
 557 242 l 1,3,-1
 837 1571 l 1,4,-1
 1077 1571 l 1,5,-1
 1357 242 l 1,6,-1
 1390 242 l 1,7,-1
 1599 1571 l 1,8,-1
 1865 1571 l 1,9,-1
 1542 0 l 1,10,-1
 1189 0 l 1,11,-1
 960 1113 l 1,12,-1
 946 1113 l 1,13,-1
 715 0 l 1,14,-1
 361 0 l 1,15,-1
 41 1571 l 1,0,-1
EndSplineSet
EndChar

StartChar: M
Encoding: 77 77 53
Width: 1776
Flags: W
LayerCount: 2
Fore
SplineSet
214 1571 m 1,0,-1
 539 1571 l 1,1,-1
 820 913 l 1,2,-1
 879 750 l 1,3,-1
 898 750 l 1,4,-1
 956 913 l 1,5,-1
 1237 1571 l 1,6,-1
 1562 1571 l 1,7,-1
 1562 0 l 1,8,-1
 1317 0 l 1,9,-1
 1317 865 l 1,10,-1
 1343 1265 l 1,11,-1
 1332 1265 l 1,12,-1
 944 381 l 1,13,-1
 832 381 l 1,14,-1
 433 1265 l 1,15,-1
 422 1265 l 1,16,-1
 459 865 l 1,17,-1
 459 0 l 1,18,-1
 214 0 l 1,19,-1
 214 1571 l 1,0,-1
EndSplineSet
EndChar

StartChar: G
Encoding: 71 71 54
Width: 1334
Flags: W
LayerCount: 2
Fore
SplineSet
759 -22 m 0,0,1
 616 -22 616 -22 497.5 26.5 c 128,-1,2
 379 75 379 75 294.5 175 c 128,-1,3
 210 275 210 275 163 429 c 128,-1,4
 116 583 116 583 116 795 c 0,5,6
 116 999 116 999 160 1149 c 128,-1,7
 204 1299 204 1299 284 1398 c 128,-1,8
 364 1497 364 1497 475.5 1545 c 128,-1,9
 587 1593 587 1593 722 1593 c 0,10,11
 781 1593 781 1593 837.5 1584.5 c 128,-1,12
 894 1576 894 1576 944 1560.5 c 128,-1,13
 994 1545 994 1545 1034 1524.5 c 128,-1,14
 1074 1504 1074 1504 1100 1480 c 1,15,-1
 1100 1237 l 1,16,17
 1027 1312 1027 1312 938 1349 c 128,-1,18
 849 1386 849 1386 755 1386 c 0,19,20
 667 1386 667 1386 595.5 1352.5 c 128,-1,21
 524 1319 524 1319 473 1247 c 128,-1,22
 422 1175 422 1175 394 1062.5 c 128,-1,23
 366 950 366 950 366 793 c 0,24,25
 366 633 366 633 395 518 c 128,-1,26
 424 403 424 403 478.5 329 c 128,-1,27
 533 255 533 255 610.5 220 c 128,-1,28
 688 185 688 185 785 185 c 0,29,30
 823 185 823 185 863 190.5 c 128,-1,31
 903 196 903 196 939 209 c 1,32,-1
 939 649 l 1,33,-1
 677 649 l 1,34,-1
 677 850 l 1,35,-1
 1184 850 l 1,36,-1
 1184 116 l 1,37,38
 1103 48 1103 48 992 13 c 128,-1,39
 881 -22 881 -22 759 -22 c 0,0,1
EndSplineSet
EndChar

StartChar: J
Encoding: 74 74 55
Width: 734
Flags: W
LayerCount: 2
Fore
SplineSet
68 168 m 1,0,1
 176 170 176 170 238 224.5 c 128,-1,2
 300 279 300 279 300 377 c 2,3,-1
 300 1571 l 1,4,-1
 545 1571 l 1,5,-1
 545 402 l 2,6,7
 545 303 545 303 518.5 224 c 128,-1,8
 492 145 492 145 434 90.5 c 128,-1,9
 376 36 376 36 285.5 7 c 128,-1,10
 195 -22 195 -22 68 -22 c 1,11,-1
 68 168 l 1,0,1
EndSplineSet
EndChar

StartChar: B
Encoding: 66 66 56
Width: 1343
Flags: W
LayerCount: 2
Fore
SplineSet
207 1571 m 1,0,1
 261 1573 261 1573 306 1574.5 c 128,-1,2
 351 1576 351 1576 393 1576.5 c 128,-1,3
 435 1577 435 1577 477 1577 c 128,-1,4
 519 1577 519 1577 567 1577 c 0,5,6
 738 1577 738 1577 850 1547.5 c 128,-1,7
 962 1518 962 1518 1027.5 1466.5 c 128,-1,8
 1093 1415 1093 1415 1119 1344 c 128,-1,9
 1145 1273 1145 1273 1145 1189 c 0,10,11
 1145 1063 1145 1063 1095 978.5 c 128,-1,12
 1045 894 1045 894 947 834 c 1,13,14
 1094 785 1094 785 1162.5 689.5 c 128,-1,15
 1231 594 1231 594 1231 445 c 0,16,17
 1231 338 1231 338 1194 254.5 c 128,-1,18
 1157 171 1157 171 1078.5 112.5 c 128,-1,19
 1000 54 1000 54 876.5 23.5 c 128,-1,20
 753 -7 753 -7 580 -7 c 0,21,22
 494 -7 494 -7 400.5 -6 c 128,-1,23
 307 -5 307 -5 207 0 c 1,24,-1
 207 1571 l 1,0,1
453 906 m 1,25,26
 482 904 482 904 508.5 903 c 128,-1,27
 535 902 535 902 559 902 c 0,28,29
 659 902 659 902 725 921.5 c 128,-1,30
 791 941 791 941 830.5 974.5 c 128,-1,31
 870 1008 870 1008 886 1053.5 c 128,-1,32
 902 1099 902 1099 902 1150 c 0,33,34
 902 1202 902 1202 885.5 1244 c 128,-1,35
 869 1286 869 1286 831 1315.5 c 128,-1,36
 793 1345 793 1345 729 1361 c 128,-1,37
 665 1377 665 1377 571 1377 c 0,38,39
 545 1377 545 1377 515 1376 c 128,-1,40
 485 1375 485 1375 453 1373 c 1,41,-1
 453 906 l 1,25,26
454 197 m 1,42,43
 488 195 488 195 519 193.5 c 128,-1,44
 550 192 550 192 579 192 c 0,45,46
 699 192 699 192 778 211.5 c 128,-1,47
 857 231 857 231 903.5 266.5 c 128,-1,48
 950 302 950 302 969 350.5 c 128,-1,49
 988 399 988 399 988 456 c 0,50,51
 988 589 988 589 894 660 c 128,-1,52
 800 731 800 731 603 731 c 0,53,54
 568 731 568 731 531 728.5 c 128,-1,55
 494 726 494 726 454 722 c 1,56,-1
 453 723 l 1,57,-1
 453 196 l 1,58,-1
 454 197 l 1,42,43
EndSplineSet
EndChar

StartChar: R
Encoding: 82 82 57
Width: 1281
Flags: W
LayerCount: 2
Fore
SplineSet
207 1571 m 1,0,1
 263 1573 263 1573 309 1574.5 c 128,-1,2
 355 1576 355 1576 398.5 1576.5 c 128,-1,3
 442 1577 442 1577 485 1577 c 128,-1,4
 528 1577 528 1577 578 1577 c 0,5,6
 744 1577 744 1577 859.5 1541 c 128,-1,7
 975 1505 975 1505 1047 1441.5 c 128,-1,8
 1119 1378 1119 1378 1151.5 1291 c 128,-1,9
 1184 1204 1184 1204 1184 1101 c 0,10,11
 1184 943 1184 943 1108.5 825.5 c 128,-1,12
 1033 708 1033 708 874 650 c 1,13,-1
 1214 1 l 1,14,-1
 944 1 l 1,15,-1
 635 604 l 1,16,17
 617 603 617 603 598 602.5 c 128,-1,18
 579 602 579 602 559 602 c 0,19,20
 507 602 507 602 453 605 c 1,21,-1
 453 0 l 1,22,-1
 207 0 l 1,23,-1
 207 1571 l 1,0,1
453 815 m 1,24,25
 491 810 491 810 526 807.5 c 128,-1,26
 561 805 561 805 593 805 c 0,27,28
 691 805 691 805 758 827 c 128,-1,29
 825 849 825 849 866 887.5 c 128,-1,30
 907 926 907 926 925 978 c 128,-1,31
 943 1030 943 1030 943 1089 c 0,32,33
 943 1152 943 1152 923 1204.5 c 128,-1,34
 903 1257 903 1257 858 1295 c 128,-1,35
 813 1333 813 1333 741.5 1354.5 c 128,-1,36
 670 1376 670 1376 567 1377 c 0,37,38
 540 1377 540 1377 512 1376 c 128,-1,39
 484 1375 484 1375 453 1373 c 1,40,-1
 453 815 l 1,24,25
EndSplineSet
EndChar

StartChar: P
Encoding: 80 80 58
Width: 1237
Flags: W
LayerCount: 2
Fore
SplineSet
207 1571 m 1,0,1
 263 1573 263 1573 309 1574.5 c 128,-1,2
 355 1576 355 1576 398.5 1576.5 c 128,-1,3
 442 1577 442 1577 485 1577 c 128,-1,4
 528 1577 528 1577 578 1577 c 0,5,6
 744 1577 744 1577 859.5 1541.5 c 128,-1,7
 975 1506 975 1506 1047 1441.5 c 128,-1,8
 1119 1377 1119 1377 1151.5 1287.5 c 128,-1,9
 1184 1198 1184 1198 1184 1090 c 0,10,11
 1184 979 1184 979 1150 885 c 128,-1,12
 1116 791 1116 791 1042.5 722.5 c 128,-1,13
 969 654 969 654 853 615 c 128,-1,14
 737 576 737 576 572 576 c 0,15,16
 544 576 544 576 514.5 577 c 128,-1,17
 485 578 485 578 453 580 c 1,18,-1
 453 0 l 1,19,-1
 207 0 l 1,20,-1
 207 1571 l 1,0,1
453 792 m 1,21,22
 491 787 491 787 525 784.5 c 128,-1,23
 559 782 559 782 591 782 c 0,24,25
 690 782 690 782 756 806 c 128,-1,26
 822 830 822 830 862 870.5 c 128,-1,27
 902 911 902 911 919 965.5 c 128,-1,28
 936 1020 936 1020 936 1082 c 0,29,30
 936 1148 936 1148 916.5 1202.5 c 128,-1,31
 897 1257 897 1257 852.5 1296 c 128,-1,32
 808 1335 808 1335 735 1356 c 128,-1,33
 662 1377 662 1377 556 1377 c 0,34,35
 532 1377 532 1377 506 1376 c 128,-1,36
 480 1375 480 1375 453 1373 c 1,37,-1
 453 792 l 1,21,22
EndSplineSet
EndChar

StartChar: X
Encoding: 88 88 59
Width: 1244
Flags: W
LayerCount: 2
Fore
SplineSet
474 820 m 1,0,-1
 39 1571 l 1,1,-1
 312 1571 l 1,2,-1
 623 1027 l 1,3,-1
 890 1571 l 1,4,-1
 1151 1571 l 1,5,-1
 745 819 l 1,6,-1
 1219 1 l 1,7,-1
 945 1 l 1,8,-1
 599 610 l 1,9,-1
 284 1 l 1,10,-1
 25 1 l 1,11,-1
 474 820 l 1,0,-1
EndSplineSet
EndChar

StartChar: Z
Encoding: 90 90 60
Width: 1166
Flags: W
LayerCount: 2
Fore
SplineSet
744 1369 m 1,0,-1
 163 1369 l 1,1,-1
 163 1571 l 1,2,-1
 1098 1571 l 1,3,-1
 447 202 l 1,4,-1
 1074 202 l 1,5,-1
 1074 0 l 1,6,-1
 87 0 l 1,7,-1
 744 1369 l 1,0,-1
EndSplineSet
EndChar

StartChar: U
Encoding: 85 85 61
Width: 1447
Flags: W
LayerCount: 2
Fore
SplineSet
206 1571 m 1,0,-1
 454 1571 l 1,1,-1
 454 503 l 2,2,3
 454 420 454 420 472.5 360 c 128,-1,4
 491 300 491 300 525.5 261 c 128,-1,5
 560 222 560 222 610 203.5 c 128,-1,6
 660 185 660 185 723 185 c 256,7,8
 786 185 786 185 836 203.5 c 128,-1,9
 886 222 886 222 921 261 c 128,-1,10
 956 300 956 300 974.5 360 c 128,-1,11
 993 420 993 420 993 503 c 2,12,-1
 993 1571 l 1,13,-1
 1240 1571 l 1,14,-1
 1240 528 l 2,15,16
 1240 397 1240 397 1202.5 295 c 128,-1,17
 1165 193 1165 193 1097 122.5 c 128,-1,18
 1029 52 1029 52 933.5 15 c 128,-1,19
 838 -22 838 -22 723 -22 c 0,20,21
 607 -22 607 -22 512 15 c 128,-1,22
 417 52 417 52 349 122.5 c 128,-1,23
 281 193 281 193 243.5 295 c 128,-1,24
 206 397 206 397 206 528 c 2,25,-1
 206 1571 l 1,0,-1
EndSplineSet
EndChar

StartChar: germandbls
Encoding: 223 223 62
Width: 1288
Flags: W
LayerCount: 2
Fore
SplineSet
202 958 m 1,0,-1
 81 958 l 1,1,-1
 81 1135 l 1,2,-1
 202 1135 l 1,3,-1
 202 1232 l 2,4,5
 202 1342 202 1342 231 1430.5 c 128,-1,6
 260 1519 260 1519 314.5 1581.5 c 128,-1,7
 369 1644 369 1644 446.5 1677.5 c 128,-1,8
 524 1711 524 1711 621 1711 c 0,9,10
 723 1711 723 1711 801 1684 c 128,-1,11
 879 1657 879 1657 932 1609 c 128,-1,12
 985 1561 985 1561 1012 1495 c 128,-1,13
 1039 1429 1039 1429 1039 1351 c 0,14,15
 1039 1298 1039 1298 1025.5 1250.5 c 128,-1,16
 1012 1203 1012 1203 992.5 1161 c 128,-1,17
 973 1119 973 1119 949.5 1080.5 c 128,-1,18
 926 1042 926 1042 906.5 1006.5 c 128,-1,19
 887 971 887 971 873.5 937.5 c 128,-1,20
 860 904 860 904 860 872 c 0,21,22
 860 824 860 824 888 787 c 128,-1,23
 916 750 916 750 958.5 715.5 c 128,-1,24
 1001 681 1001 681 1050 644.5 c 128,-1,25
 1099 608 1099 608 1141.5 562 c 128,-1,26
 1184 516 1184 516 1212 456.5 c 128,-1,27
 1240 397 1240 397 1240 316 c 0,28,29
 1240 237 1240 237 1210.5 174 c 128,-1,30
 1181 111 1181 111 1127 67.5 c 128,-1,31
 1073 24 1073 24 996 0.5 c 128,-1,32
 919 -23 919 -23 824 -23 c 0,33,34
 748 -23 748 -23 686 -7 c 128,-1,35
 624 9 624 9 565 41 c 1,36,-1
 567 251 l 1,37,38
 630 204 630 204 694 184.5 c 128,-1,39
 758 165 758 165 819 165 c 0,40,41
 912 165 912 165 953 202.5 c 128,-1,42
 994 240 994 240 994 299 c 0,43,44
 994 338 994 338 977.5 369.5 c 128,-1,45
 961 401 961 401 934 428.5 c 128,-1,46
 907 456 907 456 872.5 481 c 128,-1,47
 838 506 838 506 802.5 532.5 c 128,-1,48
 767 559 767 559 732.5 588 c 128,-1,49
 698 617 698 617 671 653 c 128,-1,50
 644 689 644 689 627.5 733.5 c 128,-1,51
 611 778 611 778 611 834 c 0,52,53
 611 886 611 886 624.5 932.5 c 128,-1,54
 638 979 638 979 658 1022 c 128,-1,55
 678 1065 678 1065 701.5 1105.5 c 128,-1,56
 725 1146 725 1146 745 1186.5 c 128,-1,57
 765 1227 765 1227 778.5 1268 c 128,-1,58
 792 1309 792 1309 792 1353 c 0,59,60
 792 1398 792 1398 777.5 1430 c 128,-1,61
 763 1462 763 1462 738.5 1483 c 128,-1,62
 714 1504 714 1504 682.5 1514 c 128,-1,63
 651 1524 651 1524 617 1524 c 0,64,65
 581 1524 581 1524 549 1512.5 c 128,-1,66
 517 1501 517 1501 493.5 1475.5 c 128,-1,67
 470 1450 470 1450 456.5 1410.5 c 128,-1,68
 443 1371 443 1371 443 1314 c 2,69,-1
 443 0 l 1,70,-1
 202 0 l 1,71,-1
 202 958 l 1,0,-1
EndSplineSet
EndChar

StartChar: one
Encoding: 49 49 63
Width: 896
Flags: W
LayerCount: 2
Fore
SplineSet
394 1294 m 1,0,-1
 122 1170 l 1,1,-1
 122 1404 l 1,2,-1
 455 1571 l 1,3,-1
 634 1571 l 1,4,-1
 634 0 l 1,5,-1
 394 0 l 1,6,-1
 394 1294 l 1,0,-1
EndSplineSet
EndChar

StartChar: two
Encoding: 50 50 64
Width: 1162
Flags: W
LayerCount: 2
Fore
SplineSet
119 149 m 1,0,1
 257 304 257 304 357.5 424 c 128,-1,2
 458 544 458 544 529 636 c 128,-1,3
 600 728 600 728 643.5 796.5 c 128,-1,4
 687 865 687 865 712 918 c 128,-1,5
 737 971 737 971 745.5 1012.5 c 128,-1,6
 754 1054 754 1054 754 1093 c 0,7,8
 754 1160 754 1160 734 1212 c 128,-1,9
 714 1264 714 1264 679 1299 c 128,-1,10
 644 1334 644 1334 595.5 1352.5 c 128,-1,11
 547 1371 547 1371 490 1371 c 0,12,13
 452 1371 452 1371 408.5 1361 c 128,-1,14
 365 1351 365 1351 320 1330 c 128,-1,15
 275 1309 275 1309 231.5 1275.5 c 128,-1,16
 188 1242 188 1242 150 1194 c 1,17,-1
 150 1465 l 1,18,19
 233 1531 233 1531 323 1562 c 128,-1,20
 413 1593 413 1593 516 1593 c 0,21,22
 628 1593 628 1593 717.5 1559.5 c 128,-1,23
 807 1526 807 1526 870 1465.5 c 128,-1,24
 933 1405 933 1405 966.5 1319.5 c 128,-1,25
 1000 1234 1000 1234 1000 1131 c 0,26,27
 1000 1052 1000 1052 976 965.5 c 128,-1,28
 952 879 952 879 890.5 772 c 128,-1,29
 829 665 829 665 722 531.5 c 128,-1,30
 615 398 615 398 449 225 c 1,31,-1
 1019 225 l 1,32,-1
 1019 0 l 1,33,-1
 119 0 l 1,34,-1
 119 149 l 1,0,1
EndSplineSet
EndChar

StartChar: Ldot
Encoding: 319 319 65
Width: 994
Flags: W
LayerCount: 2
Fore
SplineSet
699 862 m 256,0,1
 699 930 699 930 742 971.5 c 128,-1,2
 785 1013 785 1013 857 1013 c 0,3,4
 931 1013 931 1013 974.5 971.5 c 128,-1,5
 1018 930 1018 930 1018 862 c 256,6,7
 1018 794 1018 794 974.5 752 c 128,-1,8
 931 710 931 710 857 710 c 0,9,10
 785 710 785 710 742 752 c 128,-1,11
 699 794 699 794 699 862 c 256,0,1
214 1571 m 1,12,-1
 459 1571 l 1,13,-1
 459 202 l 1,14,-1
 940 202 l 1,15,-1
 940 0 l 1,16,-1
 214 0 l 1,17,-1
 214 1571 l 1,12,-1
EndSplineSet
EndChar

StartChar: three
Encoding: 51 51 66
Width: 1188
Flags: W
LayerCount: 2
Fore
SplineSet
122 328 m 1,0,1
 177 286 177 286 230.5 258.5 c 128,-1,2
 284 231 284 231 334.5 214.5 c 128,-1,3
 385 198 385 198 431 191.5 c 128,-1,4
 477 185 477 185 518 185 c 0,5,6
 588 185 588 185 645.5 202.5 c 128,-1,7
 703 220 703 220 743.5 253 c 128,-1,8
 784 286 784 286 806 332.5 c 128,-1,9
 828 379 828 379 828 438 c 0,10,11
 828 503 828 503 799 555.5 c 128,-1,12
 770 608 770 608 712.5 643.5 c 128,-1,13
 655 679 655 679 569 695.5 c 128,-1,14
 483 712 483 712 369 705 c 1,15,-1
 369 882 l 1,16,17
 467 911 467 911 536.5 945.5 c 128,-1,18
 606 980 606 980 650.5 1019.5 c 128,-1,19
 695 1059 695 1059 715.5 1103.5 c 128,-1,20
 736 1148 736 1148 736 1197 c 0,21,22
 736 1242 736 1242 720 1278 c 128,-1,23
 704 1314 704 1314 675 1338.5 c 128,-1,24
 646 1363 646 1363 604.5 1376 c 128,-1,25
 563 1389 563 1389 512 1389 c 0,26,27
 473 1389 473 1389 429 1381 c 128,-1,28
 385 1373 385 1373 340.5 1356.5 c 128,-1,29
 296 1340 296 1340 252 1315 c 128,-1,30
 208 1290 208 1290 168 1256 c 1,31,-1
 168 1500 l 1,32,33
 195 1520 195 1520 235.5 1537 c 128,-1,34
 276 1554 276 1554 324.5 1567 c 128,-1,35
 373 1580 373 1580 427 1587 c 128,-1,36
 481 1594 481 1594 535 1594 c 0,37,38
 646 1594 646 1594 730 1563.5 c 128,-1,39
 814 1533 814 1533 870.5 1481.5 c 128,-1,40
 927 1430 927 1430 955 1362.5 c 128,-1,41
 983 1295 983 1295 983 1221 c 0,42,43
 983 1173 983 1173 970 1125 c 128,-1,44
 957 1077 957 1077 925 1031 c 128,-1,45
 893 985 893 985 839.5 941.5 c 128,-1,46
 786 898 786 898 705 860 c 1,47,48
 807 826 807 826 877.5 782.5 c 128,-1,49
 948 739 948 739 991.5 686.5 c 128,-1,50
 1035 634 1035 634 1054.5 572.5 c 128,-1,51
 1074 511 1074 511 1074 441 c 0,52,53
 1074 325 1074 325 1028.5 238 c 128,-1,54
 983 151 983 151 905.5 93 c 128,-1,55
 828 35 828 35 726.5 6.5 c 128,-1,56
 625 -22 625 -22 514 -22 c 0,57,58
 449 -22 449 -22 389 -13 c 128,-1,59
 329 -4 329 -4 277.5 12 c 128,-1,60
 226 28 226 28 186 49.5 c 128,-1,61
 146 71 146 71 122 95 c 1,62,-1
 122 328 l 1,0,1
EndSplineSet
EndChar

StartChar: four
Encoding: 52 52 67
Width: 1345
Flags: W
LayerCount: 2
Fore
SplineSet
83 556 m 1,0,-1
 82 557 l 1,1,-1
 83 558 l 1,2,-1
 83 559 l 1,3,-1
 793 1571 l 1,4,-1
 1007 1571 l 1,5,-1
 1007 559 l 1,6,-1
 1261 559 l 1,7,-1
 1261 348 l 1,8,-1
 1007 348 l 1,9,-1
 1007 0 l 1,10,-1
 767 0 l 1,11,-1
 767 348 l 1,12,-1
 83 348 l 1,13,-1
 83 556 l 1,0,-1
767 559 m 1,14,-1
 767 775 l 1,15,-1
 799 1263 l 1,16,-1
 341 559 l 1,17,-1
 767 559 l 1,14,-1
EndSplineSet
EndChar

StartChar: six
Encoding: 54 54 68
Width: 1294
Flags: W
LayerCount: 2
Fore
SplineSet
675 -23 m 0,0,1
 553 -23 553 -23 451.5 23 c 128,-1,2
 350 69 350 69 276 163.5 c 128,-1,3
 202 258 202 258 161 403.5 c 128,-1,4
 120 549 120 549 120 748 c 0,5,6
 120 969 120 969 170 1129 c 128,-1,7
 220 1289 220 1289 305.5 1392 c 128,-1,8
 391 1495 391 1495 505 1544 c 128,-1,9
 619 1593 619 1593 747 1593 c 0,10,11
 784 1593 784 1593 826 1589 c 128,-1,12
 868 1585 868 1585 909 1577 c 128,-1,13
 950 1569 950 1569 986.5 1557 c 128,-1,14
 1023 1545 1023 1545 1049 1529 c 1,15,-1
 1049 1296 l 1,16,17
 1014 1322 1014 1322 976 1339.5 c 128,-1,18
 938 1357 938 1357 901 1367.5 c 128,-1,19
 864 1378 864 1378 829 1382 c 128,-1,20
 794 1386 794 1386 766 1386 c 0,21,22
 672 1386 672 1386 597.5 1346 c 128,-1,23
 523 1306 523 1306 471.5 1232.5 c 128,-1,24
 420 1159 420 1159 393 1055.5 c 128,-1,25
 366 952 366 952 366 824 c 1,26,-1
 377 824 l 1,27,28
 439 919 439 919 527 971.5 c 128,-1,29
 615 1024 615 1024 733 1024 c 0,30,31
 827 1024 827 1024 909.5 989 c 128,-1,32
 992 954 992 954 1053.5 888.5 c 128,-1,33
 1115 823 1115 823 1150.5 729 c 128,-1,34
 1186 635 1186 635 1186 516 c 0,35,36
 1186 399 1186 399 1150.5 300 c 128,-1,37
 1115 201 1115 201 1049 129.5 c 128,-1,38
 983 58 983 58 888 17.5 c 128,-1,39
 793 -23 793 -23 675 -23 c 0,0,1
681 184 m 256,40,41
 738 184 738 184 785 204 c 128,-1,42
 832 224 832 224 866.5 263.5 c 128,-1,43
 901 303 901 303 920 361.5 c 128,-1,44
 939 420 939 420 939 496 c 0,45,46
 939 571 939 571 920 631 c 128,-1,47
 901 691 901 691 866.5 732 c 128,-1,48
 832 773 832 773 783 795 c 128,-1,49
 734 817 734 817 674 817 c 0,50,51
 589 817 589 817 512 774 c 128,-1,52
 435 731 435 731 375 644 c 1,53,54
 375 512 375 512 401.5 423.5 c 128,-1,55
 428 335 428 335 471.5 281.5 c 128,-1,56
 515 228 515 228 569.5 206 c 128,-1,57
 624 184 624 184 681 184 c 256,40,41
EndSplineSet
EndChar

StartChar: five
Encoding: 53 53 69
Width: 1239
Flags: W
LayerCount: 2
Fore
SplineSet
155 303 m 1,0,1
 210 266 210 266 262.5 243 c 128,-1,2
 315 220 315 220 363 207 c 128,-1,3
 411 194 411 194 453.5 189 c 128,-1,4
 496 184 496 184 532 184 c 0,5,6
 621 184 621 184 686.5 206.5 c 128,-1,7
 752 229 752 229 794.5 268.5 c 128,-1,8
 837 308 837 308 858 362.5 c 128,-1,9
 879 417 879 417 879 481 c 0,10,11
 879 550 879 550 857 605.5 c 128,-1,12
 835 661 835 661 792 699.5 c 128,-1,13
 749 738 749 738 686.5 758.5 c 128,-1,14
 624 779 624 779 543 779 c 0,15,16
 459 779 459 779 371 752.5 c 128,-1,17
 283 726 283 726 192 665 c 1,18,-1
 192 1571 l 1,19,-1
 1010 1571 l 1,20,-1
 1010 1369 l 1,21,-1
 431 1369 l 1,22,-1
 431 931 l 1,23,-1
 453 931 l 1,24,25
 498 955 498 955 546 970 c 128,-1,26
 594 985 594 985 659 985 c 0,27,28
 755 985 755 985 839.5 951 c 128,-1,29
 924 917 924 917 987.5 853 c 128,-1,30
 1051 789 1051 789 1088 698.5 c 128,-1,31
 1125 608 1125 608 1125 495 c 0,32,33
 1125 383 1125 383 1085 288 c 128,-1,34
 1045 193 1045 193 969.5 124 c 128,-1,35
 894 55 894 55 785.5 16 c 128,-1,36
 677 -23 677 -23 541 -23 c 0,37,38
 500 -23 500 -23 449.5 -18 c 128,-1,39
 399 -13 399 -13 346.5 -3 c 128,-1,40
 294 7 294 7 244 22.5 c 128,-1,41
 194 38 194 38 155 59 c 1,42,-1
 155 303 l 1,0,1
EndSplineSet
EndChar

StartChar: seven
Encoding: 55 55 70
Width: 1129
Flags: W
LayerCount: 2
Fore
SplineSet
746 1358 m 1,0,-1
 62 1358 l 1,1,-1
 62 1571 l 1,2,-1
 1068 1571 l 1,3,-1
 508 0 l 1,4,-1
 235 0 l 1,5,-1
 746 1358 l 1,0,-1
EndSplineSet
EndChar

StartChar: nine
Encoding: 57 57 71
Width: 1294
Flags: W
LayerCount: 2
Fore
SplineSet
256 274 m 1,0,1
 291 248 291 248 329 230.5 c 128,-1,2
 367 213 367 213 404 202.5 c 128,-1,3
 441 192 441 192 475.5 188 c 128,-1,4
 510 184 510 184 539 184 c 0,5,6
 633 184 633 184 707.5 224 c 128,-1,7
 782 264 782 264 833.5 337.5 c 128,-1,8
 885 411 885 411 912 514.5 c 128,-1,9
 939 618 939 618 939 746 c 1,10,-1
 928 746 l 1,11,12
 866 651 866 651 778.5 598.5 c 128,-1,13
 691 546 691 546 572 546 c 0,14,15
 478 546 478 546 395.5 580.5 c 128,-1,16
 313 615 313 615 252 680.5 c 128,-1,17
 191 746 191 746 155.5 840 c 128,-1,18
 120 934 120 934 120 1053 c 0,19,20
 120 1170 120 1170 155.5 1269 c 128,-1,21
 191 1368 191 1368 257 1440 c 128,-1,22
 323 1512 323 1512 417.5 1552.5 c 128,-1,23
 512 1593 512 1593 630 1593 c 0,24,25
 751 1593 751 1593 853.5 1547 c 128,-1,26
 956 1501 956 1501 1029.5 1406.5 c 128,-1,27
 1103 1312 1103 1312 1144.5 1166.5 c 128,-1,28
 1186 1021 1186 1021 1186 822 c 0,29,30
 1186 674 1186 674 1163 554 c 128,-1,31
 1140 434 1140 434 1099 340 c 128,-1,32
 1058 246 1058 246 1000 177.5 c 128,-1,33
 942 109 942 109 872.5 64.5 c 128,-1,34
 803 20 803 20 723.5 -1.5 c 128,-1,35
 644 -23 644 -23 559 -23 c 0,36,37
 521 -23 521 -23 479 -19 c 128,-1,38
 437 -15 437 -15 396 -7 c 128,-1,39
 355 1 355 1 318.5 13 c 128,-1,40
 282 25 282 25 256 41 c 1,41,-1
 256 274 l 1,0,1
632 752 m 0,42,43
 716 752 716 752 793.5 795.5 c 128,-1,44
 871 839 871 839 930 926 c 1,45,46
 930 1058 930 1058 903.5 1146.5 c 128,-1,47
 877 1235 877 1235 834 1288.5 c 128,-1,48
 791 1342 791 1342 736 1364 c 128,-1,49
 681 1386 681 1386 625 1386 c 0,50,51
 568 1386 568 1386 520.5 1366 c 128,-1,52
 473 1346 473 1346 438.5 1306.5 c 128,-1,53
 404 1267 404 1267 385 1208.5 c 128,-1,54
 366 1150 366 1150 366 1074 c 0,55,56
 366 999 366 999 385 939 c 128,-1,57
 404 879 404 879 438.5 837.5 c 128,-1,58
 473 796 473 796 522.5 774 c 128,-1,59
 572 752 572 752 632 752 c 0,42,43
EndSplineSet
EndChar

StartChar: eight
Encoding: 56 56 72
Width: 1284
Flags: W
LayerCount: 2
Fore
SplineSet
85 447 m 0,0,1
 85 509 85 509 101 569.5 c 128,-1,2
 117 630 117 630 152.5 684.5 c 128,-1,3
 188 739 188 739 244 785 c 128,-1,4
 300 831 300 831 381 864 c 1,5,-1
 381 882 l 1,6,7
 343 901 343 901 306 930 c 128,-1,8
 269 959 269 959 240.5 1000.5 c 128,-1,9
 212 1042 212 1042 194.5 1099 c 128,-1,10
 177 1156 177 1156 177 1233 c 0,11,12
 177 1306 177 1306 204.5 1371.5 c 128,-1,13
 232 1437 232 1437 287 1486 c 128,-1,14
 342 1535 342 1535 423.5 1564 c 128,-1,15
 505 1593 505 1593 612 1593 c 256,16,17
 719 1593 719 1593 800.5 1564 c 128,-1,18
 882 1535 882 1535 937 1486 c 128,-1,19
 992 1437 992 1437 1020 1371.5 c 128,-1,20
 1048 1306 1048 1306 1048 1233 c 0,21,22
 1048 1156 1048 1156 1030.5 1099 c 128,-1,23
 1013 1042 1013 1042 984 1000.5 c 128,-1,24
 955 959 955 959 918.5 930 c 128,-1,25
 882 901 882 901 844 882 c 1,26,-1
 844 864 l 1,27,28
 924 831 924 831 980 785 c 128,-1,29
 1036 739 1036 739 1071.5 684.5 c 128,-1,30
 1107 630 1107 630 1123 569.5 c 128,-1,31
 1139 509 1139 509 1139 447 c 0,32,33
 1139 357 1139 357 1107 272 c 128,-1,34
 1075 187 1075 187 1009.5 122 c 128,-1,35
 944 57 944 57 845 17.5 c 128,-1,36
 746 -22 746 -22 612 -22 c 256,37,38
 478 -22 478 -22 378.5 17.5 c 128,-1,39
 279 57 279 57 214 122 c 128,-1,40
 149 187 149 187 117 272 c 128,-1,41
 85 357 85 357 85 447 c 0,0,1
611 969 m 0,42,43
 653 969 653 969 688 983.5 c 128,-1,44
 723 998 723 998 748 1026.5 c 128,-1,45
 773 1055 773 1055 787 1097.5 c 128,-1,46
 801 1140 801 1140 801 1195 c 0,47,48
 801 1293 801 1293 752.5 1346.5 c 128,-1,49
 704 1400 704 1400 612 1400 c 256,50,51
 520 1400 520 1400 471.5 1346.5 c 128,-1,52
 423 1293 423 1293 423 1195 c 0,53,54
 423 1140 423 1140 437 1097.5 c 128,-1,55
 451 1055 451 1055 476 1026.5 c 128,-1,56
 501 998 501 998 535.5 983.5 c 128,-1,57
 570 969 570 969 611 969 c 0,42,43
332 462 m 0,58,59
 332 396 332 396 350.5 343 c 128,-1,60
 369 290 369 290 405 253.5 c 128,-1,61
 441 217 441 217 493 197 c 128,-1,62
 545 177 545 177 612 177 c 256,63,64
 679 177 679 177 731.5 197 c 128,-1,65
 784 217 784 217 820 253.5 c 128,-1,66
 856 290 856 290 874.5 343 c 128,-1,67
 893 396 893 396 893 462 c 0,68,69
 893 529 893 529 873.5 581 c 128,-1,70
 854 633 854 633 817.5 669 c 128,-1,71
 781 705 781 705 729 723.5 c 128,-1,72
 677 742 677 742 612 742 c 256,73,74
 547 742 547 742 495 723.5 c 128,-1,75
 443 705 443 705 407 669 c 128,-1,76
 371 633 371 633 351.5 581 c 128,-1,77
 332 529 332 529 332 462 c 0,58,59
EndSplineSet
EndChar

StartChar: period
Encoding: 46 46 73
Width: 724
Flags: W
LayerCount: 2
Fore
SplineSet
169 162 m 0,0,1
 169 202 169 202 182.5 235.5 c 128,-1,2
 196 269 196 269 221 293 c 128,-1,3
 246 317 246 317 281.5 330 c 128,-1,4
 317 343 317 343 360 343 c 0,5,6
 405 343 405 343 441 330 c 128,-1,7
 477 317 477 317 502.5 293 c 128,-1,8
 528 269 528 269 541.5 235.5 c 128,-1,9
 555 202 555 202 555 162 c 0,10,11
 555 121 555 121 541.5 88 c 128,-1,12
 528 55 528 55 502.5 31 c 128,-1,13
 477 7 477 7 441 -6 c 128,-1,14
 405 -19 405 -19 360 -19 c 0,15,16
 317 -19 317 -19 281.5 -6 c 128,-1,17
 246 7 246 7 221 31 c 128,-1,18
 196 55 196 55 182.5 88 c 128,-1,19
 169 121 169 121 169 162 c 0,0,1
EndSplineSet
EndChar

StartChar: comma
Encoding: 44 44 74
Width: 747
Flags: W
LayerCount: 2
Fore
SplineSet
169 161 m 0,0,1
 169 201 169 201 182.5 234.5 c 128,-1,2
 196 268 196 268 221.5 292 c 128,-1,3
 247 316 247 316 283 329.5 c 128,-1,4
 319 343 319 343 364 343 c 0,5,6
 412 343 412 343 452.5 327 c 128,-1,7
 493 311 493 311 522 276.5 c 128,-1,8
 551 242 551 242 567.5 189 c 128,-1,9
 584 136 584 136 584 62 c 0,10,11
 584 -22 584 -22 561 -99.5 c 128,-1,12
 538 -177 538 -177 490 -237.5 c 128,-1,13
 442 -298 442 -298 368.5 -337 c 128,-1,14
 295 -376 295 -376 194 -384 c 1,15,-1
 194 -219 l 1,16,17
 246 -210 246 -210 280 -192 c 128,-1,18
 314 -174 314 -174 333.5 -148.5 c 128,-1,19
 353 -123 353 -123 360.5 -90.5 c 128,-1,20
 368 -58 368 -58 368 -22 c 1,21,22
 273 -22 273 -22 221 28 c 128,-1,23
 169 78 169 78 169 161 c 0,0,1
EndSplineSet
EndChar

StartChar: exclam
Encoding: 33 33 78
Width: 733
Flags: W
LayerCount: 2
Fore
SplineSet
225 1721 m 1,0,-1
 503 1721 l 1,1,-1
 449 628 l 1,2,-1
 278 628 l 1,3,-1
 225 1721 l 1,0,-1
169 162 m 0,4,5
 169 202 169 202 182.5 235.5 c 128,-1,6
 196 269 196 269 221 293 c 128,-1,7
 246 317 246 317 281.5 330 c 128,-1,8
 317 343 317 343 360 343 c 0,9,10
 405 343 405 343 441 330 c 128,-1,11
 477 317 477 317 502.5 293 c 128,-1,12
 528 269 528 269 541.5 235.5 c 128,-1,13
 555 202 555 202 555 162 c 0,14,15
 555 121 555 121 541.5 88 c 128,-1,16
 528 55 528 55 502.5 31 c 128,-1,17
 477 7 477 7 441 -6 c 128,-1,18
 405 -19 405 -19 360 -19 c 0,19,20
 317 -19 317 -19 281.5 -6 c 128,-1,21
 246 7 246 7 221 31 c 128,-1,22
 196 55 196 55 182.5 88 c 128,-1,23
 169 121 169 121 169 162 c 0,4,5
EndSplineSet
EndChar

StartChar: question
Encoding: 63 63 80
Width: 1007
Flags: W
LayerCount: 2
Fore
SplineSet
328 953 m 1,0,1
 421 988 421 988 486.5 1028 c 128,-1,2
 552 1068 552 1068 593 1111.5 c 128,-1,3
 634 1155 634 1155 652.5 1201.5 c 128,-1,4
 671 1248 671 1248 671 1296 c 0,5,6
 671 1341 671 1341 655.5 1380.5 c 128,-1,7
 640 1420 640 1420 608.5 1449.5 c 128,-1,8
 577 1479 577 1479 529.5 1496 c 128,-1,9
 482 1513 482 1513 418 1513 c 0,10,11
 377 1513 377 1513 336 1506 c 128,-1,12
 295 1499 295 1499 256.5 1486.5 c 128,-1,13
 218 1474 218 1474 183 1457 c 128,-1,14
 148 1440 148 1440 120 1419 c 1,15,-1
 120 1652 l 1,16,17
 197 1688 197 1688 281 1704.5 c 128,-1,18
 365 1721 365 1721 445 1721 c 0,19,20
 563 1721 563 1721 650.5 1688.5 c 128,-1,21
 738 1656 738 1656 796.5 1600 c 128,-1,22
 855 1544 855 1544 884 1470 c 128,-1,23
 913 1396 913 1396 913 1314 c 0,24,25
 913 1164 913 1164 820 1049 c 128,-1,26
 727 934 727 934 544 847 c 1,27,-1
 544 617 l 1,28,-1
 331 617 l 1,29,-1
 328 953 l 1,0,1
255 162 m 0,30,31
 255 202 255 202 269 235.5 c 128,-1,32
 283 269 283 269 308 293 c 128,-1,33
 333 317 333 317 368.5 330 c 128,-1,34
 404 343 404 343 447 343 c 0,35,36
 491 343 491 343 527 330 c 128,-1,37
 563 317 563 317 588.5 293 c 128,-1,38
 614 269 614 269 628 235.5 c 128,-1,39
 642 202 642 202 642 162 c 0,40,41
 642 121 642 121 628 88 c 128,-1,42
 614 55 614 55 588.5 31 c 128,-1,43
 563 7 563 7 527 -6 c 128,-1,44
 491 -19 491 -19 447 -19 c 0,45,46
 404 -19 404 -19 368.5 -6 c 128,-1,47
 333 7 333 7 308 31 c 128,-1,48
 283 55 283 55 269 88 c 128,-1,49
 255 121 255 121 255 162 c 0,30,31
EndSplineSet
EndChar

StartChar: ampersand
Encoding: 38 38 81
Width: 1598
Flags: W
LayerCount: 2
Fore
SplineSet
156 435 m 0,0,1
 156 580 156 580 233 688 c 128,-1,2
 310 796 310 796 457 860 c 1,3,4
 394 901 394 901 352 946.5 c 128,-1,5
 310 992 310 992 284 1038.5 c 128,-1,6
 258 1085 258 1085 247 1131 c 128,-1,7
 236 1177 236 1177 236 1220 c 0,8,9
 236 1295 236 1295 267 1362.5 c 128,-1,10
 298 1430 298 1430 357 1481.5 c 128,-1,11
 416 1533 416 1533 501.5 1563.5 c 128,-1,12
 587 1594 587 1594 697 1594 c 0,13,14
 783 1594 783 1594 849 1576.5 c 128,-1,15
 915 1559 915 1559 960 1534 c 1,16,-1
 960 1290 l 1,17,18
 852 1389 852 1389 717 1389 c 0,19,20
 667 1389 667 1389 626 1376.5 c 128,-1,21
 585 1364 585 1364 556 1339 c 128,-1,22
 527 1314 527 1314 510.5 1276.5 c 128,-1,23
 494 1239 494 1239 494 1190 c 0,24,25
 494 1139 494 1139 514 1089 c 128,-1,26
 534 1039 534 1039 579 999 c 128,-1,27
 624 959 624 959 698 934.5 c 128,-1,28
 772 910 772 910 880 910 c 2,29,-1
 1010 910 l 1,30,-1
 1010 1135 l 1,31,-1
 1255 1135 l 1,32,-1
 1255 910 l 1,33,-1
 1412 910 l 1,34,-1
 1412 727 l 1,35,-1
 1255 727 l 1,36,-1
 1255 329 l 2,37,38
 1255 254 1255 254 1288.5 219.5 c 128,-1,39
 1322 185 1322 185 1379 185 c 0,40,41
 1398 185 1398 185 1420 188 c 128,-1,42
 1442 191 1442 191 1466 199 c 1,43,-1
 1466 -1 l 1,44,45
 1429 -12 1429 -12 1395 -17.5 c 128,-1,46
 1361 -23 1361 -23 1320 -23 c 0,47,48
 1240 -23 1240 -23 1179.5 0 c 128,-1,49
 1119 23 1119 23 1078 71 c 1,50,51
 993 26 993 26 897.5 1.5 c 128,-1,52
 802 -23 802 -23 691 -23 c 0,53,54
 551 -23 551 -23 449.5 15.5 c 128,-1,55
 348 54 348 54 283 118 c 128,-1,56
 218 182 218 182 187 264.5 c 128,-1,57
 156 347 156 347 156 435 c 0,0,1
414 446 m 0,58,59
 414 389 414 389 432.5 341.5 c 128,-1,60
 451 294 451 294 489.5 259 c 128,-1,61
 528 224 528 224 586 204.5 c 128,-1,62
 644 185 644 185 723 185 c 0,63,64
 808 185 808 185 880 206 c 128,-1,65
 952 227 952 227 1011 259 c 1,66,67
 1010 269 1010 269 1010 279.5 c 128,-1,68
 1010 290 1010 290 1010 301 c 2,69,-1
 1010 727 l 1,70,-1
 755 727 l 2,71,72
 674 727 674 727 610.5 707 c 128,-1,73
 547 687 547 687 503.5 650 c 128,-1,74
 460 613 460 613 437 561.5 c 128,-1,75
 414 510 414 510 414 446 c 0,58,59
EndSplineSet
EndChar

StartChar: at
Encoding: 64 64 82
Width: 2289
Flags: W
LayerCount: 2
Fore
SplineSet
191 420 m 0,0,1
 191 572 191 572 228 711.5 c 128,-1,2
 265 851 265 851 334 971 c 128,-1,3
 403 1091 403 1091 501 1188.5 c 128,-1,4
 599 1286 599 1286 720 1355.5 c 128,-1,5
 841 1425 841 1425 983 1462.5 c 128,-1,6
 1125 1500 1125 1500 1282 1500 c 0,7,8
 1460 1500 1460 1500 1610 1450 c 128,-1,9
 1760 1400 1760 1400 1868.5 1301.5 c 128,-1,10
 1977 1203 1977 1203 2038 1057.5 c 128,-1,11
 2099 912 2099 912 2099 722 c 0,12,13
 2099 580 2099 580 2064 451 c 128,-1,14
 2029 322 2029 322 1961.5 223.5 c 128,-1,15
 1894 125 1894 125 1796 66.5 c 128,-1,16
 1698 8 1698 8 1572 8 c 0,17,18
 1507 8 1507 8 1456.5 23.5 c 128,-1,19
 1406 39 1406 39 1370 64.5 c 128,-1,20
 1334 90 1334 90 1313 124 c 128,-1,21
 1292 158 1292 158 1285 195 c 1,22,23
 1210 97 1210 97 1128 52.5 c 128,-1,24
 1046 8 1046 8 967 5 c 0,25,26
 901 3 901 3 845 27 c 128,-1,27
 789 51 789 51 747.5 100.5 c 128,-1,28
 706 150 706 150 683 223.5 c 128,-1,29
 660 297 660 297 660 394 c 0,30,31
 660 531 660 531 705.5 644.5 c 128,-1,32
 751 758 751 758 827.5 839.5 c 128,-1,33
 904 921 904 921 1003.5 966 c 128,-1,34
 1103 1011 1103 1011 1210 1011 c 0,35,36
 1279 1011 1279 1011 1330 994.5 c 128,-1,37
 1381 978 1381 978 1416 955 c 1,38,-1
 1457 1019 l 1,39,-1
 1632 1019 l 1,40,-1
 1539 425 l 2,41,42
 1532 383 1532 383 1529 338.5 c 128,-1,43
 1526 294 1526 294 1533 257 c 128,-1,44
 1540 220 1540 220 1561 196.5 c 128,-1,45
 1582 173 1582 173 1624 173 c 0,46,47
 1685 173 1685 173 1736.5 223 c 128,-1,48
 1788 273 1788 273 1825 353 c 128,-1,49
 1862 433 1862 433 1883 532 c 128,-1,50
 1904 631 1904 631 1904 730 c 0,51,52
 1904 888 1904 888 1852.5 999.5 c 128,-1,53
 1801 1111 1801 1111 1714 1182 c 128,-1,54
 1627 1253 1627 1253 1512.5 1285.5 c 128,-1,55
 1398 1318 1398 1318 1273 1318 c 0,56,57
 1149 1318 1149 1318 1035 1288 c 128,-1,58
 921 1258 921 1258 822.5 1202.5 c 128,-1,59
 724 1147 724 1147 643 1067.5 c 128,-1,60
 562 988 562 988 505 888.5 c 128,-1,61
 448 789 448 789 416.5 671.5 c 128,-1,62
 385 554 385 554 385 422 c 0,63,64
 385 248 385 248 439.5 115 c 128,-1,65
 494 -18 494 -18 591 -107.5 c 128,-1,66
 688 -197 688 -197 822.5 -242.5 c 128,-1,67
 957 -288 957 -288 1118 -288 c 0,68,69
 1203 -288 1203 -288 1281 -276 c 128,-1,70
 1359 -264 1359 -264 1427.5 -243.5 c 128,-1,71
 1496 -223 1496 -223 1553.5 -195 c 128,-1,72
 1611 -167 1611 -167 1655 -135 c 1,73,-1
 1655 -320 l 1,74,75
 1611 -352 1611 -352 1549.5 -377.5 c 128,-1,76
 1488 -403 1488 -403 1415 -421 c 128,-1,77
 1342 -439 1342 -439 1261 -448.5 c 128,-1,78
 1180 -458 1180 -458 1098 -458 c 0,79,80
 880 -458 880 -458 711.5 -393 c 128,-1,81
 543 -328 543 -328 427 -211.5 c 128,-1,82
 311 -95 311 -95 251 66.5 c 128,-1,83
 191 228 191 228 191 420 c 0,0,1
910 407 m 0,84,85
 910 297 910 297 944.5 247.5 c 128,-1,86
 979 198 979 198 1047 198 c 0,87,88
 1110 198 1110 198 1177 238.5 c 128,-1,89
 1244 279 1244 279 1298 359 c 1,90,-1
 1364 820 l 1,91,92
 1341 831 1341 831 1312 837 c 128,-1,93
 1283 843 1283 843 1250 843 c 0,94,95
 1169 843 1169 843 1105.5 808 c 128,-1,96
 1042 773 1042 773 998.5 713.5 c 128,-1,97
 955 654 955 654 932.5 574.5 c 128,-1,98
 910 495 910 495 910 407 c 0,84,85
EndSplineSet
EndChar

StartChar: sterling
Encoding: 163 163 83
Width: 1292
Flags: W
LayerCount: 2
Fore
SplineSet
156 141 m 1,0,1
 205 204 205 204 238 264 c 128,-1,2
 271 324 271 324 290.5 378.5 c 128,-1,3
 310 433 310 433 318 482.5 c 128,-1,4
 326 532 326 532 326 575 c 0,5,6
 326 599 326 599 324 622 c 128,-1,7
 322 645 322 645 318 668 c 1,8,-1
 146 668 l 1,9,-1
 146 846 l 1,10,-1
 268 846 l 1,11,12
 245 915 245 915 226 986 c 128,-1,13
 207 1057 207 1057 207 1138 c 0,14,15
 207 1243 207 1243 241 1327 c 128,-1,16
 275 1411 275 1411 339.5 1470.5 c 128,-1,17
 404 1530 404 1530 498 1561.5 c 128,-1,18
 592 1593 592 1593 712 1593 c 0,19,20
 800 1593 800 1593 882 1568 c 128,-1,21
 964 1543 964 1543 1045 1476 c 1,22,-1
 1045 1194 l 1,23,24
 968 1293 968 1293 888.5 1332 c 128,-1,25
 809 1371 809 1371 723 1371 c 0,26,27
 661 1371 661 1371 611.5 1354.5 c 128,-1,28
 562 1338 562 1338 527 1307 c 128,-1,29
 492 1276 492 1276 473 1231.5 c 128,-1,30
 454 1187 454 1187 454 1132 c 0,31,32
 454 1070 454 1070 473 998 c 128,-1,33
 492 926 492 926 513 846 c 1,34,-1
 830 846 l 1,35,-1
 830 668 l 1,36,-1
 550 668 l 1,37,38
 552 645 552 645 554 623 c 128,-1,39
 556 601 556 601 556 578 c 0,40,41
 556 537 556 537 548 489.5 c 128,-1,42
 540 442 540 442 523 393 c 128,-1,43
 506 344 506 344 479.5 295 c 128,-1,44
 453 246 453 246 415 202 c 1,45,-1
 807 202 l 2,46,47
 880 202 880 202 933.5 217.5 c 128,-1,48
 987 233 987 233 1024.5 255 c 128,-1,49
 1062 277 1062 277 1085 300.5 c 128,-1,50
 1108 324 1108 324 1119 339 c 1,51,-1
 1119 91 l 1,52,53
 1095 70 1095 70 1069.5 53 c 128,-1,54
 1044 36 1044 36 1008 24.5 c 128,-1,55
 972 13 972 13 921 6.5 c 128,-1,56
 870 0 870 0 796 0 c 2,57,-1
 156 0 l 1,58,-1
 156 141 l 1,0,1
EndSplineSet
EndChar

StartChar: zero
Encoding: 48 48 84
Width: 1341
Flags: W
LayerCount: 2
Fore
SplineSet
659 -22 m 0,0,1
 544 -22 544 -22 445.5 22 c 128,-1,2
 347 66 347 66 274.5 161 c 128,-1,3
 202 256 202 256 161 405.5 c 128,-1,4
 120 555 120 555 120 766 c 0,5,6
 120 978 120 978 162 1133 c 128,-1,7
 204 1288 204 1288 279 1389.5 c 128,-1,8
 354 1491 354 1491 457 1540 c 128,-1,9
 560 1589 560 1589 682 1589 c 0,10,11
 796 1589 796 1589 894.5 1545 c 128,-1,12
 993 1501 993 1501 1065.5 1406 c 128,-1,13
 1138 1311 1138 1311 1179.5 1161.5 c 128,-1,14
 1221 1012 1221 1012 1221 801 c 0,15,16
 1221 589 1221 589 1179 434 c 128,-1,17
 1137 279 1137 279 1062 177.5 c 128,-1,18
 987 76 987 76 884 27 c 128,-1,19
 781 -22 781 -22 659 -22 c 0,0,1
671 188 m 0,20,21
 734 188 734 188 789.5 214.5 c 128,-1,22
 845 241 845 241 886.5 308 c 128,-1,23
 928 375 928 375 951.5 490.5 c 128,-1,24
 975 606 975 606 975 783 c 0,25,26
 975 958 975 958 952 1073.5 c 128,-1,27
 929 1189 929 1189 888 1256.5 c 128,-1,28
 847 1324 847 1324 791 1351.5 c 128,-1,29
 735 1379 735 1379 670 1379 c 0,30,31
 606 1379 606 1379 550.5 1352.5 c 128,-1,32
 495 1326 495 1326 454 1258.5 c 128,-1,33
 413 1191 413 1191 389.5 1075.5 c 128,-1,34
 366 960 366 960 366 783 c 0,35,36
 366 608 366 608 389 493.5 c 128,-1,37
 412 379 412 379 453 311 c 128,-1,38
 494 243 494 243 550 215.5 c 128,-1,39
 606 188 606 188 671 188 c 0,20,21
EndSplineSet
EndChar

StartChar: bullet
Encoding: 8226 8226 86
Width: 853
Flags: W
LayerCount: 2
Fore
SplineSet
424 626 m 0,0,1
 369 626 369 626 324.5 642.5 c 128,-1,2
 280 659 280 659 248.5 689.5 c 128,-1,3
 217 720 217 720 199.5 762.5 c 128,-1,4
 182 805 182 805 182 857 c 256,5,6
 182 909 182 909 199.5 952 c 128,-1,7
 217 995 217 995 248.5 1025.5 c 128,-1,8
 280 1056 280 1056 324.5 1073 c 128,-1,9
 369 1090 369 1090 424 1090 c 0,10,11
 481 1090 481 1090 526.5 1073 c 128,-1,12
 572 1056 572 1056 604 1025.5 c 128,-1,13
 636 995 636 995 653 952 c 128,-1,14
 670 909 670 909 670 857 c 256,15,16
 670 805 670 805 653 762.5 c 128,-1,17
 636 720 636 720 604 689.5 c 128,-1,18
 572 659 572 659 526.5 642.5 c 128,-1,19
 481 626 481 626 424 626 c 0,0,1
EndSplineSet
EndChar

StartChar: bracketleft
Encoding: 91 91 89
Width: 944
Flags: W
LayerCount: 2
Fore
SplineSet
228 1912 m 1,0,-1
 796 1912 l 1,1,-1
 796 1734 l 1,2,-1
 471 1734 l 1,3,-1
 471 -43 l 1,4,-1
 796 -43 l 1,5,-1
 796 -221 l 1,6,-1
 228 -221 l 1,7,-1
 228 1912 l 1,0,-1
EndSplineSet
EndChar

StartChar: braceleft
Encoding: 123 123 90
Width: 1042
Flags: W
LayerCount: 2
Fore
SplineSet
376 546 m 2,0,1
 376 588 376 588 360.5 624.5 c 128,-1,2
 345 661 345 661 318 689 c 128,-1,3
 291 717 291 717 256 735.5 c 128,-1,4
 221 754 221 754 182 760 c 1,5,-1
 182 938 l 1,6,7
 221 944 221 944 256 962 c 128,-1,8
 291 980 291 980 318 1007.5 c 128,-1,9
 345 1035 345 1035 360.5 1070.5 c 128,-1,10
 376 1106 376 1106 376 1148 c 2,11,-1
 376 1562 l 2,12,13
 376 1724 376 1724 450.5 1809.5 c 128,-1,14
 525 1895 525 1895 686 1895 c 2,15,-1
 860 1895 l 1,16,-1
 860 1717 l 1,17,-1
 735 1717 l 2,18,19
 682 1717 682 1717 650.5 1687 c 128,-1,20
 619 1657 619 1657 619 1588 c 2,21,-1
 619 1182 l 2,22,23
 619 1114 619 1114 596.5 1056.5 c 128,-1,24
 574 999 574 999 537.5 956 c 128,-1,25
 501 913 501 913 455.5 888 c 128,-1,26
 410 863 410 863 364 861 c 1,27,-1
 364 832 l 1,28,29
 410 830 410 830 455.5 805 c 128,-1,30
 501 780 501 780 537.5 737.5 c 128,-1,31
 574 695 574 695 596.5 637 c 128,-1,32
 619 579 619 579 619 512 c 2,33,-1
 619 106 l 2,34,35
 619 37 619 37 650.5 7 c 128,-1,36
 682 -23 682 -23 735 -23 c 2,37,-1
 860 -23 l 1,38,-1
 860 -201 l 1,39,-1
 686 -201 l 2,40,41
 525 -201 525 -201 450.5 -115.5 c 128,-1,42
 376 -30 376 -30 376 132 c 2,43,-1
 376 546 l 2,0,1
EndSplineSet
EndChar

StartChar: parenleft
Encoding: 40 40 92
Width: 1131
Flags: W
LayerCount: 2
Fore
SplineSet
243 815 m 256,0,1
 243 962 243 962 269 1090 c 128,-1,2
 295 1218 295 1218 340 1326.5 c 128,-1,3
 385 1435 385 1435 445.5 1523 c 128,-1,4
 506 1611 506 1611 576 1678 c 128,-1,5
 646 1745 646 1745 721 1790 c 128,-1,6
 796 1835 796 1835 871 1858 c 1,7,-1
 871 1644 l 1,8,9
 789 1596 789 1596 720 1519.5 c 128,-1,10
 651 1443 651 1443 600.5 1339 c 128,-1,11
 550 1235 550 1235 522 1104 c 128,-1,12
 494 973 494 973 494 815 c 256,13,14
 494 657 494 657 522 526 c 128,-1,15
 550 395 550 395 600.5 291 c 128,-1,16
 651 187 651 187 720 110.5 c 128,-1,17
 789 34 789 34 871 -14 c 1,18,-1
 871 -228 l 1,19,20
 797 -206 797 -206 721.5 -160.5 c 128,-1,21
 646 -115 646 -115 576 -48 c 128,-1,22
 506 19 506 19 445.5 107 c 128,-1,23
 385 195 385 195 340 303.5 c 128,-1,24
 295 412 295 412 269 540 c 128,-1,25
 243 668 243 668 243 815 c 256,0,1
EndSplineSet
EndChar

StartChar: asterisk
Encoding: 42 42 93
Width: 1318
Flags: W
LayerCount: 2
Fore
SplineSet
592 1211 m 1,0,-1
 277 1005 l 1,1,-1
 185 1165 l 1,2,-1
 508 1327 l 1,3,-1
 182 1492 l 1,4,-1
 275 1652 l 1,5,-1
 592 1443 l 1,6,-1
 570 1822 l 1,7,-1
 755 1822 l 1,8,-1
 733 1449 l 1,9,-1
 1043 1652 l 1,10,-1
 1135 1492 l 1,11,-1
 811 1329 l 1,12,-1
 1134 1165 l 1,13,-1
 1042 1005 l 1,14,-1
 734 1208 l 1,15,-1
 755 838 l 1,16,-1
 570 838 l 1,17,-1
 592 1211 l 1,0,-1
EndSplineSet
EndChar

StartChar: Euro
Encoding: 8364 8364 94
Width: 1123
Flags: W
LayerCount: 2
Fore
SplineSet
14 715 m 1,0,-1
 161 715 l 1,1,2
 160 729 160 729 160 744 c 128,-1,3
 160 759 160 759 160 774 c 0,4,5
 160 826 160 826 163 876 c 1,6,-1
 14 876 l 1,7,-1
 14 1053 l 1,8,-1
 186 1053 l 1,9,10
 214 1189 214 1189 270 1290 c 128,-1,11
 326 1391 326 1391 405.5 1457.5 c 128,-1,12
 485 1524 485 1524 586 1556.5 c 128,-1,13
 687 1589 687 1589 804 1589 c 0,14,15
 858 1589 858 1589 917 1581 c 128,-1,16
 976 1573 976 1573 1037 1550 c 1,17,-1
 1037 1281 l 1,18,19
 987 1326 987 1326 927.5 1347 c 128,-1,20
 868 1368 868 1368 790 1368 c 0,21,22
 727 1368 727 1368 669.5 1352.5 c 128,-1,23
 612 1337 612 1337 564 1300.5 c 128,-1,24
 516 1264 516 1264 479 1203.5 c 128,-1,25
 442 1143 442 1143 420 1053 c 1,26,-1
 925 1053 l 1,27,-1
 881 876 l 1,28,-1
 396 876 l 1,29,30
 395 856 395 856 394.5 835 c 128,-1,31
 394 814 394 814 394 791 c 0,32,33
 394 771 394 771 394.5 752 c 128,-1,34
 395 733 395 733 396 715 c 1,35,-1
 840 715 l 1,36,-1
 796 537 l 1,37,-1
 418 537 l 1,38,39
 437 448 437 448 471.5 384 c 128,-1,40
 506 320 506 320 553.5 279 c 128,-1,41
 601 238 601 238 660 218.5 c 128,-1,42
 719 199 719 199 788 199 c 0,43,44
 818 199 818 199 854 204.5 c 128,-1,45
 890 210 890 210 926.5 220.5 c 128,-1,46
 963 231 963 231 998 247 c 128,-1,47
 1033 263 1033 263 1061 284 c 1,48,-1
 1062 36 l 1,49,50
 1035 25 1035 25 1002 14.5 c 128,-1,51
 969 4 969 4 931.5 -4 c 128,-1,52
 894 -12 894 -12 855 -17 c 128,-1,53
 816 -22 816 -22 777 -22 c 0,54,55
 660 -22 660 -22 561 12 c 128,-1,56
 462 46 462 46 385 115 c 128,-1,57
 308 184 308 184 255 289 c 128,-1,58
 202 394 202 394 178 537 c 1,59,-1
 14 537 l 1,60,-1
 14 715 l 1,0,-1
EndSplineSet
EndChar

StartChar: yen
Encoding: 165 165 95
Width: 1214
Flags: W
LayerCount: 2
Fore
SplineSet
139 479 m 1,0,-1
 507 479 l 1,1,-1
 507 670 l 1,2,-1
 139 670 l 1,3,-1
 139 848 l 1,4,-1
 406 848 l 1,5,-1
 28 1571 l 1,6,-1
 288 1571 l 1,7,-1
 621 848 l 1,8,-1
 635 848 l 1,9,-1
 923 1571 l 1,10,-1
 1182 1571 l 1,11,-1
 847 848 l 1,12,-1
 1117 848 l 1,13,-1
 1117 670 l 1,14,-1
 752 670 l 1,15,-1
 752 479 l 1,16,-1
 1117 479 l 1,17,-1
 1117 301 l 1,18,-1
 752 301 l 1,19,-1
 752 0 l 1,20,-1
 507 0 l 1,21,-1
 507 301 l 1,22,-1
 139 301 l 1,23,-1
 139 479 l 1,0,-1
EndSplineSet
EndChar

StartChar: cent
Encoding: 162 162 96
Width: 1028
Flags: W
LayerCount: 2
Fore
SplineSet
479 -7 m 1,0,1
 391 14 391 14 320.5 61 c 128,-1,2
 250 108 250 108 200.5 180 c 128,-1,3
 151 252 151 252 124 348.5 c 128,-1,4
 97 445 97 445 97 564 c 0,5,6
 97 685 97 685 124.5 782.5 c 128,-1,7
 152 880 152 880 202.5 953 c 128,-1,8
 253 1026 253 1026 325 1073 c 128,-1,9
 397 1120 397 1120 486 1141 c 1,10,-1
 486 1433 l 1,11,-1
 699 1433 l 1,12,-1
 699 1153 l 1,13,14
 756 1146 756 1146 806.5 1130 c 128,-1,15
 857 1114 857 1114 903 1088 c 1,16,-1
 902 854 l 1,17,18
 842 918 842 918 775 944 c 128,-1,19
 708 970 708 970 638 970 c 0,20,21
 491 970 491 970 416.5 872.5 c 128,-1,22
 342 775 342 775 342 575 c 0,23,24
 342 367 342 367 422.5 266 c 128,-1,25
 503 165 503 165 654 165 c 0,26,27
 726 165 726 165 789.5 188.5 c 128,-1,28
 853 212 853 212 911 263 c 1,29,-1
 911 60 l 1,30,31
 856 27 856 27 803.5 8 c 128,-1,32
 751 -11 751 -11 692 -19 c 1,33,-1
 692 -320 l 1,34,-1
 479 -320 l 1,35,-1
 479 -7 l 1,36,-1
 479 -7 l 1,0,1
EndSplineSet
EndChar

StartChar: bar
Encoding: 124 124 97
Width: 658
Flags: W
LayerCount: 2
Fore
SplineSet
228 1912 m 1,0,-1
 430 1912 l 1,1,-1
 430 -426 l 1,2,-1
 228 -426 l 1,3,-1
 228 1912 l 1,0,-1
EndSplineSet
EndChar

StartChar: brokenbar
Encoding: 166 166 98
Width: 657
Flags: W
LayerCount: 2
Fore
SplineSet
228 1911 m 1,0,-1
 429 1911 l 1,1,-1
 429 1074 l 1,2,-1
 228 1074 l 1,3,-1
 228 1911 l 1,0,-1
429 409 m 1,4,-1
 429 -427 l 1,5,-1
 228 -427 l 1,6,-1
 228 409 l 1,7,-1
 429 409 l 1,4,-1
EndSplineSet
EndChar

StartChar: degree
Encoding: 176 176 99
Width: 1069
Flags: W
LayerCount: 2
Fore
SplineSet
535 960 m 256,0,1
 458 960 458 960 393 986.5 c 128,-1,2
 328 1013 328 1013 281 1061 c 128,-1,3
 234 1109 234 1109 208 1176.5 c 128,-1,4
 182 1244 182 1244 182 1326 c 256,5,6
 182 1408 182 1408 208 1475.5 c 128,-1,7
 234 1543 234 1543 281 1591 c 128,-1,8
 328 1639 328 1639 393 1665.5 c 128,-1,9
 458 1692 458 1692 535 1692 c 256,10,11
 612 1692 612 1692 676.5 1665.5 c 128,-1,12
 741 1639 741 1639 788 1591 c 128,-1,13
 835 1543 835 1543 861 1475.5 c 128,-1,14
 887 1408 887 1408 887 1326 c 256,15,16
 887 1244 887 1244 861 1176.5 c 128,-1,17
 835 1109 835 1109 788 1061 c 128,-1,18
 741 1013 741 1013 676.5 986.5 c 128,-1,19
 612 960 612 960 535 960 c 256,0,1
535 1131 m 0,20,21
 563 1131 563 1131 588.5 1143 c 128,-1,22
 614 1155 614 1155 632.5 1179 c 128,-1,23
 651 1203 651 1203 662 1239.5 c 128,-1,24
 673 1276 673 1276 673 1326 c 0,25,26
 673 1375 673 1375 662 1412 c 128,-1,27
 651 1449 651 1449 632.5 1473 c 128,-1,28
 614 1497 614 1497 588.5 1509 c 128,-1,29
 563 1521 563 1521 535 1521 c 0,30,31
 506 1521 506 1521 481 1509 c 128,-1,32
 456 1497 456 1497 437 1473 c 128,-1,33
 418 1449 418 1449 407.5 1412 c 128,-1,34
 397 1375 397 1375 397 1326 c 0,35,36
 397 1276 397 1276 407.5 1239.5 c 128,-1,37
 418 1203 418 1203 437 1179 c 128,-1,38
 456 1155 456 1155 481 1143 c 128,-1,39
 506 1131 506 1131 535 1131 c 0,20,21
EndSplineSet
EndChar

StartChar: currency
Encoding: 164 164 100
Width: 1800
Flags: W
LayerCount: 2
Fore
SplineSet
431 473 m 1,0,1
 380 544 380 544 352 628.5 c 128,-1,2
 324 713 324 713 324 807 c 256,3,4
 324 901 324 901 352 985 c 128,-1,5
 380 1069 380 1069 431 1141 c 1,6,-1
 184 1378 l 1,7,-1
 328 1525 l 1,8,-1
 567 1276 l 1,9,10
 638 1327 638 1327 722.5 1355 c 128,-1,11
 807 1383 807 1383 901 1383 c 256,12,13
 995 1383 995 1383 1079 1355 c 128,-1,14
 1163 1327 1163 1327 1234 1277 c 1,15,-1
 1472 1524 l 1,16,-1
 1618 1379 l 1,17,-1
 1370 1141 l 1,18,19
 1421 1069 1421 1069 1449 985 c 128,-1,20
 1477 901 1477 901 1477 807 c 256,21,22
 1477 713 1477 713 1448.5 628.5 c 128,-1,23
 1420 544 1420 544 1369 473 c 1,24,-1
 1618 236 l 1,25,-1
 1472 90 l 1,26,-1
 1234 339 l 1,27,28
 1163 288 1163 288 1079 260.5 c 128,-1,29
 995 233 995 233 901 233 c 256,30,31
 807 233 807 233 723 260.5 c 128,-1,32
 639 288 639 288 568 338 c 1,33,-1
 331 90 l 1,34,-1
 182 235 l 1,35,-1
 431 473 l 1,0,1
531 807 m 256,36,37
 531 731 531 731 560.5 664 c 128,-1,38
 590 597 590 597 640 546.5 c 128,-1,39
 690 496 690 496 757.5 467 c 128,-1,40
 825 438 825 438 901 438 c 256,41,42
 977 438 977 438 1044 467 c 128,-1,43
 1111 496 1111 496 1161.5 546.5 c 128,-1,44
 1212 597 1212 597 1241 664 c 128,-1,45
 1270 731 1270 731 1270 807 c 256,46,47
 1270 883 1270 883 1241 950.5 c 128,-1,48
 1212 1018 1212 1018 1161.5 1068.5 c 128,-1,49
 1111 1119 1111 1119 1044 1148.5 c 128,-1,50
 977 1178 977 1178 901 1178 c 256,51,52
 825 1178 825 1178 757.5 1148.5 c 128,-1,53
 690 1119 690 1119 640 1068.5 c 128,-1,54
 590 1018 590 1018 560.5 950.5 c 128,-1,55
 531 883 531 883 531 807 c 256,36,37
EndSplineSet
EndChar

StartChar: registered
Encoding: 174 174 101
Width: 2184
Flags: W
LayerCount: 2
Fore
SplineSet
228 823 m 0,0,1
 228 947 228 947 257 1059.5 c 128,-1,2
 286 1172 286 1172 340 1268 c 128,-1,3
 394 1364 394 1364 471 1441 c 128,-1,4
 548 1518 548 1518 644 1572 c 128,-1,5
 740 1626 740 1626 853 1655.5 c 128,-1,6
 966 1685 966 1685 1092 1685 c 256,7,8
 1218 1685 1218 1685 1331 1655.5 c 128,-1,9
 1444 1626 1444 1626 1540 1572 c 128,-1,10
 1636 1518 1636 1518 1713 1441 c 128,-1,11
 1790 1364 1790 1364 1844 1268 c 128,-1,12
 1898 1172 1898 1172 1927 1059.5 c 128,-1,13
 1956 947 1956 947 1956 823 c 0,14,15
 1956 698 1956 698 1927 586 c 128,-1,16
 1898 474 1898 474 1844 378 c 128,-1,17
 1790 282 1790 282 1713 205 c 128,-1,18
 1636 128 1636 128 1540 74 c 128,-1,19
 1444 20 1444 20 1331 -9.5 c 128,-1,20
 1218 -39 1218 -39 1092 -39 c 256,21,22
 966 -39 966 -39 853 -9.5 c 128,-1,23
 740 20 740 20 644 74 c 128,-1,24
 548 128 548 128 471 205 c 128,-1,25
 394 282 394 282 340 378 c 128,-1,26
 286 474 286 474 257 586 c 128,-1,27
 228 698 228 698 228 823 c 0,0,1
383 823 m 0,28,29
 383 671 383 671 434.5 541.5 c 128,-1,30
 486 412 486 412 579.5 317 c 128,-1,31
 673 222 673 222 803.5 168 c 128,-1,32
 934 114 934 114 1092 114 c 0,33,34
 1249 114 1249 114 1379.5 168 c 128,-1,35
 1510 222 1510 222 1603.5 317 c 128,-1,36
 1697 412 1697 412 1748.5 541.5 c 128,-1,37
 1800 671 1800 671 1800 823 c 0,38,39
 1800 974 1800 974 1748.5 1104 c 128,-1,40
 1697 1234 1697 1234 1603.5 1329 c 128,-1,41
 1510 1424 1510 1424 1379.5 1478 c 128,-1,42
 1249 1532 1249 1532 1092 1532 c 0,43,44
 934 1532 934 1532 803.5 1478 c 128,-1,45
 673 1424 673 1424 579.5 1329 c 128,-1,46
 486 1234 486 1234 434.5 1104 c 128,-1,47
 383 974 383 974 383 823 c 0,28,29
800 1279 m 1,48,49
 837 1280 837 1280 867.5 1280.5 c 128,-1,50
 898 1281 898 1281 927 1281.5 c 128,-1,51
 956 1282 956 1282 985 1282 c 128,-1,52
 1014 1282 1014 1282 1048 1282 c 0,53,54
 1150 1282 1150 1282 1223 1261.5 c 128,-1,55
 1296 1241 1296 1241 1342.5 1204.5 c 128,-1,56
 1389 1168 1389 1168 1411 1118 c 128,-1,57
 1433 1068 1433 1068 1433 1008 c 0,58,59
 1433 929 1433 929 1394.5 863 c 128,-1,60
 1356 797 1356 797 1278 759 c 1,61,-1
 1461 423 l 1,62,-1
 1227 423 l 1,63,-1
 1067 717 l 1,64,65
 1055 717 1055 717 1042.5 717.5 c 128,-1,66
 1030 718 1030 718 1017 719 c 1,67,-1
 1016 422 l 1,68,-1
 800 422 l 1,69,-1
 800 1279 l 1,48,49
1017 879 m 1,70,71
 1070 873 1070 873 1106.5 880 c 128,-1,72
 1143 887 1143 887 1165.5 903.5 c 128,-1,73
 1188 920 1188 920 1198 945 c 128,-1,74
 1208 970 1208 970 1208 1000 c 0,75,76
 1208 1069 1208 1069 1158 1098.5 c 128,-1,77
 1108 1128 1108 1128 1017 1123 c 1,78,-1
 1017 879 l 1,70,71
EndSplineSet
EndChar

StartChar: copyright
Encoding: 169 169 102
Width: 2184
Flags: W
LayerCount: 2
Fore
SplineSet
228 823 m 0,0,1
 228 947 228 947 257 1059.5 c 128,-1,2
 286 1172 286 1172 340 1268 c 128,-1,3
 394 1364 394 1364 471 1441 c 128,-1,4
 548 1518 548 1518 644 1572 c 128,-1,5
 740 1626 740 1626 853 1655.5 c 128,-1,6
 966 1685 966 1685 1092 1685 c 256,7,8
 1218 1685 1218 1685 1331 1655.5 c 128,-1,9
 1444 1626 1444 1626 1540 1572 c 128,-1,10
 1636 1518 1636 1518 1713 1441 c 128,-1,11
 1790 1364 1790 1364 1844 1268 c 128,-1,12
 1898 1172 1898 1172 1927 1059.5 c 128,-1,13
 1956 947 1956 947 1956 823 c 0,14,15
 1956 698 1956 698 1927 586 c 128,-1,16
 1898 474 1898 474 1844 378 c 128,-1,17
 1790 282 1790 282 1713 205 c 128,-1,18
 1636 128 1636 128 1540 74 c 128,-1,19
 1444 20 1444 20 1331 -9.5 c 128,-1,20
 1218 -39 1218 -39 1092 -39 c 256,21,22
 966 -39 966 -39 853 -9.5 c 128,-1,23
 740 20 740 20 644 74 c 128,-1,24
 548 128 548 128 471 205 c 128,-1,25
 394 282 394 282 340 378 c 128,-1,26
 286 474 286 474 257 586 c 128,-1,27
 228 698 228 698 228 823 c 0,0,1
383 823 m 0,28,29
 383 671 383 671 434.5 541.5 c 128,-1,30
 486 412 486 412 579.5 317 c 128,-1,31
 673 222 673 222 803.5 168 c 128,-1,32
 934 114 934 114 1092 114 c 0,33,34
 1249 114 1249 114 1379.5 168 c 128,-1,35
 1510 222 1510 222 1603.5 317 c 128,-1,36
 1697 412 1697 412 1748.5 541.5 c 128,-1,37
 1800 671 1800 671 1800 823 c 0,38,39
 1800 974 1800 974 1748.5 1104 c 128,-1,40
 1697 1234 1697 1234 1603.5 1329 c 128,-1,41
 1510 1424 1510 1424 1379.5 1478 c 128,-1,42
 1249 1532 1249 1532 1092 1532 c 0,43,44
 934 1532 934 1532 803.5 1478 c 128,-1,45
 673 1424 673 1424 579.5 1329 c 128,-1,46
 486 1234 486 1234 434.5 1104 c 128,-1,47
 383 974 383 974 383 823 c 0,28,29
707 832 m 256,48,49
 707 942 707 942 738 1026.5 c 128,-1,50
 769 1111 769 1111 824 1169 c 128,-1,51
 879 1227 879 1227 955.5 1256.5 c 128,-1,52
 1032 1286 1032 1286 1123 1286 c 0,53,54
 1190 1286 1190 1286 1245.5 1271 c 128,-1,55
 1301 1256 1301 1256 1328 1235 c 1,56,-1
 1328 1025 l 1,57,58
 1290 1059 1290 1059 1243.5 1079 c 128,-1,59
 1197 1099 1197 1099 1147 1099 c 0,60,61
 1107 1099 1107 1099 1070.5 1085.5 c 128,-1,62
 1034 1072 1034 1072 1006.5 1041 c 128,-1,63
 979 1010 979 1010 963 960 c 128,-1,64
 947 910 947 910 947 837 c 0,65,66
 947 760 947 760 965 708 c 128,-1,67
 983 656 983 656 1013 624 c 128,-1,68
 1043 592 1043 592 1081.5 578 c 128,-1,69
 1120 564 1120 564 1162 564 c 0,70,71
 1203 564 1203 564 1247.5 579 c 128,-1,72
 1292 594 1292 594 1332 624 c 1,73,-1
 1332 426 l 1,74,75
 1302 405 1302 405 1257 390 c 128,-1,76
 1212 375 1212 375 1140 375 c 0,77,78
 1043 375 1043 375 963 405 c 128,-1,79
 883 435 883 435 826 493.5 c 128,-1,80
 769 552 769 552 738 637 c 128,-1,81
 707 722 707 722 707 832 c 256,48,49
EndSplineSet
EndChar

StartChar: trademark
Encoding: 8482 8482 103
Width: 1818
Flags: W
LayerCount: 2
Fore
SplineSet
386 1406 m 1,0,-1
 182 1406 l 1,1,-1
 182 1573 l 1,2,-1
 781 1573 l 1,3,-1
 781 1406 l 1,4,-1
 577 1406 l 1,5,-1
 577 801 l 1,6,-1
 386 801 l 1,7,-1
 386 1406 l 1,0,-1
878 1572 m 1,8,-1
 1066 1572 l 1,9,-1
 1229 1272 l 1,10,-1
 1253 1204 l 1,11,-1
 1262 1204 l 1,12,-1
 1285 1272 l 1,13,-1
 1449 1572 l 1,14,-1
 1636 1572 l 1,15,-1
 1636 801 l 1,16,-1
 1448 801 l 1,17,-1
 1448 1124 l 1,18,-1
 1457 1285 l 1,19,-1
 1448 1285 l 1,20,-1
 1282 985 l 1,21,-1
 1232 985 l 1,22,-1
 1066 1285 l 1,23,-1
 1057 1285 l 1,24,-1
 1066 1124 l 1,25,-1
 1066 801 l 1,26,-1
 878 801 l 1,27,-1
 878 1572 l 1,8,-1
EndSplineSet
EndChar

StartChar: percent
Encoding: 37 37 104
Width: 2228
Flags: W
LayerCount: 2
Fore
SplineSet
527 757 m 256,0,1
 444 757 444 757 374.5 785.5 c 128,-1,2
 305 814 305 814 254.5 871.5 c 128,-1,3
 204 929 204 929 175.5 1017 c 128,-1,4
 147 1105 147 1105 147 1225 c 256,5,6
 147 1345 147 1345 175.5 1433.5 c 128,-1,7
 204 1522 204 1522 254.5 1579.5 c 128,-1,8
 305 1637 305 1637 374.5 1665.5 c 128,-1,9
 444 1694 444 1694 527 1694 c 256,10,11
 610 1694 610 1694 679.5 1665.5 c 128,-1,12
 749 1637 749 1637 799.5 1579.5 c 128,-1,13
 850 1522 850 1522 878.5 1433.5 c 128,-1,14
 907 1345 907 1345 907 1225 c 256,15,16
 907 1105 907 1105 878.5 1017 c 128,-1,17
 850 929 850 929 799.5 871.5 c 128,-1,18
 749 814 749 814 679.5 785.5 c 128,-1,19
 610 757 610 757 527 757 c 256,0,1
1374 1687 m 1,20,-1
 1588 1687 l 1,21,-1
 870 0 l 1,22,-1
 655 0 l 1,23,-1
 1374 1687 l 1,20,-1
527 940 m 256,24,25
 563 940 563 940 593.5 954.5 c 128,-1,26
 624 969 624 969 646 1002.5 c 128,-1,27
 668 1036 668 1036 680 1090 c 128,-1,28
 692 1144 692 1144 692 1223 c 256,29,30
 692 1302 692 1302 680 1356 c 128,-1,31
 668 1410 668 1410 646 1443.5 c 128,-1,32
 624 1477 624 1477 593.5 1492 c 128,-1,33
 563 1507 563 1507 527 1507 c 256,34,35
 491 1507 491 1507 460.5 1492 c 128,-1,36
 430 1477 430 1477 408 1443.5 c 128,-1,37
 386 1410 386 1410 373.5 1356 c 128,-1,38
 361 1302 361 1302 361 1223 c 256,39,40
 361 1144 361 1144 373.5 1090 c 128,-1,41
 386 1036 386 1036 408 1002.5 c 128,-1,42
 430 969 430 969 460.5 954.5 c 128,-1,43
 491 940 491 940 527 940 c 256,24,25
1319 447 m 256,44,45
 1319 567 1319 567 1347.5 655 c 128,-1,46
 1376 743 1376 743 1426.5 800.5 c 128,-1,47
 1477 858 1477 858 1547 886.5 c 128,-1,48
 1617 915 1617 915 1700 915 c 256,49,50
 1783 915 1783 915 1852.5 886.5 c 128,-1,51
 1922 858 1922 858 1972.5 800.5 c 128,-1,52
 2023 743 2023 743 2051.5 655 c 128,-1,53
 2080 567 2080 567 2080 447 c 256,54,55
 2080 327 2080 327 2051.5 239 c 128,-1,56
 2023 151 2023 151 1972.5 93 c 128,-1,57
 1922 35 1922 35 1852.5 6.5 c 128,-1,58
 1783 -22 1783 -22 1700 -22 c 256,59,60
 1617 -22 1617 -22 1547 6.5 c 128,-1,61
 1477 35 1477 35 1426.5 93 c 128,-1,62
 1376 151 1376 151 1347.5 239 c 128,-1,63
 1319 327 1319 327 1319 447 c 256,44,45
1533 445 m 0,64,65
 1533 366 1533 366 1545.5 312 c 128,-1,66
 1558 258 1558 258 1580 224.5 c 128,-1,67
 1602 191 1602 191 1633 176.5 c 128,-1,68
 1664 162 1664 162 1700 162 c 256,69,70
 1736 162 1736 162 1766.5 176.5 c 128,-1,71
 1797 191 1797 191 1818.5 224.5 c 128,-1,72
 1840 258 1840 258 1852 312 c 128,-1,73
 1864 366 1864 366 1864 445 c 0,74,75
 1864 523 1864 523 1852 577 c 128,-1,76
 1840 631 1840 631 1818.5 664.5 c 128,-1,77
 1797 698 1797 698 1766.5 713 c 128,-1,78
 1736 728 1736 728 1700 728 c 256,79,80
 1664 728 1664 728 1633 713 c 128,-1,81
 1602 698 1602 698 1580 664.5 c 128,-1,82
 1558 631 1558 631 1545.5 577 c 128,-1,83
 1533 523 1533 523 1533 445 c 0,64,65
EndSplineSet
EndChar

StartChar: slash
Encoding: 47 47 105
Width: 1563
Flags: W
LayerCount: 2
Fore
SplineSet
1107 1754 m 1,0,-1
 1321 1754 l 1,1,-1
 456 -285 l 1,2,-1
 242 -285 l 1,3,-1
 1107 1754 l 1,0,-1
EndSplineSet
EndChar

StartChar: dollar
Encoding: 36 36 107
Width: 1070
Flags: W
LayerCount: 2
Fore
SplineSet
144 299 m 1,0,1
 231 239 231 239 311.5 214.5 c 128,-1,2
 392 190 392 190 469 190 c 0,3,4
 537 190 537 190 583 206 c 128,-1,5
 629 222 629 222 656.5 247.5 c 128,-1,6
 684 273 684 273 695.5 306 c 128,-1,7
 707 339 707 339 707 373 c 0,8,9
 707 428 707 428 682.5 473.5 c 128,-1,10
 658 519 658 519 618 559.5 c 128,-1,11
 578 600 578 600 526.5 638.5 c 128,-1,12
 475 677 475 677 422 718 c 128,-1,13
 369 759 369 759 317.5 805 c 128,-1,14
 266 851 266 851 226 906 c 128,-1,15
 186 961 186 961 161.5 1028 c 128,-1,16
 137 1095 137 1095 137 1179 c 0,17,18
 137 1254 137 1254 158 1317.5 c 128,-1,19
 179 1381 179 1381 217 1430.5 c 128,-1,20
 255 1480 255 1480 308 1515.5 c 128,-1,21
 361 1551 361 1551 426 1570 c 1,22,-1
 426 1912 l 1,23,-1
 640 1912 l 1,24,-1
 640 1588 l 1,25,26
 701 1582 701 1582 759.5 1567 c 128,-1,27
 818 1552 818 1552 863 1530 c 1,28,-1
 862 1294 l 1,29,30
 790 1340 790 1340 725.5 1360.5 c 128,-1,31
 661 1381 661 1381 598 1381 c 0,32,33
 542 1381 542 1381 501.5 1366.5 c 128,-1,34
 461 1352 461 1352 434.5 1327 c 128,-1,35
 408 1302 408 1302 395 1268 c 128,-1,36
 382 1234 382 1234 382 1194 c 0,37,38
 382 1136 382 1136 406.5 1089 c 128,-1,39
 431 1042 431 1042 471 1001 c 128,-1,40
 511 960 511 960 562.5 922.5 c 128,-1,41
 614 885 614 885 667.5 845 c 128,-1,42
 721 805 721 805 772.5 761 c 128,-1,43
 824 717 824 717 864 663.5 c 128,-1,44
 904 610 904 610 928.5 544.5 c 128,-1,45
 953 479 953 479 953 396 c 0,46,47
 953 321 953 321 931.5 256.5 c 128,-1,48
 910 192 910 192 870 140.5 c 128,-1,49
 830 89 830 89 772.5 52.5 c 128,-1,50
 715 16 715 16 642 -3 c 1,51,-1
 642 -342 l 1,52,-1
 429 -342 l 1,53,-1
 429 -20 l 1,54,55
 390 -17 390 -17 350.5 -10.5 c 128,-1,56
 311 -4 311 -4 274 5.5 c 128,-1,57
 237 15 237 15 203 28 c 128,-1,58
 169 41 169 41 142 57 c 1,59,-1
 144 299 l 1,0,1
EndSplineSet
EndChar

StartChar: numbersign
Encoding: 35 35 108
Width: 1909
Flags: W
LayerCount: 2
Fore
SplineSet
461 479 m 1,0,-1
 160 479 l 1,1,-1
 160 674 l 1,2,-1
 501 674 l 1,3,-1
 582 1059 l 1,4,-1
 241 1059 l 1,5,-1
 246 1254 l 1,6,-1
 622 1254 l 1,7,-1
 727 1754 l 1,8,-1
 942 1754 l 1,9,-1
 837 1254 l 1,10,-1
 1189 1254 l 1,11,-1
 1294 1754 l 1,12,-1
 1508 1754 l 1,13,-1
 1403 1254 l 1,14,-1
 1750 1254 l 1,15,-1
 1750 1059 l 1,16,-1
 1363 1059 l 1,17,-1
 1282 674 l 1,18,-1
 1669 674 l 1,19,-1
 1669 479 l 1,20,-1
 1242 479 l 1,21,-1
 1142 0 l 1,22,-1
 928 0 l 1,23,-1
 1028 479 l 1,24,-1
 676 479 l 1,25,-1
 576 0 l 1,26,-1
 361 0 l 1,27,-1
 461 479 l 1,0,-1
1068 674 m 1,28,-1
 1149 1059 l 1,29,-1
 797 1059 l 1,30,-1
 716 674 l 1,31,-1
 1068 674 l 1,28,-1
EndSplineSet
EndChar

StartChar: hyphen
Encoding: 45 45 109
Width: 1116
Flags: W
LayerCount: 2
Fore
SplineSet
205 860 m 1,0,-1
 911 860 l 1,1,-1
 911 646 l 1,2,-1
 205 646 l 1,3,-1
 205 860 l 1,0,-1
EndSplineSet
EndChar

StartChar: mu
Encoding: 181 181 110
Width: 1205
Flags: W
LayerCount: 2
Fore
SplineSet
383 -520 m 1,0,-1
 141 -520 l 1,1,-1
 141 1135 l 1,2,-1
 384 1135 l 1,3,-1
 384 421 l 2,4,5
 384 291 384 291 427.5 228 c 128,-1,6
 471 165 471 165 569 165 c 0,7,8
 636 165 636 165 693 194.5 c 128,-1,9
 750 224 750 224 793 286 c 1,10,-1
 793 1135 l 1,11,-1
 1035 1135 l 1,12,-1
 1035 179 l 1,13,-1
 1180 178 l 1,14,15
 1177 143 1177 143 1163 108 c 128,-1,16
 1149 73 1149 73 1123 44.5 c 128,-1,17
 1097 16 1097 16 1058.5 -2 c 128,-1,18
 1020 -20 1020 -20 968 -20 c 0,19,20
 893 -20 893 -20 850.5 17 c 128,-1,21
 808 54 808 54 808 120 c 1,22,23
 762 55 762 55 698 16 c 128,-1,24
 634 -23 634 -23 541 -23 c 0,25,26
 517 -23 517 -23 490.5 -17 c 128,-1,27
 464 -11 464 -11 439 0 c 128,-1,28
 414 11 414 11 393 26 c 128,-1,29
 372 41 372 41 360 59 c 1,30,-1
 383 -520 l 1,0,-1
EndSplineSet
EndChar

StartChar: ordfeminine
Encoding: 170 170 111
Width: 1135
Flags: W
LayerCount: 2
Fore
SplineSet
467 701 m 0,0,1
 399 701 399 701 343 723.5 c 128,-1,2
 287 746 287 746 247.5 786.5 c 128,-1,3
 208 827 208 827 186.5 882 c 128,-1,4
 165 937 165 937 165 1003 c 0,5,6
 165 1077 165 1077 193.5 1136.5 c 128,-1,7
 222 1196 222 1196 277.5 1238 c 128,-1,8
 333 1280 333 1280 415 1302.5 c 128,-1,9
 497 1325 497 1325 604 1325 c 2,10,-1
 709 1325 l 1,11,-1
 709 1363 l 2,12,13
 709 1457 709 1457 666 1506.5 c 128,-1,14
 623 1556 623 1556 519 1556 c 0,15,16
 483 1556 483 1556 449.5 1550 c 128,-1,17
 416 1544 416 1544 383.5 1533.5 c 128,-1,18
 351 1523 351 1523 318 1508.5 c 128,-1,19
 285 1494 285 1494 250 1477 c 1,20,-1
 250 1664 l 1,21,22
 313 1698 313 1698 386 1715.5 c 128,-1,23
 459 1733 459 1733 547 1733 c 0,24,25
 749 1733 749 1733 846.5 1637.5 c 128,-1,26
 944 1542 944 1542 944 1357 c 2,27,-1
 944 947 l 2,28,29
 944 915 944 915 944.5 887 c 128,-1,30
 945 859 945 859 947 832 c 128,-1,31
 949 805 949 805 954.5 777.5 c 128,-1,32
 960 750 960 750 970 720 c 1,33,-1
 728 720 l 1,34,35
 721 740 721 740 717.5 763 c 128,-1,36
 714 786 714 786 712 810 c 1,37,38
 668 759 668 759 607 730 c 128,-1,39
 546 701 546 701 467 701 c 0,0,1
532 878 m 0,40,41
 579 878 579 878 625 895.5 c 128,-1,42
 671 913 671 913 709 950 c 1,43,-1
 709 1172 l 1,44,-1
 608 1172 l 2,45,46
 546 1172 546 1172 503.5 1160.5 c 128,-1,47
 461 1149 461 1149 435 1128.5 c 128,-1,48
 409 1108 409 1108 397.5 1080.5 c 128,-1,49
 386 1053 386 1053 386 1020 c 0,50,51
 386 992 386 992 394 966.5 c 128,-1,52
 402 941 402 941 419.5 921.5 c 128,-1,53
 437 902 437 902 465 890 c 128,-1,54
 493 878 493 878 532 878 c 0,40,41
EndSplineSet
EndChar

StartChar: ordmasculine
Encoding: 186 186 112
Width: 1206
Flags: W
LayerCount: 2
Fore
SplineSet
602 701 m 0,0,1
 506 701 506 701 426 734 c 128,-1,2
 346 767 346 767 288 832 c 128,-1,3
 230 897 230 897 197.5 993 c 128,-1,4
 165 1089 165 1089 165 1214 c 256,5,6
 165 1339 165 1339 197 1436 c 128,-1,7
 229 1533 229 1533 287 1599 c 128,-1,8
 345 1665 345 1665 426 1699 c 128,-1,9
 507 1733 507 1733 604 1733 c 0,10,11
 700 1733 700 1733 780.5 1700 c 128,-1,12
 861 1667 861 1667 918.5 1602 c 128,-1,13
 976 1537 976 1537 1008.5 1441 c 128,-1,14
 1041 1345 1041 1345 1041 1220 c 256,15,16
 1041 1095 1041 1095 1009 998 c 128,-1,17
 977 901 977 901 919 835 c 128,-1,18
 861 769 861 769 780 735 c 128,-1,19
 699 701 699 701 602 701 c 0,0,1
602 878 m 0,20,21
 649 878 649 878 689 898 c 128,-1,22
 729 918 729 918 758 960 c 128,-1,23
 787 1002 787 1002 803.5 1066.5 c 128,-1,24
 820 1131 820 1131 820 1220 c 0,25,26
 820 1310 820 1310 803.5 1374 c 128,-1,27
 787 1438 787 1438 757.5 1478.5 c 128,-1,28
 728 1519 728 1519 689 1538 c 128,-1,29
 650 1557 650 1557 605 1557 c 0,30,31
 558 1557 558 1557 518 1537 c 128,-1,32
 478 1517 478 1517 448.5 1475 c 128,-1,33
 419 1433 419 1433 402.5 1368 c 128,-1,34
 386 1303 386 1303 386 1214 c 0,35,36
 386 1124 386 1124 402.5 1060 c 128,-1,37
 419 996 419 996 448.5 955.5 c 128,-1,38
 478 915 478 915 517.5 896.5 c 128,-1,39
 557 878 557 878 602 878 c 0,20,21
EndSplineSet
EndChar

StartChar: quotesingle
Encoding: 39 39 113
Width: 577
Flags: W
LayerCount: 2
Fore
SplineSet
165 1734 m 1,0,-1
 412 1734 l 1,1,-1
 391 959 l 1,2,-1
 186 959 l 1,3,-1
 165 1734 l 1,0,-1
EndSplineSet
EndChar

StartChar: guilsinglleft
Encoding: 8249 8249 115
Width: 985
Flags: W
LayerCount: 2
Fore
SplineSet
145 661 m 1,0,-1
 529 1141 l 1,1,-1
 796 1141 l 1,2,-1
 416 661 l 1,3,-1
 796 181 l 1,4,-1
 529 181 l 1,5,-1
 145 661 l 1,0,-1
EndSplineSet
EndChar

StartChar: acute
Encoding: 180 180 119
Width: 0
Flags: W
LayerCount: 2
Fore
SplineSet
-111 1303 m 1,0,-1
 155 1723 l 1,1,-1
 438 1723 l 1,2,-1
 104 1303 l 1,3,-1
 -111 1303 l 1,0,-1
EndSplineSet
EndChar

StartChar: grave
Encoding: 96 96 120
Width: 0
Flags: W
LayerCount: 2
Fore
SplineSet
-438 1723 m 1,0,-1
 -155 1723 l 1,1,-1
 111 1303 l 1,2,-1
 -104 1303 l 1,3,-1
 -438 1723 l 1,0,-1
EndSplineSet
EndChar

StartChar: dieresis
Encoding: 168 168 121
Width: 0
Flags: W
LayerCount: 2
Fore
SplineSet
234 1383 m 0,0,1
 162 1383 162 1383 118.5 1425 c 128,-1,2
 75 1467 75 1467 75 1536 c 0,3,4
 75 1570 75 1570 86.5 1598 c 128,-1,5
 98 1626 98 1626 118.5 1646 c 128,-1,6
 139 1666 139 1666 168.5 1677 c 128,-1,7
 198 1688 198 1688 234 1688 c 0,8,9
 309 1688 309 1688 352.5 1646.5 c 128,-1,10
 396 1605 396 1605 396 1536 c 256,11,12
 396 1467 396 1467 352.5 1425 c 128,-1,13
 309 1383 309 1383 234 1383 c 0,0,1
-237 1383 m 0,14,15
 -309 1383 -309 1383 -352.5 1425 c 128,-1,16
 -396 1467 -396 1467 -396 1536 c 0,17,18
 -396 1570 -396 1570 -384.5 1598 c 128,-1,19
 -373 1626 -373 1626 -352.5 1646 c 128,-1,20
 -332 1666 -332 1666 -302.5 1677 c 128,-1,21
 -273 1688 -273 1688 -237 1688 c 0,22,23
 -162 1688 -162 1688 -118.5 1646.5 c 128,-1,24
 -75 1605 -75 1605 -75 1536 c 256,25,26
 -75 1467 -75 1467 -118.5 1425 c 128,-1,27
 -162 1383 -162 1383 -237 1383 c 0,14,15
EndSplineSet
EndChar

StartChar: circumflex
Encoding: 710 710 122
Width: 0
Flags: W
LayerCount: 2
Fore
SplineSet
0 1538 m 1,0,-1
 -190 1341 l 1,1,-1
 -382 1341 l 1,2,-1
 -107 1720 l 1,3,-1
 107 1720 l 1,4,-1
 382 1341 l 1,5,-1
 190 1341 l 1,6,-1
 0 1538 l 1,0,-1
EndSplineSet
EndChar

StartChar: caron
Encoding: 711 711 123
Width: 0
Flags: W
LayerCount: 2
Fore
SplineSet
-382 1720 m 1,0,-1
 -190 1720 l 1,1,-1
 0 1523 l 1,2,-1
 190 1720 l 1,3,-1
 382 1720 l 1,4,-1
 107 1341 l 1,5,-1
 -107 1341 l 1,6,-1
 -382 1720 l 1,0,-1
EndSplineSet
EndChar

StartChar: tilde
Encoding: 732 732 124
Width: 0
Flags: W
LayerCount: 2
Fore
SplineSet
145 1394 m 0,0,1
 94 1394 94 1394 57.5 1411.5 c 128,-1,2
 21 1429 21 1429 -10.5 1450.5 c 128,-1,3
 -42 1472 -42 1472 -74 1489.5 c 128,-1,4
 -106 1507 -106 1507 -149 1507 c 0,5,6
 -190 1507 -190 1507 -223 1483.5 c 128,-1,7
 -256 1460 -256 1460 -271 1409 c 1,8,-1
 -376 1409 l 1,9,10
 -364 1491 -364 1491 -340 1548.5 c 128,-1,11
 -316 1606 -316 1606 -283.5 1641.5 c 128,-1,12
 -251 1677 -251 1677 -211.5 1693 c 128,-1,13
 -172 1709 -172 1709 -128 1709 c 0,14,15
 -77 1709 -77 1709 -41 1691.5 c 128,-1,16
 -5 1674 -5 1674 26.5 1652.5 c 128,-1,17
 58 1631 58 1631 90 1613.5 c 128,-1,18
 122 1596 122 1596 165 1596 c 0,19,20
 206 1596 206 1596 239 1618.5 c 128,-1,21
 272 1641 272 1641 287 1694 c 1,22,-1
 392 1694 l 1,23,24
 380 1611 380 1611 356 1554 c 128,-1,25
 332 1497 332 1497 299.5 1461.5 c 128,-1,26
 267 1426 267 1426 227.5 1410 c 128,-1,27
 188 1394 188 1394 145 1394 c 0,0,1
EndSplineSet
EndChar

StartChar: macron
Encoding: 175 175 125
Width: 0
Flags: W
LayerCount: 2
Fore
SplineSet
-353 1456 m 1,0,-1
 -353 1646 l 1,1,-1
 353 1646 l 1,2,-1
 353 1456 l 1,3,-1
 -353 1456 l 1,0,-1
EndSplineSet
EndChar

StartChar: ring
Encoding: 730 730 126
Width: 0
Flags: W
LayerCount: 2
Fore
SplineSet
0 1270 m 256,0,1
 -64 1270 -64 1270 -117.5 1290 c 128,-1,2
 -171 1310 -171 1310 -210 1346.5 c 128,-1,3
 -249 1383 -249 1383 -270.5 1434 c 128,-1,4
 -292 1485 -292 1485 -292 1546 c 256,5,6
 -292 1607 -292 1607 -270.5 1658 c 128,-1,7
 -249 1709 -249 1709 -210 1745.5 c 128,-1,8
 -171 1782 -171 1782 -117.5 1802 c 128,-1,9
 -64 1822 -64 1822 0 1822 c 256,10,11
 64 1822 64 1822 117.5 1802 c 128,-1,12
 171 1782 171 1782 210 1745.5 c 128,-1,13
 249 1709 249 1709 270.5 1658 c 128,-1,14
 292 1607 292 1607 292 1546 c 256,15,16
 292 1485 292 1485 270.5 1434 c 128,-1,17
 249 1383 249 1383 210 1346.5 c 128,-1,18
 171 1310 171 1310 117.5 1290 c 128,-1,19
 64 1270 64 1270 0 1270 c 256,0,1
0 1412 m 256,20,21
 48 1412 48 1412 81 1445 c 128,-1,22
 114 1478 114 1478 114 1546 c 256,23,24
 114 1614 114 1614 81.5 1646.5 c 128,-1,25
 49 1679 49 1679 0 1679 c 0,26,27
 -47 1679 -47 1679 -80 1646 c 128,-1,28
 -113 1613 -113 1613 -113 1546 c 0,29,30
 -113 1478 -113 1478 -80.5 1445 c 128,-1,31
 -48 1412 -48 1412 0 1412 c 256,20,21
EndSplineSet
EndChar

StartChar: cedilla
Encoding: 184 184 127
Width: 0
Flags: W
LayerCount: 2
Fore
SplineSet
1 -109 m 1,0,1
 101 -111 101 -111 156 -153.5 c 128,-1,2
 211 -196 211 -196 211 -277 c 0,3,4
 211 -328 211 -328 186 -372 c 128,-1,5
 161 -416 161 -416 108.5 -449 c 128,-1,6
 56 -482 56 -482 -24 -500.5 c 128,-1,7
 -104 -519 -104 -519 -215 -519 c 1,8,-1
 -215 -383 l 1,9,10
 -98 -379 -98 -379 -45 -351.5 c 128,-1,11
 8 -324 8 -324 8 -284 c 0,12,13
 8 -252 8 -252 -12.5 -233 c 128,-1,14
 -33 -214 -33 -214 -84 -214 c 0,15,16
 -148 -214 -148 -214 -207 -239 c 1,17,-1
 -143 40 l 1,18,-1
 23 40 l 1,19,-1
 1 -109 l 1,0,1
EndSplineSet
EndChar

StartChar: commaaccent
Encoding: 63171 63171 128
Width: 0
Flags: W
LayerCount: 2
Fore
SplineSet
3 -55 m 0,0,1
 44 -55 44 -55 77.5 -67.5 c 128,-1,2
 111 -80 111 -80 135 -104 c 128,-1,3
 159 -128 159 -128 172.5 -162.5 c 128,-1,4
 186 -197 186 -197 186 -240 c 0,5,6
 186 -297 186 -297 169 -347.5 c 128,-1,7
 152 -398 152 -398 114.5 -436.5 c 128,-1,8
 77 -475 77 -475 18 -497.5 c 128,-1,9
 -41 -520 -41 -520 -126 -520 c 1,10,-1
 -126 -404 l 1,11,12
 -81 -399 -81 -399 -56 -391.5 c 128,-1,13
 -31 -384 -31 -384 -18.5 -373 c 128,-1,14
 -6 -362 -6 -362 -3 -347 c 128,-1,15
 0 -332 0 -332 0 -311 c 1,16,17
 -79 -311 -79 -311 -121.5 -277.5 c 128,-1,18
 -164 -244 -164 -244 -164 -181 c 0,19,20
 -164 -157 -164 -157 -153.5 -134.5 c 128,-1,21
 -143 -112 -143 -112 -122 -94 c 128,-1,22
 -101 -76 -101 -76 -70 -65.5 c 128,-1,23
 -39 -55 -39 -55 3 -55 c 0,0,1
EndSplineSet
EndChar

StartChar: dieresis.cap
Encoding: 65537 -1 129
Width: 0
Flags: W
LayerCount: 2
Fore
SplineSet
252 1711 m 0,0,1
 180 1711 180 1711 138.5 1752.5 c 128,-1,2
 97 1794 97 1794 97 1860 c 0,3,4
 97 1927 97 1927 138.5 1969 c 128,-1,5
 180 2011 180 2011 252 2011 c 0,6,7
 325 2011 325 2011 367.5 1969 c 128,-1,8
 410 1927 410 1927 410 1860 c 0,9,10
 410 1827 410 1827 399 1800 c 128,-1,11
 388 1773 388 1773 367.5 1753 c 128,-1,12
 347 1733 347 1733 317.5 1722 c 128,-1,13
 288 1711 288 1711 252 1711 c 0,0,1
-252 1711 m 0,14,15
 -287 1711 -287 1711 -315.5 1722 c 128,-1,16
 -344 1733 -344 1733 -364.5 1752.5 c 128,-1,17
 -385 1772 -385 1772 -396 1799.5 c 128,-1,18
 -407 1827 -407 1827 -407 1860 c 0,19,20
 -407 1929 -407 1929 -364.5 1970 c 128,-1,21
 -322 2011 -322 2011 -252 2011 c 0,22,23
 -178 2011 -178 2011 -135 1970 c 128,-1,24
 -92 1929 -92 1929 -92 1860 c 0,25,26
 -92 1827 -92 1827 -103 1799.5 c 128,-1,27
 -114 1772 -114 1772 -135 1752.5 c 128,-1,28
 -156 1733 -156 1733 -185.5 1722 c 128,-1,29
 -215 1711 -215 1711 -252 1711 c 0,14,15
EndSplineSet
EndChar

StartChar: acute.cap
Encoding: 65538 -1 130
Width: 0
Flags: W
LayerCount: 2
Fore
SplineSet
125 2012 m 1,0,-1
 408 2012 l 1,1,-1
 144 1711 l 1,2,-1
 -71 1711 l 1,3,-1
 125 2012 l 1,0,-1
EndSplineSet
EndChar

StartChar: grave.cap
Encoding: 65539 -1 131
Width: 0
Flags: W
LayerCount: 2
Fore
SplineSet
-144 1711 m 1,0,-1
 -408 2012 l 1,1,-1
 -125 2012 l 1,2,-1
 71 1711 l 1,3,-1
 -144 1711 l 1,0,-1
EndSplineSet
EndChar

StartChar: tilde.cap
Encoding: 65540 -1 132
Width: 0
Flags: W
LayerCount: 2
Fore
SplineSet
137 1696 m 0,0,1
 86 1696 86 1696 49.5 1713.5 c 128,-1,2
 13 1731 13 1731 -18.5 1752.5 c 128,-1,3
 -50 1774 -50 1774 -82 1791.5 c 128,-1,4
 -114 1809 -114 1809 -157 1809 c 0,5,6
 -198 1809 -198 1809 -231 1786 c 128,-1,7
 -264 1763 -264 1763 -279 1711 c 1,8,-1
 -384 1711 l 1,9,10
 -372 1793 -372 1793 -348 1850.5 c 128,-1,11
 -324 1908 -324 1908 -291.5 1943.5 c 128,-1,12
 -259 1979 -259 1979 -219.5 1995 c 128,-1,13
 -180 2011 -180 2011 -136 2011 c 0,14,15
 -85 2011 -85 2011 -49 1993.5 c 128,-1,16
 -13 1976 -13 1976 18.5 1954.5 c 128,-1,17
 50 1933 50 1933 82 1915.5 c 128,-1,18
 114 1898 114 1898 157 1898 c 0,19,20
 198 1898 198 1898 231 1921 c 128,-1,21
 264 1944 264 1944 279 1996 c 1,22,-1
 384 1996 l 1,23,24
 372 1913 372 1913 348 1856 c 128,-1,25
 324 1799 324 1799 291.5 1763.5 c 128,-1,26
 259 1728 259 1728 219.5 1712 c 128,-1,27
 180 1696 180 1696 137 1696 c 0,0,1
EndSplineSet
EndChar

StartChar: circumflex.cap
Encoding: 65541 -1 133
Width: 0
Flags: W
LayerCount: 2
Fore
SplineSet
0 1863 m 1,0,-1
 -179 1711 l 1,1,-1
 -382 1711 l 1,2,-1
 -107 2040 l 1,3,-1
 107 2040 l 1,4,-1
 382 1711 l 1,5,-1
 179 1711 l 1,6,-1
 0 1863 l 1,0,-1
EndSplineSet
EndChar

StartChar: caron.cap
Encoding: 65542 -1 134
Width: 0
Flags: W
LayerCount: 2
Fore
SplineSet
-382 2040 m 1,0,-1
 -168 2040 l 1,1,-1
 0 1889 l 1,2,-1
 168 2040 l 1,3,-1
 382 2040 l 1,4,-1
 107 1711 l 1,5,-1
 -107 1711 l 1,6,-1
 -382 2040 l 1,0,-1
EndSplineSet
EndChar

StartChar: macron.cap
Encoding: 65543 -1 135
Width: 0
Flags: W
LayerCount: 2
Fore
SplineSet
-353 1767 m 1,0,-1
 -353 1957 l 1,1,-1
 353 1957 l 1,2,-1
 353 1767 l 1,3,-1
 -353 1767 l 1,0,-1
EndSplineSet
EndChar

StartChar: ring.cap
Encoding: 65544 -1 136
Width: 0
Flags: W
LayerCount: 2
Fore
SplineSet
0 1464 m 256,0,1
 -64 1464 -64 1464 -117.5 1484 c 128,-1,2
 -171 1504 -171 1504 -210 1540.5 c 128,-1,3
 -249 1577 -249 1577 -270.5 1628 c 128,-1,4
 -292 1679 -292 1679 -292 1740 c 256,5,6
 -292 1801 -292 1801 -270.5 1852 c 128,-1,7
 -249 1903 -249 1903 -210 1939.5 c 128,-1,8
 -171 1976 -171 1976 -117.5 1996 c 128,-1,9
 -64 2016 -64 2016 0 2016 c 256,10,11
 64 2016 64 2016 117.5 1996 c 128,-1,12
 171 1976 171 1976 210 1939.5 c 128,-1,13
 249 1903 249 1903 270.5 1852 c 128,-1,14
 292 1801 292 1801 292 1740 c 256,15,16
 292 1679 292 1679 270.5 1628 c 128,-1,17
 249 1577 249 1577 210 1540.5 c 128,-1,18
 171 1504 171 1504 117.5 1484 c 128,-1,19
 64 1464 64 1464 0 1464 c 256,0,1
0 1606 m 256,20,21
 48 1606 48 1606 81 1639 c 128,-1,22
 114 1672 114 1672 114 1740 c 256,23,24
 114 1808 114 1808 81.5 1840.5 c 128,-1,25
 49 1873 49 1873 0 1873 c 0,26,27
 -47 1873 -47 1873 -80 1840 c 128,-1,28
 -113 1807 -113 1807 -113 1740 c 0,29,30
 -113 1672 -113 1672 -80.5 1639 c 128,-1,31
 -48 1606 -48 1606 0 1606 c 256,20,21
EndSplineSet
EndChar

StartChar: section
Encoding: 167 167 137
Width: 1295
Flags: W
LayerCount: 2
Fore
SplineSet
246 -56 m 1,0,1
 333 -116 333 -116 414 -140 c 128,-1,2
 495 -164 495 -164 571 -164 c 0,3,4
 640 -164 640 -164 685.5 -148 c 128,-1,5
 731 -132 731 -132 758.5 -107 c 128,-1,6
 786 -82 786 -82 797.5 -50.5 c 128,-1,7
 809 -19 809 -19 809 13 c 0,8,9
 809 65 809 65 782 108.5 c 128,-1,10
 755 152 755 152 711 190.5 c 128,-1,11
 667 229 667 229 610.5 265.5 c 128,-1,12
 554 302 554 302 495.5 340 c 128,-1,13
 437 378 437 378 380.5 420.5 c 128,-1,14
 324 463 324 463 280 514.5 c 128,-1,15
 236 566 236 566 209 628 c 128,-1,16
 182 690 182 690 182 767 c 0,17,18
 182 828 182 828 200 882 c 128,-1,19
 218 936 218 936 250 981 c 128,-1,20
 282 1026 282 1026 327.5 1062.5 c 128,-1,21
 373 1099 373 1099 429 1125 c 1,22,23
 389 1158 389 1158 354.5 1195 c 128,-1,24
 320 1232 320 1232 294.5 1276 c 128,-1,25
 269 1320 269 1320 254 1371.5 c 128,-1,26
 239 1423 239 1423 239 1485 c 0,27,28
 239 1577 239 1577 272.5 1652 c 128,-1,29
 306 1727 306 1727 365 1780 c 128,-1,30
 424 1833 424 1833 505.5 1861.5 c 128,-1,31
 587 1890 587 1890 683 1890 c 0,32,33
 758 1890 758 1890 833.5 1873.5 c 128,-1,34
 909 1857 909 1857 966 1829 c 1,35,-1
 964 1593 l 1,36,37
 892 1639 892 1639 828 1659 c 128,-1,38
 764 1679 764 1679 701 1679 c 0,39,40
 645 1679 645 1679 604 1664.5 c 128,-1,41
 563 1650 563 1650 536.5 1625 c 128,-1,42
 510 1600 510 1600 497 1567 c 128,-1,43
 484 1534 484 1534 484 1497 c 0,44,45
 484 1440 484 1440 511 1393.5 c 128,-1,46
 538 1347 538 1347 582.5 1307 c 128,-1,47
 627 1267 627 1267 683.5 1230.5 c 128,-1,48
 740 1194 740 1194 798.5 1156 c 128,-1,49
 857 1118 857 1118 913.5 1076.5 c 128,-1,50
 970 1035 970 1035 1014.5 984.5 c 128,-1,51
 1059 934 1059 934 1086 872 c 128,-1,52
 1113 810 1113 810 1113 732 c 0,53,54
 1113 613 1113 613 1048.5 520.5 c 128,-1,55
 984 428 984 428 868 371 c 1,56,57
 907 341 907 341 941.5 306 c 128,-1,58
 976 271 976 271 1001.5 230 c 128,-1,59
 1027 189 1027 189 1041.5 140 c 128,-1,60
 1056 91 1056 91 1056 32 c 0,61,62
 1056 -56 1056 -56 1023.5 -130.5 c 128,-1,63
 991 -205 991 -205 930 -259.5 c 128,-1,64
 869 -314 869 -314 782.5 -345 c 128,-1,65
 696 -376 696 -376 588 -376 c 0,66,67
 544 -376 544 -376 497.5 -371 c 128,-1,68
 451 -366 451 -366 405.5 -356 c 128,-1,69
 360 -346 360 -346 319 -331.5 c 128,-1,70
 278 -317 278 -317 245 -298 c 1,71,-1
 246 -56 l 1,0,1
707 478 m 1,72,73
 793 518 793 518 829.5 574.5 c 128,-1,74
 866 631 866 631 866 693 c 0,75,76
 866 748 866 748 841.5 792.5 c 128,-1,77
 817 837 817 837 776 876 c 128,-1,78
 735 915 735 915 682 950.5 c 128,-1,79
 629 986 629 986 573 1022 c 1,80,81
 503 992 503 992 465 933.5 c 128,-1,82
 427 875 427 875 427 803 c 0,83,84
 427 746 427 746 450.5 700.5 c 128,-1,85
 474 655 474 655 513 616.5 c 128,-1,86
 552 578 552 578 602.5 544.5 c 128,-1,87
 653 511 653 511 707 478 c 1,72,73
EndSplineSet
EndChar

StartChar: paragraph
Encoding: 182 182 138
Width: 1823
Flags: W
LayerCount: 2
Fore
SplineSet
812 583 m 1,0,1
 672 576 672 576 561.5 613.5 c 128,-1,2
 451 651 451 651 375 720.5 c 128,-1,3
 299 790 299 790 259 885 c 128,-1,4
 219 980 219 980 219 1089 c 0,5,6
 219 1195 219 1195 251.5 1285 c 128,-1,7
 284 1375 284 1375 355 1439.5 c 128,-1,8
 426 1504 426 1504 538 1540.5 c 128,-1,9
 650 1577 650 1577 809 1577 c 0,10,11
 833 1577 833 1577 869 1576 c 128,-1,12
 905 1575 905 1575 948 1574.5 c 128,-1,13
 991 1574 991 1574 1038 1573 c 128,-1,14
 1085 1572 1085 1572 1131 1572 c 2,15,-1
 1745 1572 l 1,16,-1
 1745 1359 l 1,17,-1
 1540 1359 l 1,18,-1
 1540 -290 l 1,19,-1
 1295 -290 l 1,20,-1
 1295 1359 l 1,21,-1
 1057 1359 l 1,22,-1
 1057 -290 l 1,23,-1
 815 -290 l 1,24,-1
 812 583 l 1,0,1
EndSplineSet
EndChar

StartChar: ldot
Encoding: 320 320 151
Width: 897
Flags: W
LayerCount: 2
Fore
SplineSet
741 621 m 0,0,1
 705 621 705 621 676 632 c 128,-1,2
 647 643 647 643 626 663 c 128,-1,3
 605 683 605 683 594 711 c 128,-1,4
 583 739 583 739 583 773 c 256,5,6
 583 807 583 807 594 835 c 128,-1,7
 605 863 605 863 626 883 c 128,-1,8
 647 903 647 903 676 914 c 128,-1,9
 705 925 705 925 741 925 c 0,10,11
 815 925 815 925 858.5 883 c 128,-1,12
 902 841 902 841 902 773 c 256,13,14
 902 705 902 705 858.5 663 c 128,-1,15
 815 621 815 621 741 621 c 0,0,1
170 1711 m 1,16,-1
 409 1711 l 1,17,-1
 409 0 l 1,18,-1
 170 0 l 1,19,-1
 170 1711 l 1,16,-1
EndSplineSet
EndChar

StartChar: Aring
Encoding: 197 197 170
Width: 1271
Flags: W
LayerCount: 2
Fore
SplineSet
445 1520 m 1,0,1
 394 1556 394 1556 365.5 1612.5 c 128,-1,2
 337 1669 337 1669 337 1740 c 0,3,4
 337 1801 337 1801 358.5 1852 c 128,-1,5
 380 1903 380 1903 419 1939.5 c 128,-1,6
 458 1976 458 1976 511.5 1996 c 128,-1,7
 565 2016 565 2016 629 2016 c 256,8,9
 693 2016 693 2016 746.5 1996 c 128,-1,10
 800 1976 800 1976 839 1939.5 c 128,-1,11
 878 1903 878 1903 899.5 1852 c 128,-1,12
 921 1801 921 1801 921 1740 c 0,13,14
 921 1666 921 1666 890.5 1608.5 c 128,-1,15
 860 1551 860 1551 806 1514 c 1,16,-1
 1248 0 l 1,17,-1
 988 0 l 1,18,-1
 884 392 l 1,19,-1
 380 392 l 1,20,-1
 282 0 l 1,21,-1
 23 0 l 1,22,-1
 445 1520 l 1,0,1
629 1606 m 256,23,24
 677 1606 677 1606 710 1639 c 128,-1,25
 743 1672 743 1672 743 1740 c 256,26,27
 743 1808 743 1808 710.5 1840.5 c 128,-1,28
 678 1873 678 1873 629 1873 c 0,29,30
 582 1873 582 1873 549 1840 c 128,-1,31
 516 1807 516 1807 516 1740 c 0,32,33
 516 1672 516 1672 548.5 1639 c 128,-1,34
 581 1606 581 1606 629 1606 c 256,23,24
832 585 m 1,35,-1
 640 1309 l 1,36,-1
 611 1309 l 1,37,-1
 429 585 l 1,38,-1
 832 585 l 1,35,-1
EndSplineSet
EndChar

StartChar: ccedilla
Encoding: 231 231 196
Width: 960
Flags: W
LayerCount: 2
Fore
SplineSet
444 -2 m 1,0,1
 362 21 362 21 295.5 69 c 128,-1,2
 229 117 229 117 182.5 188.5 c 128,-1,3
 136 260 136 260 110.5 354 c 128,-1,4
 85 448 85 448 85 564 c 0,5,6
 85 708 85 708 120 818.5 c 128,-1,7
 155 929 155 929 222.5 1004 c 128,-1,8
 290 1079 290 1079 387 1118 c 128,-1,9
 484 1157 484 1157 609 1157 c 0,10,11
 690 1157 690 1157 757 1142.5 c 128,-1,12
 824 1128 824 1128 883 1099 c 1,13,-1
 882 865 l 1,14,15
 822 923 822 923 755 943.5 c 128,-1,16
 688 964 688 964 619 964 c 0,17,18
 479 964 479 964 407.5 869 c 128,-1,19
 336 774 336 774 336 575 c 0,20,21
 336 367 336 367 412.5 266 c 128,-1,22
 489 165 489 165 635 165 c 0,23,24
 707 165 707 165 770.5 188.5 c 128,-1,25
 834 212 834 212 891 263 c 1,26,-1
 891 60 l 1,27,28
 822 18 822 18 755.5 -1.5 c 128,-1,29
 689 -21 689 -21 610 -23 c 1,30,-1
 598 -108 l 1,31,32
 698 -110 698 -110 753 -152.5 c 128,-1,33
 808 -195 808 -195 808 -276 c 0,34,35
 808 -327 808 -327 783 -371 c 128,-1,36
 758 -415 758 -415 705.5 -448 c 128,-1,37
 653 -481 653 -481 573 -499.5 c 128,-1,38
 493 -518 493 -518 382 -518 c 1,39,-1
 382 -382 l 1,40,41
 499 -378 499 -378 552 -350.5 c 128,-1,42
 605 -323 605 -323 605 -283 c 0,43,44
 605 -251 605 -251 584.5 -232 c 128,-1,45
 564 -213 564 -213 513 -213 c 0,46,47
 449 -213 449 -213 390 -238 c 1,48,-1
 444 -2 l 1,49,-1
 444 -2 l 1,0,1
EndSplineSet
EndChar

StartChar: Eth
Encoding: 208 208 198
Width: 1359
Flags: W
LayerCount: 2
Fore
SplineSet
214 693 m 1,0,-1
 74 693 l 1,1,-1
 74 895 l 1,2,-1
 214 895 l 1,3,-1
 214 1571 l 1,4,5
 247 1571 247 1571 286.5 1572 c 128,-1,6
 326 1573 326 1573 367.5 1574 c 128,-1,7
 409 1575 409 1575 448 1576 c 128,-1,8
 487 1577 487 1577 519 1577 c 0,9,10
 732 1577 732 1577 876.5 1527 c 128,-1,11
 1021 1477 1021 1477 1109.5 1380 c 128,-1,12
 1198 1283 1198 1283 1236.5 1139.5 c 128,-1,13
 1275 996 1275 996 1275 809 c 0,14,15
 1275 613 1275 613 1233.5 461 c 128,-1,16
 1192 309 1192 309 1099.5 205 c 128,-1,17
 1007 101 1007 101 858 47 c 128,-1,18
 709 -7 709 -7 495 -7 c 0,19,20
 423 -7 423 -7 357 -3.5 c 128,-1,21
 291 0 291 0 214 0 c 1,22,-1
 214 693 l 1,0,-1
459 197 m 1,23,24
 478 195 478 195 495.5 194.5 c 128,-1,25
 513 194 513 194 538 194 c 0,26,27
 675 194 675 194 768.5 229.5 c 128,-1,28
 862 265 862 265 919 339 c 128,-1,29
 976 413 976 413 1001 527.5 c 128,-1,30
 1026 642 1026 642 1026 801 c 0,31,32
 1026 958 1026 958 1001 1067.5 c 128,-1,33
 976 1177 976 1177 918.5 1246 c 128,-1,34
 861 1315 861 1315 765.5 1346 c 128,-1,35
 670 1377 670 1377 529 1377 c 0,36,37
 506 1377 506 1377 490.5 1376.5 c 128,-1,38
 475 1376 475 1376 459 1375 c 1,39,-1
 459 895 l 1,40,-1
 780 895 l 1,41,-1
 780 693 l 1,42,-1
 459 693 l 1,43,-1
 459 197 l 1,23,24
EndSplineSet
EndChar

StartChar: Ccedilla
Encoding: 199 199 201
Width: 1129
Flags: W
LayerCount: 2
Fore
SplineSet
608 -7 m 1,0,1
 497 16 497 16 406 76 c 128,-1,2
 315 136 315 136 250.5 235 c 128,-1,3
 186 334 186 334 151 472 c 128,-1,4
 116 610 116 610 116 790 c 0,5,6
 116 997 116 997 160 1148.5 c 128,-1,7
 204 1300 204 1300 284 1399 c 128,-1,8
 364 1498 364 1498 476 1545.5 c 128,-1,9
 588 1593 588 1593 725 1593 c 0,10,11
 775 1593 775 1593 824 1587.5 c 128,-1,12
 873 1582 873 1582 916.5 1572.5 c 128,-1,13
 960 1563 960 1563 995.5 1549.5 c 128,-1,14
 1031 1536 1031 1536 1054 1520 c 1,15,-1
 1054 1276 l 1,16,17
 991 1333 991 1333 913.5 1359.5 c 128,-1,18
 836 1386 836 1386 752 1386 c 0,19,20
 666 1386 666 1386 594.5 1352.5 c 128,-1,21
 523 1319 523 1319 472 1247 c 128,-1,22
 421 1175 421 1175 393 1062.5 c 128,-1,23
 365 950 365 950 365 792 c 0,24,25
 365 633 365 633 394 518 c 128,-1,26
 423 403 423 403 478 329 c 128,-1,27
 533 255 533 255 611 220 c 128,-1,28
 689 185 689 185 787 185 c 0,29,30
 859 185 859 185 931 205.5 c 128,-1,31
 1003 226 1003 226 1060 276 c 1,32,-1
 1060 52 l 1,33,34
 1013 21 1013 21 941 0.5 c 128,-1,35
 869 -20 869 -20 775 -22 c 1,36,-1
 763 -108 l 1,37,38
 863 -110 863 -110 918 -152.5 c 128,-1,39
 973 -195 973 -195 973 -276 c 0,40,41
 973 -327 973 -327 948 -371 c 128,-1,42
 923 -415 923 -415 870.5 -448 c 128,-1,43
 818 -481 818 -481 738 -499.5 c 128,-1,44
 658 -518 658 -518 547 -518 c 1,45,-1
 547 -382 l 1,46,47
 664 -378 664 -378 717 -350.5 c 128,-1,48
 770 -323 770 -323 770 -283 c 0,49,50
 770 -251 770 -251 749.5 -232 c 128,-1,51
 729 -213 729 -213 678 -213 c 0,52,53
 614 -213 614 -213 555 -238 c 1,54,-1
 608 -7 l 1,0,1
EndSplineSet
EndChar

StartChar: Oslash
Encoding: 216 216 203
Width: 1347
Flags: W
LayerCount: 2
Fore
SplineSet
313 119 m 1,0,1
 215 216 215 216 160 381 c 128,-1,2
 105 546 105 546 105 787 c 0,3,4
 105 995 105 995 147.5 1147 c 128,-1,5
 190 1299 190 1299 265.5 1398 c 128,-1,6
 341 1497 341 1497 445.5 1545 c 128,-1,7
 550 1593 550 1593 674 1593 c 0,8,9
 746 1593 746 1593 811.5 1577 c 128,-1,10
 877 1561 877 1561 935 1528 c 1,11,-1
 1010 1697 l 1,12,-1
 1166 1697 l 1,13,-1
 1050 1436 l 1,14,15
 1140 1338 1140 1338 1191.5 1177 c 128,-1,16
 1243 1016 1243 1016 1243 787 c 0,17,18
 1243 578 1243 578 1200.5 425.5 c 128,-1,19
 1158 273 1158 273 1082 173.5 c 128,-1,20
 1006 74 1006 74 901.5 26 c 128,-1,21
 797 -22 797 -22 674 -22 c 0,22,23
 538 -22 538 -22 428 34 c 1,24,-1
 337 -171 l 1,25,-1
 185 -171 l 1,26,-1
 313 119 l 1,0,1
843 1319 m 1,27,28
 805 1355 805 1355 762.5 1372.5 c 128,-1,29
 720 1390 720 1390 674 1390 c 0,30,31
 610 1390 610 1390 552 1356 c 128,-1,32
 494 1322 494 1322 449.5 1249 c 128,-1,33
 405 1176 405 1176 379 1061.5 c 128,-1,34
 353 947 353 947 353 785 c 0,35,36
 353 648 353 648 372 545.5 c 128,-1,37
 391 443 391 443 424 371 c 1,38,-1
 843 1319 l 1,27,28
520 241 m 1,39,40
 555 212 555 212 593.5 198.5 c 128,-1,41
 632 185 632 185 674 185 c 0,42,43
 738 185 738 185 796 218.5 c 128,-1,44
 854 252 854 252 898 324 c 128,-1,45
 942 396 942 396 968 510 c 128,-1,46
 994 624 994 624 994 785 c 0,47,48
 994 911 994 911 978.5 1007 c 128,-1,49
 963 1103 963 1103 934 1175 c 1,50,-1
 520 241 l 1,39,40
EndSplineSet
EndChar

StartChar: lslash
Encoding: 322 322 204
Width: 581
Flags: W
LayerCount: 2
Fore
SplineSet
170 734 m 1,0,-1
 23 659 l 1,1,-1
 23 837 l 1,2,-1
 170 912 l 1,3,-1
 170 1711 l 1,4,-1
 409 1711 l 1,5,-1
 409 1034 l 1,6,-1
 562 1113 l 1,7,-1
 562 935 l 1,8,-1
 409 856 l 1,9,-1
 409 0 l 1,10,-1
 170 0 l 1,11,-1
 170 734 l 1,0,-1
EndSplineSet
EndChar

StartChar: Lslash
Encoding: 321 321 205
Width: 994
Flags: W
LayerCount: 2
Fore
SplineSet
214 631 m 1,0,-1
 25 534 l 1,1,-1
 25 711 l 1,2,-1
 214 809 l 1,3,-1
 214 1571 l 1,4,-1
 459 1571 l 1,5,-1
 459 936 l 1,6,-1
 755 1089 l 1,7,-1
 755 911 l 1,8,-1
 459 758 l 1,9,-1
 459 202 l 1,10,-1
 940 202 l 1,11,-1
 940 0 l 1,12,-1
 214 0 l 1,13,-1
 214 631 l 1,0,-1
EndSplineSet
EndChar

StartChar: ellipsis
Encoding: 8230 8230 206
Width: 2199
Flags: W
LayerCount: 2
Fore
SplineSet
1637 164 m 0,0,1
 1637 206 1637 206 1650.5 240 c 128,-1,2
 1664 274 1664 274 1689.5 298.5 c 128,-1,3
 1715 323 1715 323 1751 336.5 c 128,-1,4
 1787 350 1787 350 1831 350 c 0,5,6
 1876 350 1876 350 1912.5 336.5 c 128,-1,7
 1949 323 1949 323 1974.5 298.5 c 128,-1,8
 2000 274 2000 274 2014 240 c 128,-1,9
 2028 206 2028 206 2028 164 c 0,10,11
 2028 123 2028 123 2014 88.5 c 128,-1,12
 2000 54 2000 54 1974.5 29.5 c 128,-1,13
 1949 5 1949 5 1912.5 -8.5 c 128,-1,14
 1876 -22 1876 -22 1831 -22 c 0,15,16
 1787 -22 1787 -22 1751 -8.5 c 128,-1,17
 1715 5 1715 5 1689.5 29.5 c 128,-1,18
 1664 54 1664 54 1650.5 88.5 c 128,-1,19
 1637 123 1637 123 1637 164 c 0,0,1
904 164 m 0,20,21
 904 206 904 206 917.5 240 c 128,-1,22
 931 274 931 274 956.5 298.5 c 128,-1,23
 982 323 982 323 1018 336.5 c 128,-1,24
 1054 350 1054 350 1098 350 c 0,25,26
 1143 350 1143 350 1179.5 336.5 c 128,-1,27
 1216 323 1216 323 1241.5 298.5 c 128,-1,28
 1267 274 1267 274 1281 240 c 128,-1,29
 1295 206 1295 206 1295 164 c 0,30,31
 1295 123 1295 123 1281 88.5 c 128,-1,32
 1267 54 1267 54 1241.5 29.5 c 128,-1,33
 1216 5 1216 5 1179.5 -8.5 c 128,-1,34
 1143 -22 1143 -22 1098 -22 c 0,35,36
 1054 -22 1054 -22 1018 -8.5 c 128,-1,37
 982 5 982 5 956.5 29.5 c 128,-1,38
 931 54 931 54 917.5 88.5 c 128,-1,39
 904 123 904 123 904 164 c 0,20,21
171 164 m 0,40,41
 171 206 171 206 184.5 240 c 128,-1,42
 198 274 198 274 223.5 298.5 c 128,-1,43
 249 323 249 323 285 336.5 c 128,-1,44
 321 350 321 350 365 350 c 0,45,46
 410 350 410 350 446.5 336.5 c 128,-1,47
 483 323 483 323 508.5 298.5 c 128,-1,48
 534 274 534 274 548 240 c 128,-1,49
 562 206 562 206 562 164 c 0,50,51
 562 123 562 123 548 88.5 c 128,-1,52
 534 54 534 54 508.5 29.5 c 128,-1,53
 483 5 483 5 446.5 -8.5 c 128,-1,54
 410 -22 410 -22 365 -22 c 0,55,56
 321 -22 321 -22 285 -8.5 c 128,-1,57
 249 5 249 5 223.5 29.5 c 128,-1,58
 198 54 198 54 184.5 88.5 c 128,-1,59
 171 123 171 123 171 164 c 0,40,41
EndSplineSet
EndChar

StartChar: eth
Encoding: 240 240 207
Width: 1189
Flags: W
LayerCount: 2
Fore
SplineSet
85 559 m 0,0,1
 85 690 85 690 120 793.5 c 128,-1,2
 155 897 155 897 216.5 968.5 c 128,-1,3
 278 1040 278 1040 360.5 1077.5 c 128,-1,4
 443 1115 443 1115 538 1115 c 0,5,6
 643 1115 643 1115 727 1070.5 c 128,-1,7
 811 1026 811 1026 864 945 c 1,8,9
 837 1077 837 1077 772 1182.5 c 128,-1,10
 707 1288 707 1288 607 1366 c 1,11,-1
 377 1189 l 1,12,-1
 377 1367 l 1,13,-1
 481 1446 l 1,14,15
 389 1493 389 1493 279 1522 c 1,16,-1
 279 1711 l 1,17,18
 384 1688 384 1688 475 1653.5 c 128,-1,19
 566 1619 566 1619 645 1572 c 1,20,-1
 860 1737 l 1,21,-1
 860 1560 l 1,22,-1
 765 1487 l 1,23,24
 933 1348 933 1348 1018.5 1144.5 c 128,-1,25
 1104 941 1104 941 1104 677 c 0,26,27
 1104 493 1104 493 1064 361 c 128,-1,28
 1024 229 1024 229 954.5 143.5 c 128,-1,29
 885 58 885 58 790.5 17.5 c 128,-1,30
 696 -23 696 -23 588 -23 c 0,31,32
 474 -23 474 -23 381.5 18.5 c 128,-1,33
 289 60 289 60 223 136 c 128,-1,34
 157 212 157 212 121 319.5 c 128,-1,35
 85 427 85 427 85 559 c 0,0,1
597 164 m 0,36,37
 670 164 670 164 726.5 203 c 128,-1,38
 783 242 783 242 817.5 314 c 128,-1,39
 852 386 852 386 862 488.5 c 128,-1,40
 872 591 872 591 854 719 c 1,41,42
 835 766 835 766 807 804.5 c 128,-1,43
 779 843 779 843 743.5 870.5 c 128,-1,44
 708 898 708 898 666 913 c 128,-1,45
 624 928 624 928 579 928 c 0,46,47
 515 928 515 928 468 899 c 128,-1,48
 421 870 421 870 390.5 819.5 c 128,-1,49
 360 769 360 769 345 700 c 128,-1,50
 330 631 330 631 330 551 c 0,51,52
 330 457 330 457 350 384.5 c 128,-1,53
 370 312 370 312 405.5 263 c 128,-1,54
 441 214 441 214 490 189 c 128,-1,55
 539 164 539 164 597 164 c 0,36,37
EndSplineSet
EndChar

StartChar: quoteright
Encoding: 8217 8217 208
Width: 765
Flags: W
LayerCount: 2
Fore
SplineSet
217 1096 m 1,0,1
 268 1111 268 1111 300.5 1136 c 128,-1,2
 333 1161 333 1161 351 1193 c 128,-1,3
 369 1225 369 1225 376 1262.5 c 128,-1,4
 383 1300 383 1300 383 1342 c 1,5,6
 287 1342 287 1342 233.5 1392 c 128,-1,7
 180 1442 180 1442 180 1524 c 0,8,9
 180 1564 180 1564 194 1597.5 c 128,-1,10
 208 1631 208 1631 234 1655.5 c 128,-1,11
 260 1680 260 1680 296 1693.5 c 128,-1,12
 332 1707 332 1707 377 1707 c 0,13,14
 425 1707 425 1707 465.5 1690.5 c 128,-1,15
 506 1674 506 1674 535 1639.5 c 128,-1,16
 564 1605 564 1605 580 1551.5 c 128,-1,17
 596 1498 596 1498 596 1425 c 0,18,19
 596 1343 596 1343 574 1263 c 128,-1,20
 552 1183 552 1183 506 1117 c 128,-1,21
 460 1051 460 1051 388.5 1005 c 128,-1,22
 317 959 317 959 217 945 c 1,23,-1
 217 1096 l 1,0,1
EndSplineSet
EndChar

StartChar: quotesinglbase
Encoding: 8218 8218 210
Width: 779
Flags: W
LayerCount: 2
Fore
SplineSet
182 188 m 0,0,1
 182 229 182 229 196.5 263 c 128,-1,2
 211 297 211 297 237.5 321.5 c 128,-1,3
 264 346 264 346 301 359.5 c 128,-1,4
 338 373 338 373 384 373 c 0,5,6
 433 373 433 373 474 356.5 c 128,-1,7
 515 340 515 340 545 305 c 128,-1,8
 575 270 575 270 591.5 216 c 128,-1,9
 608 162 608 162 608 87 c 0,10,11
 608 3 608 3 585.5 -79 c 128,-1,12
 563 -161 563 -161 516 -228 c 128,-1,13
 469 -295 469 -295 395 -342 c 128,-1,14
 321 -389 321 -389 219 -402 c 1,15,-1
 219 -250 l 1,16,17
 272 -235 272 -235 305.5 -209.5 c 128,-1,18
 339 -184 339 -184 357.5 -151.5 c 128,-1,19
 376 -119 376 -119 383 -80 c 128,-1,20
 390 -41 390 -41 390 1 c 1,21,22
 342 1 342 1 303.5 14.5 c 128,-1,23
 265 28 265 28 238 52.5 c 128,-1,24
 211 77 211 77 196.5 111.5 c 128,-1,25
 182 146 182 146 182 188 c 0,0,1
EndSplineSet
EndChar

StartChar: asciitilde
Encoding: 126 126 214
Width: 1316
Flags: W
LayerCount: 2
Fore
SplineSet
171 670 m 1,0,1
 173 754 173 754 202 811 c 128,-1,2
 231 868 231 868 276 903.5 c 128,-1,3
 321 939 321 939 376.5 954.5 c 128,-1,4
 432 970 432 970 486 970 c 0,5,6
 551 970 551 970 596 952.5 c 128,-1,7
 641 935 641 935 679.5 913.5 c 128,-1,8
 718 892 718 892 757.5 874.5 c 128,-1,9
 797 857 797 857 852 857 c 0,10,11
 877 857 877 857 901 862 c 128,-1,12
 925 867 925 867 946.5 878 c 128,-1,13
 968 889 968 889 986 908 c 128,-1,14
 1004 927 1004 927 1017 955 c 1,15,-1
 1145 955 l 1,16,17
 1143 872 1143 872 1114 814.5 c 128,-1,18
 1085 757 1085 757 1040 721.5 c 128,-1,19
 995 686 995 686 939.5 670.5 c 128,-1,20
 884 655 884 655 830 655 c 0,21,22
 786 655 786 655 752 663.5 c 128,-1,23
 718 672 718 672 690 684.5 c 128,-1,24
 662 697 662 697 636.5 711.5 c 128,-1,25
 611 726 611 726 585 738.5 c 128,-1,26
 559 751 559 751 530 759.5 c 128,-1,27
 501 768 501 768 464 768 c 0,28,29
 439 768 439 768 415 763.5 c 128,-1,30
 391 759 391 759 369.5 747.5 c 128,-1,31
 348 736 348 736 330 717 c 128,-1,32
 312 698 312 698 299 670 c 1,33,-1
 171 670 l 1,34,-1
 171 670 l 1,0,1
EndSplineSet
EndChar

StartChar: OE
Encoding: 338 338 215
Width: 1741
Flags: W
LayerCount: 2
Fore
SplineSet
674 -22 m 0,0,1
 550 -22 550 -22 445.5 26 c 128,-1,2
 341 74 341 74 265.5 173.5 c 128,-1,3
 190 273 190 273 147.5 425 c 128,-1,4
 105 577 105 577 105 785 c 0,5,6
 105 995 105 995 147.5 1147.5 c 128,-1,7
 190 1300 190 1300 265.5 1399 c 128,-1,8
 341 1498 341 1498 445.5 1545.5 c 128,-1,9
 550 1593 550 1593 674 1593 c 0,10,11
 716 1593 716 1593 755 1587.5 c 128,-1,12
 794 1582 794 1582 831 1571 c 1,13,-1
 1639 1571 l 1,14,-1
 1639 1373 l 1,15,-1
 1050 1373 l 1,16,-1
 1050 939 l 1,17,-1
 1501 939 l 1,18,-1
 1501 742 l 1,19,-1
 1050 742 l 1,20,-1
 1050 202 l 1,21,-1
 1686 202 l 1,22,-1
 1686 0 l 1,23,-1
 832 0 l 1,24,25
 794 -11 794 -11 755 -16.5 c 128,-1,26
 716 -22 716 -22 674 -22 c 0,0,1
674 185 m 0,27,28
 708 185 708 185 740.5 192.5 c 128,-1,29
 773 200 773 200 803 219 c 1,30,-1
 803 1354 l 1,31,32
 773 1374 773 1374 740.5 1382 c 128,-1,33
 708 1390 708 1390 674 1390 c 0,34,35
 612 1390 612 1390 556 1356 c 128,-1,36
 500 1322 500 1322 457.5 1249 c 128,-1,37
 415 1176 415 1176 390 1061.5 c 128,-1,38
 365 947 365 947 365 785 c 0,39,40
 365 624 365 624 390 510 c 128,-1,41
 415 396 415 396 457.5 324 c 128,-1,42
 500 252 500 252 556 218.5 c 128,-1,43
 612 185 612 185 674 185 c 0,27,28
EndSplineSet
EndChar

StartChar: AE
Encoding: 198 198 216
Width: 1611
Flags: W
LayerCount: 2
Fore
SplineSet
486 1571 m 1,0,-1
 1509 1571 l 1,1,-1
 1509 1373 l 1,2,-1
 977 1373 l 1,3,-1
 977 939 l 1,4,-1
 1371 939 l 1,5,-1
 1371 742 l 1,6,-1
 977 742 l 1,7,-1
 977 202 l 1,8,-1
 1556 202 l 1,9,-1
 1556 0 l 1,10,-1
 730 0 l 1,11,-1
 730 392 l 1,12,-1
 334 392 l 1,13,-1
 207 0 l 1,14,-1
 -51 0 l 1,15,-1
 486 1571 l 1,0,-1
730 585 m 1,16,-1
 730 1373 l 1,17,-1
 652 1373 l 1,18,-1
 396 585 l 1,19,-1
 730 585 l 1,16,-1
EndSplineSet
EndChar

StartChar: Thorn
Encoding: 222 222 217
Width: 1288
Flags: W
LayerCount: 2
Fore
SplineSet
214 1571 m 1,0,-1
 462 1571 l 1,1,-1
 462 1279 l 1,2,-1
 596 1279 l 2,3,4
 762 1279 762 1279 878 1242.5 c 128,-1,5
 994 1206 994 1206 1066 1141 c 128,-1,6
 1138 1076 1138 1076 1170.5 986 c 128,-1,7
 1203 896 1203 896 1203 788 c 0,8,9
 1203 668 1203 668 1162.5 567.5 c 128,-1,10
 1122 467 1122 467 1033 398.5 c 128,-1,11
 944 330 944 330 803 298.5 c 128,-1,12
 662 267 662 267 462 285 c 1,13,-1
 462 0 l 1,14,-1
 214 0 l 1,15,-1
 214 1571 l 1,0,-1
462 495 m 1,16,17
 605 475 605 475 700 490 c 128,-1,18
 795 505 795 505 851.5 545.5 c 128,-1,19
 908 586 908 586 931 647 c 128,-1,20
 954 708 954 708 954 780 c 0,21,22
 954 854 954 854 929.5 913 c 128,-1,23
 905 972 905 972 847.5 1011 c 128,-1,24
 790 1050 790 1050 695.5 1065.5 c 128,-1,25
 601 1081 601 1081 462 1069 c 1,26,-1
 462 495 l 1,16,17
EndSplineSet
EndChar

StartChar: minus
Encoding: 8722 8722 218
Width: 1116
Flags: W
LayerCount: 2
Fore
SplineSet
205 860 m 1,0,-1
 911 860 l 1,1,-1
 911 646 l 1,2,-1
 205 646 l 1,3,-1
 205 860 l 1,0,-1
EndSplineSet
EndChar

StartChar: endash
Encoding: 8211 8211 219
Width: 1492
Flags: W
LayerCount: 2
Fore
SplineSet
205 860 m 1,0,-1
 1287 860 l 1,1,-1
 1287 646 l 1,2,-1
 205 646 l 1,3,-1
 205 860 l 1,0,-1
EndSplineSet
EndChar

StartChar: emdash
Encoding: 8212 8212 220
Width: 1914
Flags: W
LayerCount: 2
Fore
SplineSet
205 860 m 1,0,-1
 1709 860 l 1,1,-1
 1709 646 l 1,2,-1
 205 646 l 1,3,-1
 205 860 l 1,0,-1
EndSplineSet
EndChar

StartChar: asciicircum
Encoding: 94 94 221
Width: 1027
Flags: W
LayerCount: 2
Fore
SplineSet
394 1572 m 1,0,-1
 652 1572 l 1,1,-1
 1010 437 l 1,2,-1
 779 437 l 1,3,-1
 532 1312 l 1,4,-1
 513 1312 l 1,5,-1
 251 437 l 1,6,-1
 17 437 l 1,7,-1
 394 1572 l 1,0,-1
EndSplineSet
EndChar

StartChar: logicalnot
Encoding: 172 172 222
Width: 1344
Flags: W
LayerCount: 2
Fore
SplineSet
205 860 m 1,0,-1
 1139 860 l 1,1,-1
 1139 315 l 1,2,-1
 926 315 l 1,3,-1
 926 646 l 1,4,-1
 205 646 l 1,5,-1
 205 860 l 1,0,-1
EndSplineSet
EndChar

StartChar: divide
Encoding: 247 247 223
Width: 1344
Flags: W
LayerCount: 2
Fore
SplineSet
670 1062 m 0,0,1
 598 1062 598 1062 555 1104 c 128,-1,2
 512 1146 512 1146 512 1214 c 256,3,4
 512 1282 512 1282 555 1324 c 128,-1,5
 598 1366 598 1366 670 1366 c 0,6,7
 744 1366 744 1366 787.5 1324 c 128,-1,8
 831 1282 831 1282 831 1214 c 256,9,10
 831 1146 831 1146 787.5 1104 c 128,-1,11
 744 1062 744 1062 670 1062 c 0,0,1
205 860 m 1,12,-1
 1139 860 l 1,13,-1
 1139 646 l 1,14,-1
 205 646 l 1,15,-1
 205 860 l 1,12,-1
512 292 m 256,16,17
 512 360 512 360 555 401.5 c 128,-1,18
 598 443 598 443 670 443 c 0,19,20
 744 443 744 443 787.5 401.5 c 128,-1,21
 831 360 831 360 831 292 c 256,22,23
 831 224 831 224 787.5 182 c 128,-1,24
 744 140 744 140 670 140 c 0,25,26
 598 140 598 140 555 182 c 128,-1,27
 512 224 512 224 512 292 c 256,16,17
EndSplineSet
EndChar

StartChar: equal
Encoding: 61 61 224
Width: 1344
Flags: W
LayerCount: 2
Fore
SplineSet
205 1085 m 1,0,-1
 1139 1085 l 1,1,-1
 1139 872 l 1,2,-1
 205 872 l 1,3,-1
 205 1085 l 1,0,-1
205 636 m 1,4,-1
 1139 636 l 1,5,-1
 1139 423 l 1,6,-1
 205 423 l 1,7,-1
 205 636 l 1,4,-1
EndSplineSet
EndChar

StartChar: less
Encoding: 60 60 225
Width: 1218
Flags: W
LayerCount: 2
Fore
SplineSet
814 1255 m 1,0,-1
 1104 1255 l 1,1,-1
 439 661 l 1,2,-1
 1104 67 l 1,3,-1
 814 67 l 1,4,-1
 145 661 l 1,5,-1
 814 1255 l 1,0,-1
EndSplineSet
EndChar

StartChar: plus
Encoding: 43 43 227
Width: 1344
Flags: W
LayerCount: 2
Fore
SplineSet
564 646 m 1,0,-1
 205 646 l 1,1,-1
 205 860 l 1,2,-1
 564 860 l 1,3,-1
 564 1233 l 1,4,-1
 777 1233 l 1,5,-1
 777 860 l 1,6,-1
 1139 860 l 1,7,-1
 1139 646 l 1,8,-1
 777 646 l 1,9,-1
 777 266 l 1,10,-1
 564 266 l 1,11,-1
 564 646 l 1,0,-1
EndSplineSet
EndChar

StartChar: plusminus
Encoding: 177 177 228
Width: 1344
Flags: W
LayerCount: 2
Fore
SplineSet
564 749 m 1,0,-1
 205 749 l 1,1,-1
 205 962 l 1,2,-1
 564 962 l 1,3,-1
 564 1336 l 1,4,-1
 777 1336 l 1,5,-1
 777 962 l 1,6,-1
 1139 962 l 1,7,-1
 1139 749 l 1,8,-1
 777 749 l 1,9,-1
 777 368 l 1,10,-1
 564 368 l 1,11,-1
 564 749 l 1,0,-1
205 213 m 1,12,-1
 1139 213 l 1,13,-1
 1139 0 l 1,14,-1
 205 0 l 1,15,-1
 205 213 l 1,12,-1
EndSplineSet
EndChar

StartChar: underscore
Encoding: 95 95 229
Width: 1344
Flags: W
LayerCount: 2
Fore
SplineSet
1436 -195 m 1,0,-1
 1436 -340 l 1,1,-1
 -91 -340 l 1,2,-1
 -91 -195 l 1,3,-1
 1436 -195 l 1,0,-1
EndSplineSet
EndChar

StartChar: multiply
Encoding: 215 215 230
Width: 1246
Flags: W
LayerCount: 2
Fore
SplineSet
205 482 m 1,0,-1
 483 749 l 1,1,-1
 205 1017 l 1,2,-1
 356 1167 l 1,3,-1
 622 888 l 1,4,-1
 890 1167 l 1,5,-1
 1041 1017 l 1,6,-1
 762 749 l 1,7,-1
 1041 482 l 1,8,-1
 890 332 l 1,9,-1
 622 610 l 1,10,-1
 356 332 l 1,11,-1
 205 482 l 1,0,-1
EndSplineSet
EndChar

StartChar: onesuperior
Encoding: 185 185 231
Width: 767
Flags: W
LayerCount: 2
Fore
SplineSet
360 1514 m 1,0,-1
 187 1434 l 1,1,-1
 187 1647 l 1,2,-1
 398 1754 l 1,3,-1
 580 1754 l 1,4,-1
 580 733 l 1,5,-1
 360 733 l 1,6,-1
 360 1514 l 1,0,-1
EndSplineSet
EndChar

StartChar: twosuperior
Encoding: 178 178 232
Width: 969
Flags: W
LayerCount: 2
Fore
SplineSet
186 890 m 1,0,-1
 332 1066 l 2,1,2
 394 1142 394 1142 435 1198.5 c 128,-1,3
 476 1255 476 1255 500 1298.5 c 128,-1,4
 524 1342 524 1342 534 1375.5 c 128,-1,5
 544 1409 544 1409 544 1439 c 0,6,7
 544 1505 544 1505 505 1538.5 c 128,-1,8
 466 1572 466 1572 404 1572 c 0,9,10
 349 1572 349 1572 293 1546.5 c 128,-1,11
 237 1521 237 1521 186 1467 c 1,12,-1
 186 1705 l 1,13,14
 242 1742 242 1742 299 1759.5 c 128,-1,15
 356 1777 356 1777 423 1777 c 0,16,17
 502 1777 502 1777 566.5 1754 c 128,-1,18
 631 1731 631 1731 676.5 1689.5 c 128,-1,19
 722 1648 722 1648 746.5 1591 c 128,-1,20
 771 1534 771 1534 771 1467 c 0,21,22
 771 1425 771 1425 760 1378.5 c 128,-1,23
 749 1332 749 1332 720.5 1276 c 128,-1,24
 692 1220 692 1220 644 1153 c 128,-1,25
 596 1086 596 1086 523 1004 c 2,26,-1
 463 937 l 1,27,-1
 783 937 l 1,28,-1
 783 732 l 1,29,-1
 186 732 l 1,30,-1
 186 890 l 1,0,-1
EndSplineSet
EndChar

StartChar: threesuperior
Encoding: 179 179 233
Width: 1008
Flags: W
LayerCount: 2
Fore
SplineSet
187 987 m 1,0,1
 262 937 262 937 320.5 919.5 c 128,-1,2
 379 902 379 902 429 902 c 0,3,4
 507 902 507 902 544 935 c 128,-1,5
 581 968 581 968 581 1020 c 0,6,7
 581 1089 581 1089 519.5 1128 c 128,-1,8
 458 1167 458 1167 340 1159 c 1,9,-1
 340 1342 l 1,10,11
 395 1355 395 1355 432 1372 c 128,-1,12
 469 1389 469 1389 492 1408 c 128,-1,13
 515 1427 515 1427 525 1448 c 128,-1,14
 535 1469 535 1469 535 1490 c 0,15,16
 535 1534 535 1534 501.5 1558 c 128,-1,17
 468 1582 468 1582 409 1582 c 0,18,19
 362 1582 362 1582 309 1563.5 c 128,-1,20
 256 1545 256 1545 211 1507 c 1,21,-1
 211 1716 l 1,22,23
 229 1729 229 1729 254.5 1740 c 128,-1,24
 280 1751 280 1751 311.5 1759 c 128,-1,25
 343 1767 343 1767 378.5 1772 c 128,-1,26
 414 1777 414 1777 451 1777 c 0,27,28
 527 1777 527 1777 585.5 1757 c 128,-1,29
 644 1737 644 1737 683.5 1703 c 128,-1,30
 723 1669 723 1669 743 1624 c 128,-1,31
 763 1579 763 1579 763 1530 c 0,32,33
 763 1499 763 1499 753.5 1465 c 128,-1,34
 744 1431 744 1431 720.5 1398.5 c 128,-1,35
 697 1366 697 1366 657 1337.5 c 128,-1,36
 617 1309 617 1309 556 1290 c 1,37,38
 628 1275 628 1275 678 1248 c 128,-1,39
 728 1221 728 1221 760 1184 c 128,-1,40
 792 1147 792 1147 806.5 1103 c 128,-1,41
 821 1059 821 1059 821 1010 c 0,42,43
 821 934 821 934 789.5 877.5 c 128,-1,44
 758 821 758 821 705 783 c 128,-1,45
 652 745 652 745 583 726 c 128,-1,46
 514 707 514 707 440 707 c 0,47,48
 398 707 398 707 359 712.5 c 128,-1,49
 320 718 320 718 287 727.5 c 128,-1,50
 254 737 254 737 228 749 c 128,-1,51
 202 761 202 761 187 774 c 1,52,-1
 187 987 l 1,0,1
EndSplineSet
EndChar

StartChar: onehalf
Encoding: 189 189 234
Width: 2126
Flags: W
LayerCount: 2
Fore
SplineSet
1297 1754 m 1,0,-1
 1500 1754 l 1,1,-1
 661 -202 l 1,2,-1
 458 -202 l 1,3,-1
 1297 1754 l 1,0,-1
1361 158 m 1,4,-1
 1507 334 l 2,5,6
 1569 410 1569 410 1610 466.5 c 128,-1,7
 1651 523 1651 523 1675 566.5 c 128,-1,8
 1699 610 1699 610 1709 643.5 c 128,-1,9
 1719 677 1719 677 1719 707 c 0,10,11
 1719 773 1719 773 1680 806.5 c 128,-1,12
 1641 840 1641 840 1579 840 c 0,13,14
 1524 840 1524 840 1468 814.5 c 128,-1,15
 1412 789 1412 789 1361 735 c 1,16,-1
 1361 973 l 1,17,18
 1417 1010 1417 1010 1474 1027.5 c 128,-1,19
 1531 1045 1531 1045 1598 1045 c 0,20,21
 1677 1045 1677 1045 1741.5 1022 c 128,-1,22
 1806 999 1806 999 1851.5 957.5 c 128,-1,23
 1897 916 1897 916 1921.5 859 c 128,-1,24
 1946 802 1946 802 1946 735 c 0,25,26
 1946 693 1946 693 1935 646.5 c 128,-1,27
 1924 600 1924 600 1895.5 544 c 128,-1,28
 1867 488 1867 488 1819 421 c 128,-1,29
 1771 354 1771 354 1698 272 c 2,30,-1
 1638 205 l 1,31,-1
 1958 205 l 1,32,-1
 1958 0 l 1,33,-1
 1361 0 l 1,34,-1
 1361 158 l 1,4,-1
360 1514 m 1,35,-1
 187 1434 l 1,36,-1
 187 1647 l 1,37,-1
 398 1754 l 1,38,-1
 580 1754 l 1,39,-1
 580 733 l 1,40,-1
 360 733 l 1,41,-1
 360 1514 l 1,35,-1
EndSplineSet
EndChar

StartChar: onequarter
Encoding: 188 188 235
Width: 2155
Flags: W
LayerCount: 2
Fore
SplineSet
1297 1754 m 1,0,-1
 1500 1754 l 1,1,-1
 661 -202 l 1,2,-1
 458 -202 l 1,3,-1
 1297 1754 l 1,0,-1
1199 399 m 1,4,-1
 1626 1021 l 1,5,-1
 1831 1021 l 1,6,-1
 1831 399 l 1,7,-1
 1980 399 l 1,8,-1
 1980 220 l 1,9,-1
 1831 220 l 1,10,-1
 1831 0 l 1,11,-1
 1609 0 l 1,12,-1
 1609 220 l 1,13,-1
 1199 220 l 1,14,-1
 1199 399 l 1,4,-1
1609 399 m 1,15,-1
 1609 697 l 1,16,-1
 1412 399 l 1,17,-1
 1609 399 l 1,15,-1
360 1514 m 1,18,-1
 187 1434 l 1,19,-1
 187 1647 l 1,20,-1
 398 1754 l 1,21,-1
 580 1754 l 1,22,-1
 580 733 l 1,23,-1
 360 733 l 1,24,-1
 360 1514 l 1,18,-1
EndSplineSet
EndChar

StartChar: threequarters
Encoding: 190 190 236
Width: 2257
Flags: W
LayerCount: 2
Fore
SplineSet
1400 1754 m 1,0,-1
 1603 1754 l 1,1,-1
 764 -202 l 1,2,-1
 561 -202 l 1,3,-1
 1400 1754 l 1,0,-1
1302 399 m 1,4,-1
 1728 1021 l 1,5,-1
 1933 1021 l 1,6,-1
 1933 399 l 1,7,-1
 2083 399 l 1,8,-1
 2083 220 l 1,9,-1
 1933 220 l 1,10,-1
 1933 0 l 1,11,-1
 1711 0 l 1,12,-1
 1711 220 l 1,13,-1
 1302 220 l 1,14,-1
 1302 399 l 1,4,-1
1711 399 m 1,15,-1
 1711 697 l 1,16,-1
 1515 399 l 1,17,-1
 1711 399 l 1,15,-1
187 987 m 1,18,19
 262 937 262 937 320.5 919.5 c 128,-1,20
 379 902 379 902 429 902 c 0,21,22
 507 902 507 902 544 935 c 128,-1,23
 581 968 581 968 581 1020 c 0,24,25
 581 1089 581 1089 519.5 1128 c 128,-1,26
 458 1167 458 1167 340 1159 c 1,27,-1
 340 1342 l 1,28,29
 395 1355 395 1355 432 1372 c 128,-1,30
 469 1389 469 1389 492 1408 c 128,-1,31
 515 1427 515 1427 525 1448 c 128,-1,32
 535 1469 535 1469 535 1490 c 0,33,34
 535 1534 535 1534 501.5 1558 c 128,-1,35
 468 1582 468 1582 409 1582 c 0,36,37
 362 1582 362 1582 309 1563.5 c 128,-1,38
 256 1545 256 1545 211 1507 c 1,39,-1
 211 1716 l 1,40,41
 229 1729 229 1729 254.5 1740 c 128,-1,42
 280 1751 280 1751 311.5 1759 c 128,-1,43
 343 1767 343 1767 378.5 1772 c 128,-1,44
 414 1777 414 1777 451 1777 c 0,45,46
 527 1777 527 1777 585.5 1757 c 128,-1,47
 644 1737 644 1737 683.5 1703 c 128,-1,48
 723 1669 723 1669 743 1624 c 128,-1,49
 763 1579 763 1579 763 1530 c 0,50,51
 763 1499 763 1499 753.5 1465 c 128,-1,52
 744 1431 744 1431 720.5 1398.5 c 128,-1,53
 697 1366 697 1366 657 1337.5 c 128,-1,54
 617 1309 617 1309 556 1290 c 1,55,56
 628 1275 628 1275 678 1248 c 128,-1,57
 728 1221 728 1221 760 1184 c 128,-1,58
 792 1147 792 1147 806.5 1103 c 128,-1,59
 821 1059 821 1059 821 1010 c 0,60,61
 821 934 821 934 789.5 877.5 c 128,-1,62
 758 821 758 821 705 783 c 128,-1,63
 652 745 652 745 583 726 c 128,-1,64
 514 707 514 707 440 707 c 0,65,66
 398 707 398 707 359 712.5 c 128,-1,67
 320 718 320 718 287 727.5 c 128,-1,68
 254 737 254 737 228 749 c 128,-1,69
 202 761 202 761 187 774 c 1,70,-1
 187 987 l 1,18,19
EndSplineSet
EndChar

StartChar: E
Encoding: 69 69 259
Width: 1153
Flags: W
LayerCount: 2
Fore
SplineSet
214 1571 m 1,0,-1
 1040 1571 l 1,1,-1
 1040 1373 l 1,2,-1
 459 1373 l 1,3,-1
 459 939 l 1,4,-1
 902 939 l 1,5,-1
 902 742 l 1,6,-1
 459 742 l 1,7,-1
 459 202 l 1,8,-1
 1080 202 l 1,9,-1
 1080 0 l 1,10,-1
 214 0 l 1,11,-1
 214 1571 l 1,0,-1
EndSplineSet
EndChar

StartChar: D
Encoding: 68 68 260
Width: 1359
Flags: W
LayerCount: 2
Fore
SplineSet
214 1571 m 1,0,1
 247 1571 247 1571 286.5 1572 c 128,-1,2
 326 1573 326 1573 367.5 1574 c 128,-1,3
 409 1575 409 1575 448 1576 c 128,-1,4
 487 1577 487 1577 519 1577 c 0,5,6
 732 1577 732 1577 876.5 1527 c 128,-1,7
 1021 1477 1021 1477 1109.5 1380 c 128,-1,8
 1198 1283 1198 1283 1236.5 1139.5 c 128,-1,9
 1275 996 1275 996 1275 809 c 0,10,11
 1275 613 1275 613 1233.5 461 c 128,-1,12
 1192 309 1192 309 1099.5 205 c 128,-1,13
 1007 101 1007 101 858 47 c 128,-1,14
 709 -7 709 -7 495 -7 c 0,15,16
 423 -7 423 -7 357 -3.5 c 128,-1,17
 291 0 291 0 214 0 c 1,18,-1
 214 1571 l 1,0,1
459 197 m 1,19,20
 478 195 478 195 495.5 194.5 c 128,-1,21
 513 194 513 194 538 194 c 0,22,23
 675 194 675 194 768.5 229.5 c 128,-1,24
 862 265 862 265 919 339 c 128,-1,25
 976 413 976 413 1001 527.5 c 128,-1,26
 1026 642 1026 642 1026 801 c 0,27,28
 1026 958 1026 958 1001 1067.5 c 128,-1,29
 976 1177 976 1177 918.5 1246 c 128,-1,30
 861 1315 861 1315 765.5 1346 c 128,-1,31
 670 1377 670 1377 529 1377 c 0,32,33
 506 1377 506 1377 490.5 1376.5 c 128,-1,34
 475 1376 475 1376 459 1375 c 1,35,-1
 459 197 l 1,19,20
EndSplineSet
EndChar

StartChar: florin
Encoding: 402 402 271
Width: 694
Flags: W
LayerCount: 2
Fore
SplineSet
6 -11 m 0,0,1
 -17 -11 -17 -11 -41 -9 c 128,-1,2
 -65 -7 -65 -7 -78 -4 c 1,3,-1
 -78 190 l 1,4,5
 -60 182 -60 182 -38.5 178.5 c 128,-1,6
 -17 175 -17 175 3 175 c 0,7,8
 70 175 70 175 109 214.5 c 128,-1,9
 148 254 148 254 153 326 c 2,10,-1
 196 958 l 1,11,-1
 85 958 l 1,12,-1
 85 1135 l 1,13,-1
 208 1135 l 1,14,-1
 224 1357 l 2,15,16
 230 1439 230 1439 257.5 1506.5 c 128,-1,17
 285 1574 285 1574 333.5 1622 c 128,-1,18
 382 1670 382 1670 452 1696.5 c 128,-1,19
 522 1723 522 1723 612 1723 c 0,20,21
 635 1723 635 1723 659.5 1721 c 128,-1,22
 684 1719 684 1719 697 1716 c 1,23,-1
 697 1522 l 1,24,25
 679 1530 679 1530 657 1533.5 c 128,-1,26
 635 1537 635 1537 615 1537 c 0,27,28
 548 1537 548 1537 509.5 1497.5 c 128,-1,29
 471 1458 471 1458 466 1386 c 2,30,-1
 448 1135 l 1,31,-1
 625 1135 l 1,32,-1
 625 958 l 1,33,-1
 436 958 l 1,34,-1
 395 355 l 2,35,36
 389 273 389 273 361 205.5 c 128,-1,37
 333 138 333 138 284.5 90 c 128,-1,38
 236 42 236 42 166 15.5 c 128,-1,39
 96 -11 96 -11 6 -11 c 0,0,1
EndSplineSet
EndChar

StartChar: perthousand
Encoding: 8240 8240 276
Width: 3104
Flags: W
LayerCount: 2
Fore
SplineSet
527 757 m 256,0,1
 444 757 444 757 374.5 785.5 c 128,-1,2
 305 814 305 814 254.5 871.5 c 128,-1,3
 204 929 204 929 175.5 1017 c 128,-1,4
 147 1105 147 1105 147 1225 c 256,5,6
 147 1345 147 1345 175.5 1433.5 c 128,-1,7
 204 1522 204 1522 254.5 1579.5 c 128,-1,8
 305 1637 305 1637 374.5 1665.5 c 128,-1,9
 444 1694 444 1694 527 1694 c 256,10,11
 610 1694 610 1694 679.5 1665.5 c 128,-1,12
 749 1637 749 1637 799.5 1579.5 c 128,-1,13
 850 1522 850 1522 878.5 1433.5 c 128,-1,14
 907 1345 907 1345 907 1225 c 256,15,16
 907 1105 907 1105 878.5 1017 c 128,-1,17
 850 929 850 929 799.5 871.5 c 128,-1,18
 749 814 749 814 679.5 785.5 c 128,-1,19
 610 757 610 757 527 757 c 256,0,1
1374 1687 m 1,20,-1
 1588 1687 l 1,21,-1
 870 0 l 1,22,-1
 655 0 l 1,23,-1
 1374 1687 l 1,20,-1
527 940 m 256,24,25
 563 940 563 940 593.5 954.5 c 128,-1,26
 624 969 624 969 646 1002.5 c 128,-1,27
 668 1036 668 1036 680 1090 c 128,-1,28
 692 1144 692 1144 692 1223 c 256,29,30
 692 1302 692 1302 680 1356 c 128,-1,31
 668 1410 668 1410 646 1443.5 c 128,-1,32
 624 1477 624 1477 593.5 1492 c 128,-1,33
 563 1507 563 1507 527 1507 c 256,34,35
 491 1507 491 1507 460.5 1492 c 128,-1,36
 430 1477 430 1477 408 1443.5 c 128,-1,37
 386 1410 386 1410 373.5 1356 c 128,-1,38
 361 1302 361 1302 361 1223 c 256,39,40
 361 1144 361 1144 373.5 1090 c 128,-1,41
 386 1036 386 1036 408 1002.5 c 128,-1,42
 430 969 430 969 460.5 954.5 c 128,-1,43
 491 940 491 940 527 940 c 256,24,25
2195 447 m 256,44,45
 2195 567 2195 567 2223.5 655 c 128,-1,46
 2252 743 2252 743 2302.5 800.5 c 128,-1,47
 2353 858 2353 858 2423 886.5 c 128,-1,48
 2493 915 2493 915 2576 915 c 256,49,50
 2659 915 2659 915 2728.5 886.5 c 128,-1,51
 2798 858 2798 858 2848.5 800.5 c 128,-1,52
 2899 743 2899 743 2927.5 655 c 128,-1,53
 2956 567 2956 567 2956 447 c 256,54,55
 2956 327 2956 327 2927.5 239 c 128,-1,56
 2899 151 2899 151 2848.5 93 c 128,-1,57
 2798 35 2798 35 2728.5 6.5 c 128,-1,58
 2659 -22 2659 -22 2576 -22 c 256,59,60
 2493 -22 2493 -22 2423 6.5 c 128,-1,61
 2353 35 2353 35 2302.5 93 c 128,-1,62
 2252 151 2252 151 2223.5 239 c 128,-1,63
 2195 327 2195 327 2195 447 c 256,44,45
1319 447 m 256,64,65
 1319 567 1319 567 1347.5 655 c 128,-1,66
 1376 743 1376 743 1426.5 800.5 c 128,-1,67
 1477 858 1477 858 1547 886.5 c 128,-1,68
 1617 915 1617 915 1700 915 c 256,69,70
 1783 915 1783 915 1852.5 886.5 c 128,-1,71
 1922 858 1922 858 1972.5 800.5 c 128,-1,72
 2023 743 2023 743 2051.5 655 c 128,-1,73
 2080 567 2080 567 2080 447 c 256,74,75
 2080 327 2080 327 2051.5 239 c 128,-1,76
 2023 151 2023 151 1972.5 93 c 128,-1,77
 1922 35 1922 35 1852.5 6.5 c 128,-1,78
 1783 -22 1783 -22 1700 -22 c 256,79,80
 1617 -22 1617 -22 1547 6.5 c 128,-1,81
 1477 35 1477 35 1426.5 93 c 128,-1,82
 1376 151 1376 151 1347.5 239 c 128,-1,83
 1319 327 1319 327 1319 447 c 256,64,65
2409 445 m 0,84,85
 2409 366 2409 366 2421.5 312 c 128,-1,86
 2434 258 2434 258 2456 224.5 c 128,-1,87
 2478 191 2478 191 2509 176.5 c 128,-1,88
 2540 162 2540 162 2576 162 c 256,89,90
 2612 162 2612 162 2642.5 176.5 c 128,-1,91
 2673 191 2673 191 2694.5 224.5 c 128,-1,92
 2716 258 2716 258 2728 312 c 128,-1,93
 2740 366 2740 366 2740 445 c 0,94,95
 2740 523 2740 523 2728 577 c 128,-1,96
 2716 631 2716 631 2694.5 664.5 c 128,-1,97
 2673 698 2673 698 2642.5 713 c 128,-1,98
 2612 728 2612 728 2576 728 c 256,99,100
 2540 728 2540 728 2509 713 c 128,-1,101
 2478 698 2478 698 2456 664.5 c 128,-1,102
 2434 631 2434 631 2421.5 577 c 128,-1,103
 2409 523 2409 523 2409 445 c 0,84,85
1533 445 m 0,104,105
 1533 366 1533 366 1545.5 312 c 128,-1,106
 1558 258 1558 258 1580 224.5 c 128,-1,107
 1602 191 1602 191 1633 176.5 c 128,-1,108
 1664 162 1664 162 1700 162 c 256,109,110
 1736 162 1736 162 1766.5 176.5 c 128,-1,111
 1797 191 1797 191 1818.5 224.5 c 128,-1,112
 1840 258 1840 258 1852 312 c 128,-1,113
 1864 366 1864 366 1864 445 c 0,114,115
 1864 523 1864 523 1852 577 c 128,-1,116
 1840 631 1840 631 1818.5 664.5 c 128,-1,117
 1797 698 1797 698 1766.5 713 c 128,-1,118
 1736 728 1736 728 1700 728 c 256,119,120
 1664 728 1664 728 1633 713 c 128,-1,121
 1602 698 1602 698 1580 664.5 c 128,-1,122
 1558 631 1558 631 1545.5 577 c 128,-1,123
 1533 523 1533 523 1533 445 c 0,104,105
EndSplineSet
EndChar

StartChar: dagger
Encoding: 8224 8224 277
Width: 611
Flags: W
LayerCount: 2
Fore
SplineSet
213 1185 m 1,0,-1
 -47 1178 l 1,1,-1
 -47 1392 l 1,2,-1
 210 1385 l 1,3,-1
 205 1851 l 1,4,-1
 407 1851 l 1,5,-1
 401 1384 l 1,6,-1
 659 1392 l 1,7,-1
 659 1178 l 1,8,-1
 399 1185 l 1,9,-1
 387 170 l 1,10,-1
 225 170 l 1,11,-1
 213 1185 l 1,0,-1
EndSplineSet
EndChar

StartChar: daggerdbl
Encoding: 8225 8225 278
Width: 611
Flags: W
LayerCount: 2
Fore
SplineSet
216 456 m 1,0,-1
 -47 449 l 1,1,-1
 -47 663 l 1,2,-1
 220 655 l 1,3,-1
 225 850 l 1,4,-1
 218 1185 l 1,5,-1
 -47 1178 l 1,6,-1
 -47 1392 l 1,7,-1
 214 1384 l 1,8,-1
 205 1851 l 1,9,-1
 407 1851 l 1,10,-1
 397 1384 l 1,11,-1
 659 1392 l 1,12,-1
 659 1178 l 1,13,-1
 393 1185 l 1,14,-1
 387 850 l 1,15,-1
 391 655 l 1,16,-1
 659 663 l 1,17,-1
 659 449 l 1,18,-1
 396 456 l 1,19,-1
 407 -10 l 1,20,-1
 205 -10 l 1,21,-1
 216 456 l 1,0,-1
EndSplineSet
EndChar

StartChar: uni03BC
Encoding: 956 956 279
Width: 1205
Flags: W
LayerCount: 2
Fore
SplineSet
383 -520 m 1,0,-1
 141 -520 l 1,1,-1
 141 1135 l 1,2,-1
 384 1135 l 1,3,-1
 384 421 l 2,4,5
 384 291 384 291 427.5 228 c 128,-1,6
 471 165 471 165 569 165 c 0,7,8
 636 165 636 165 693 194.5 c 128,-1,9
 750 224 750 224 793 286 c 1,10,-1
 793 1135 l 1,11,-1
 1035 1135 l 1,12,-1
 1035 179 l 1,13,-1
 1180 178 l 1,14,15
 1177 143 1177 143 1163 108 c 128,-1,16
 1149 73 1149 73 1123 44.5 c 128,-1,17
 1097 16 1097 16 1058.5 -2 c 128,-1,18
 1020 -20 1020 -20 968 -20 c 0,19,20
 893 -20 893 -20 850.5 17 c 128,-1,21
 808 54 808 54 808 120 c 1,22,23
 762 55 762 55 698 16 c 128,-1,24
 634 -23 634 -23 541 -23 c 0,25,26
 517 -23 517 -23 490.5 -17 c 128,-1,27
 464 -11 464 -11 439 0 c 128,-1,28
 414 11 414 11 393 26 c 128,-1,29
 372 41 372 41 360 59 c 1,30,-1
 383 -520 l 1,0,-1
EndSplineSet
EndChar

StartChar: quotereversed
Encoding: 8219 8219 285
Width: 765
Flags: W
LayerCount: 2
Fore
SplineSet
559 945 m 1,0,1
 459 959 459 959 387.5 1005 c 128,-1,2
 316 1051 316 1051 270 1117 c 128,-1,3
 224 1183 224 1183 202 1263 c 128,-1,4
 180 1343 180 1343 180 1425 c 0,5,6
 180 1498 180 1498 196 1551.5 c 128,-1,7
 212 1605 212 1605 241 1639.5 c 128,-1,8
 270 1674 270 1674 310.5 1690.5 c 128,-1,9
 351 1707 351 1707 399 1707 c 0,10,11
 444 1707 444 1707 480 1693.5 c 128,-1,12
 516 1680 516 1680 542 1655.5 c 128,-1,13
 568 1631 568 1631 582 1597.5 c 128,-1,14
 596 1564 596 1564 596 1524 c 0,15,16
 596 1442 596 1442 542.5 1392 c 128,-1,17
 489 1342 489 1342 393 1342 c 1,18,19
 393 1300 393 1300 400 1262.5 c 128,-1,20
 407 1225 407 1225 425 1193 c 128,-1,21
 443 1161 443 1161 475.5 1136 c 128,-1,22
 508 1111 508 1111 559 1096 c 1,23,-1
 559 945 l 1,24,-1
 559 945 l 1,0,1
EndSplineSet
EndChar

StartChar: Hbar
Encoding: 294 294 286
Width: 1451
Flags: W
LayerCount: 2
Fore
SplineSet
214 1056 m 1,0,-1
 99 1056 l 1,1,-1
 99 1258 l 1,2,-1
 214 1258 l 1,3,-1
 214 1571 l 1,4,-1
 459 1571 l 1,5,-1
 459 1258 l 1,6,-1
 992 1258 l 1,7,-1
 992 1571 l 1,8,-1
 1237 1571 l 1,9,-1
 1237 1258 l 1,10,-1
 1366 1258 l 1,11,-1
 1366 1056 l 1,12,-1
 1237 1056 l 1,13,-1
 1237 0 l 1,14,-1
 992 0 l 1,15,-1
 992 568 l 1,16,-1
 459 568 l 1,17,-1
 459 0 l 1,18,-1
 214 0 l 1,19,-1
 214 1056 l 1,0,-1
992 765 m 1,20,-1
 992 1056 l 1,21,-1
 459 1056 l 1,22,-1
 459 765 l 1,23,-1
 992 765 l 1,20,-1
EndSplineSet
EndChar

StartChar: estimated
Encoding: 8494 8494 287
Width: 1373
Flags: W
LayerCount: 2
Fore
SplineSet
382 270 m 1,0,1
 413 226 413 226 452.5 196 c 128,-1,2
 492 166 492 166 538.5 147.5 c 128,-1,3
 585 129 585 129 638 120.5 c 128,-1,4
 691 112 691 112 748 112 c 0,5,6
 804 112 804 112 859 122.5 c 128,-1,7
 914 133 914 133 962 148 c 128,-1,8
 1010 163 1010 163 1049 180.5 c 128,-1,9
 1088 198 1088 198 1113 212 c 1,10,-1
 1161 90 l 1,11,12
 1129 67 1129 67 1079 47.5 c 128,-1,13
 1029 28 1029 28 969.5 14 c 128,-1,14
 910 0 910 0 847 -8 c 128,-1,15
 784 -16 784 -16 727 -16 c 0,16,17
 579 -16 579 -16 463.5 31 c 128,-1,18
 348 78 348 78 268 166.5 c 128,-1,19
 188 255 188 255 146 382.5 c 128,-1,20
 104 510 104 510 104 671 c 0,21,22
 104 818 104 818 142.5 942.5 c 128,-1,23
 181 1067 181 1067 259 1158 c 128,-1,24
 337 1249 337 1249 455 1301 c 128,-1,25
 573 1353 573 1353 731 1356 c 0,26,27
 840 1358 840 1358 936 1322.5 c 128,-1,28
 1032 1287 1032 1287 1105 1219 c 128,-1,29
 1178 1151 1178 1151 1221.5 1053 c 128,-1,30
 1265 955 1265 955 1269 832 c 1,31,32
 1269 767 1269 767 1267.5 715.5 c 128,-1,33
 1266 664 1266 664 1258 626 c 1,34,-1
 382 626 l 1,35,-1
 382 270 l 1,0,1
1009 768 m 1,36,-1
 1009 1114 l 1,37,38
 967 1165 967 1165 897.5 1196 c 128,-1,39
 828 1227 828 1227 718 1227 c 0,40,41
 667 1227 667 1227 619 1217.5 c 128,-1,42
 571 1208 571 1208 528 1188.5 c 128,-1,43
 485 1169 485 1169 448 1137.5 c 128,-1,44
 411 1106 411 1106 382 1063 c 1,45,-1
 382 768 l 1,46,-1
 1009 768 l 1,36,-1
EndSplineSet
EndChar
